M48
; DRILL file {KiCad 5.1.7-a382d34a8~88~ubuntu18.04.1} date Thu Apr 29 22:02:06 2021
; FORMAT={-:-/ absolute / inch / decimal}
; #@! TF.CreationDate,2021-04-29T22:02:06-07:00
; #@! TF.GenerationSoftware,Kicad,Pcbnew,5.1.7-a382d34a8~88~ubuntu18.04.1
FMAT,2
INCH
T1C0.0079
T2C0.0118
T3C0.0157
T4C0.0256
T5C0.0394
T6C0.0551
T7C0.0236
T8C0.0248
%
G90
G05
T1
X6.9134Y-3.3425
X6.9134Y-3.3819
X6.9134Y-3.4213
X6.9528Y-3.3425
X6.9528Y-3.3819
X6.9528Y-3.4213
X6.9921Y-3.3425
X6.9921Y-3.3819
X6.9921Y-3.4213
T2
X3.8031Y-2.7165
X4.0276Y-2.8504
X4.0315Y-3.8622
X4.063Y-3.7953
X4.063Y-3.8622
X4.0748Y-2.8504
X4.0945Y-3.8622
X4.1102Y-4.2815
X4.122Y-2.8504
X4.1535Y-3.1693
X4.1693Y-2.8504
X4.311Y-3.7165
X4.3337Y-3.499
X4.3425Y-3.7165
X4.374Y-3.3858
X4.374Y-3.7165
X4.5039Y-3.3268
X4.5433Y-3.437
X4.5433Y-3.4646
X4.5433Y-3.4055
X4.5439Y-3.4921
X4.5787Y-3.3858
X4.5925Y-3.3012
X4.6752Y-2.3327
X4.6752Y-2.4016
X4.6752Y-2.4803
X4.7244Y-3.7087
X4.7244Y-3.7598
X4.7756Y-3.0276
X4.7854Y-2.9783
X4.8031Y-2.2205
X4.8031Y-2.5846
X4.8031Y-3.437
X4.8071Y-3.7244
X4.815Y-3.0276
X4.8346Y-3.4528
X4.8661Y-3.4528
X4.9016Y-3.4409
X4.9114Y-2.5846
X4.9114Y-2.7116
X4.9764Y-3.9291
X5.019Y-3.2881
X5.0197Y-3.3189
X5.0197Y-3.2244
X5.0197Y-3.2559
X5.0197Y-3.3583
X5.0197Y-3.4173
X5.0354Y-3.0394
X5.0709Y-2.936
X5.128Y-2.9783
X5.128Y-3.0177
X5.128Y-3.0571
X5.1673Y-2.9783
X5.1673Y-3.0177
X5.1673Y-3.0571
X5.2008Y-3.9291
X5.2067Y-2.9783
X5.2067Y-3.0177
X5.2067Y-3.0571
X5.2185Y-3.2815
X5.2913Y-2.7087
X5.2975Y-3.8206
X5.3228Y-2.6772
X5.3543Y-2.6457
X5.3976Y-3.2874
X5.3976Y-3.3189
X5.3976Y-3.3504
X5.4021Y-4.1964
X5.4331Y-3.9213
X5.4651Y-4.1964
X5.4843Y-1.9843
X5.4961Y-3.9213
X5.5285Y-4.1959
X5.5591Y-3.9213
X5.5709Y-1.8976
X5.7008Y-3.3701
X5.748Y-2.0571
X5.8445Y-3.6378
X5.8524Y-1.8701
X5.8661Y-2.0571
X5.8917Y-1.8701
X5.9094Y-3.437
X5.9843Y-2.0571
X5.9877Y-3.19
X6.0118Y-3.378
X6.0197Y-3.6299
X6.0354Y-3.2362
X6.122Y-3.5669
X6.1339Y-3.5197
X6.1339Y-2.4921
X6.1654Y-3.5551
X6.1654Y-3.6024
X6.187Y-2.0531
X6.187Y-2.2559
X6.2165Y-3.6339
X6.2402Y-2.8346
X6.2795Y-3.4764
X6.2874Y-3.3583
X6.2875Y-3.438
X6.3071Y-3.6575
X6.311Y-3.4764
X6.315Y-3.3819
X6.3386Y-2.4409
X6.3425Y-3.4764
X6.4331Y-3.6575
X6.4331Y-3.8898
X6.5394Y-2.3819
X6.563Y-3.3976
X6.5906Y-3.5236
X6.6181Y-3.4449
X6.622Y-3.5236
X6.6299Y-3.6772
X6.6535Y-3.5236
X6.689Y-3.4055
X6.689Y-3.4449
X6.7205Y-3.313
X6.7441Y-3.4646
X6.7638Y-3.0709
X6.7638Y-3.189
X6.7717Y-3.252
X6.7717Y-3.2874
X6.815Y-3.4606
X6.8622Y-3.5394
X6.9173Y-3.2244
X6.9528Y-3.2165
X7.002Y-3.1929
X7.0886Y-3.4646
X7.126Y-3.315
X7.2894Y-3.376
X7.2894Y-3.4665
X7.2933Y-3.1673
X7.3346Y-3.2677
X7.3346Y-3.315
X7.3937Y-3.4331
T3
X4.5591Y-3.7087
T5
X5.8567Y-2.6772
X5.9567Y-2.6772
X6.3465Y-1.7559
X6.3465Y-1.8559
X3.7717Y-3.1378
X3.7717Y-3.2378
X3.7717Y-3.3378
X3.7717Y-3.4378
X3.7717Y-3.5378
X3.7717Y-3.6378
X3.7717Y-3.7378
X3.7717Y-3.8378
X6.752Y-2.7559
X6.752Y-2.8559
X4.3937Y-4.3228
X4.4937Y-4.3228
X4.5937Y-4.3228
X4.6937Y-4.3228
X4.7937Y-4.3228
X4.8937Y-4.3228
X4.9937Y-4.3228
X5.0937Y-4.3228
X4.0079Y-3.9685
X4.1079Y-3.9685
X4.2079Y-3.9685
X4.3079Y-3.9685
X4.4079Y-3.9685
X4.5079Y-3.9685
X5.5118Y-2.8189
X5.5118Y-2.9189
X5.5118Y-3.0189
X5.5118Y-3.1189
X5.5118Y-3.2189
X5.5118Y-3.3189
X5.5118Y-3.4189
X5.5118Y-3.5189
X5.5118Y-3.6189
X5.5118Y-3.7189
X5.5118Y-3.8189
X5.6118Y-2.8189
X5.6118Y-2.9189
X5.6118Y-3.0189
X5.6118Y-3.1189
X5.6118Y-3.2189
X5.6118Y-3.3189
X5.6118Y-3.4189
X5.6118Y-3.5189
X5.6118Y-3.6189
X5.6118Y-3.7189
X5.6118Y-3.8189
T6
X3.6614Y-1.8711
X3.6614Y-2.3711
X4.3004Y-1.8711
X4.3004Y-2.3711
X6.7205Y-1.8711
X6.7205Y-2.3711
X7.3594Y-1.8711
X7.3594Y-2.3711
T7
X5.7441Y-1.7756
T8
X5.7441Y-1.7756
X5.9803Y-1.7756
T4
G00X5.6921Y-1.6791
M15
G01X5.6921Y-1.628
M16
G05
G00X5.6921Y-1.8238
M15
G01X5.6921Y-1.7844
M16
G05
G00X6.0323Y-1.6791
M15
G01X6.0323Y-1.628
M16
G05
G00X6.0323Y-1.8238
M15
G01X6.0323Y-1.7844
M16
G05
T5
G00X4.8858Y-1.9646
M15
G01X4.8858Y-2.0433
M16
G05
G00X5.1102Y-1.8858
M15
G01X5.0315Y-1.8858
M16
G05
G00X5.1102Y-2.122
M15
G01X5.0315Y-2.122
M16
G05
T0
M30
