%TF.GenerationSoftware,KiCad,Pcbnew,5.1.7-a382d34a8~88~ubuntu18.04.1*%
%TF.CreationDate,2021-04-29T22:01:18-07:00*%
%TF.ProjectId,dsp_dev_board,6473705f-6465-4765-9f62-6f6172642e6b,rev?*%
%TF.SameCoordinates,Original*%
%TF.FileFunction,Soldermask,Bot*%
%TF.FilePolarity,Negative*%
%FSLAX46Y46*%
G04 Gerber Fmt 4.6, Leading zero omitted, Abs format (unit mm)*
G04 Created by KiCad (PCBNEW 5.1.7-a382d34a8~88~ubuntu18.04.1) date 2021-04-29 22:01:18*
%MOMM*%
%LPD*%
G01*
G04 APERTURE LIST*
%ADD10O,1.700000X1.700000*%
%ADD11R,1.700000X1.700000*%
%ADD12C,0.600000*%
%ADD13C,0.630000*%
%ADD14O,1.158000X2.316000*%
%ADD15O,1.200000X2.400000*%
%ADD16C,3.000000*%
%ADD17R,3.500000X3.500000*%
G04 APERTURE END LIST*
D10*
%TO.C,J11*%
X142540000Y-97000000D03*
X140000000Y-97000000D03*
X142540000Y-94460000D03*
X140000000Y-94460000D03*
X142540000Y-91920000D03*
X140000000Y-91920000D03*
X142540000Y-89380000D03*
X140000000Y-89380000D03*
X142540000Y-86840000D03*
X140000000Y-86840000D03*
X142540000Y-84300000D03*
X140000000Y-84300000D03*
X142540000Y-81760000D03*
X140000000Y-81760000D03*
X142540000Y-79220000D03*
X140000000Y-79220000D03*
X142540000Y-76680000D03*
X140000000Y-76680000D03*
X142540000Y-74140000D03*
X140000000Y-74140000D03*
X142540000Y-71600000D03*
D11*
X140000000Y-71600000D03*
%TD*%
D12*
%TO.C,J10*%
X145900000Y-45100000D03*
D13*
X145900000Y-45100000D03*
X151900000Y-45100000D03*
D14*
X153220000Y-45825000D03*
X144580000Y-45825000D03*
D15*
X153220000Y-42000000D03*
X144580000Y-42000000D03*
%TD*%
D10*
%TO.C,J9*%
X114500000Y-100800000D03*
X111960000Y-100800000D03*
X109420000Y-100800000D03*
X106880000Y-100800000D03*
X104340000Y-100800000D03*
D11*
X101800000Y-100800000D03*
%TD*%
D10*
%TO.C,J8*%
X129380000Y-109800000D03*
X126840000Y-109800000D03*
X124300000Y-109800000D03*
X121760000Y-109800000D03*
X119220000Y-109800000D03*
X116680000Y-109800000D03*
X114140000Y-109800000D03*
D11*
X111600000Y-109800000D03*
%TD*%
D10*
%TO.C,J7*%
X95800000Y-97480000D03*
X95800000Y-94940000D03*
X95800000Y-92400000D03*
X95800000Y-89860000D03*
X95800000Y-87320000D03*
X95800000Y-84780000D03*
X95800000Y-82240000D03*
D11*
X95800000Y-79700000D03*
%TD*%
D16*
%TO.C,J6*%
X109230000Y-60225001D03*
X109230000Y-47525001D03*
X93000000Y-60225001D03*
X93000000Y-47525001D03*
%TD*%
%TO.C,J5*%
X186930000Y-60225001D03*
X186930000Y-47525001D03*
X170700000Y-60225001D03*
X170700000Y-47525001D03*
%TD*%
D17*
%TO.C,J4*%
X128800000Y-53900000D03*
G36*
G01*
X127800000Y-46400000D02*
X129800000Y-46400000D01*
G75*
G02*
X130550000Y-47150000I0J-750000D01*
G01*
X130550000Y-48650000D01*
G75*
G02*
X129800000Y-49400000I-750000J0D01*
G01*
X127800000Y-49400000D01*
G75*
G02*
X127050000Y-48650000I0J750000D01*
G01*
X127050000Y-47150000D01*
G75*
G02*
X127800000Y-46400000I750000J0D01*
G01*
G37*
G36*
G01*
X123225000Y-49150000D02*
X124975000Y-49150000D01*
G75*
G02*
X125850000Y-50025000I0J-875000D01*
G01*
X125850000Y-51775000D01*
G75*
G02*
X124975000Y-52650000I-875000J0D01*
G01*
X123225000Y-52650000D01*
G75*
G02*
X122350000Y-51775000I0J875000D01*
G01*
X122350000Y-50025000D01*
G75*
G02*
X123225000Y-49150000I875000J0D01*
G01*
G37*
%TD*%
D10*
%TO.C,J3*%
X148760000Y-68000000D03*
D11*
X151300000Y-68000000D03*
%TD*%
D10*
%TO.C,J2*%
X171500000Y-72540000D03*
D11*
X171500000Y-70000000D03*
%TD*%
D10*
%TO.C,J1*%
X161200000Y-47140000D03*
D11*
X161200000Y-44600000D03*
%TD*%
M02*
