%TF.GenerationSoftware,KiCad,Pcbnew,5.1.7-a382d34a8~88~ubuntu18.04.1*%
%TF.CreationDate,2021-04-29T22:01:18-07:00*%
%TF.ProjectId,dsp_dev_board,6473705f-6465-4765-9f62-6f6172642e6b,rev?*%
%TF.SameCoordinates,Original*%
%TF.FileFunction,Legend,Top*%
%TF.FilePolarity,Positive*%
%FSLAX46Y46*%
G04 Gerber Fmt 4.6, Leading zero omitted, Abs format (unit mm)*
G04 Created by KiCad (PCBNEW 5.1.7-a382d34a8~88~ubuntu18.04.1) date 2021-04-29 22:01:18*
%MOMM*%
%LPD*%
G01*
G04 APERTURE LIST*
%ADD10C,0.150000*%
%ADD11C,0.120000*%
%ADD12C,0.127000*%
%ADD13C,0.200000*%
G04 APERTURE END LIST*
D10*
X97443452Y-111052380D02*
X97443452Y-110385714D01*
X97443452Y-110576190D02*
X97491071Y-110480952D01*
X97538690Y-110433333D01*
X97633928Y-110385714D01*
X97729166Y-110385714D01*
X98443452Y-111004761D02*
X98348214Y-111052380D01*
X98157738Y-111052380D01*
X98062500Y-111004761D01*
X98014880Y-110909523D01*
X98014880Y-110528571D01*
X98062500Y-110433333D01*
X98157738Y-110385714D01*
X98348214Y-110385714D01*
X98443452Y-110433333D01*
X98491071Y-110528571D01*
X98491071Y-110623809D01*
X98014880Y-110719047D01*
X98872023Y-111004761D02*
X98967261Y-111052380D01*
X99157738Y-111052380D01*
X99252976Y-111004761D01*
X99300595Y-110909523D01*
X99300595Y-110861904D01*
X99252976Y-110766666D01*
X99157738Y-110719047D01*
X99014880Y-110719047D01*
X98919642Y-110671428D01*
X98872023Y-110576190D01*
X98872023Y-110528571D01*
X98919642Y-110433333D01*
X99014880Y-110385714D01*
X99157738Y-110385714D01*
X99252976Y-110433333D01*
X100110119Y-111004761D02*
X100014880Y-111052380D01*
X99824404Y-111052380D01*
X99729166Y-111004761D01*
X99681547Y-110909523D01*
X99681547Y-110528571D01*
X99729166Y-110433333D01*
X99824404Y-110385714D01*
X100014880Y-110385714D01*
X100110119Y-110433333D01*
X100157738Y-110528571D01*
X100157738Y-110623809D01*
X99681547Y-110719047D01*
X100443452Y-110385714D02*
X100824404Y-110385714D01*
X100586309Y-110052380D02*
X100586309Y-110909523D01*
X100633928Y-111004761D01*
X100729166Y-111052380D01*
X100824404Y-111052380D01*
X152595238Y-111252380D02*
X152595238Y-110252380D01*
X152595238Y-110633333D02*
X152690476Y-110585714D01*
X152880952Y-110585714D01*
X152976190Y-110633333D01*
X153023809Y-110680952D01*
X153071428Y-110776190D01*
X153071428Y-111061904D01*
X153023809Y-111157142D01*
X152976190Y-111204761D01*
X152880952Y-111252380D01*
X152690476Y-111252380D01*
X152595238Y-111204761D01*
X153642857Y-111252380D02*
X153547619Y-111204761D01*
X153500000Y-111157142D01*
X153452380Y-111061904D01*
X153452380Y-110776190D01*
X153500000Y-110680952D01*
X153547619Y-110633333D01*
X153642857Y-110585714D01*
X153785714Y-110585714D01*
X153880952Y-110633333D01*
X153928571Y-110680952D01*
X153976190Y-110776190D01*
X153976190Y-111061904D01*
X153928571Y-111157142D01*
X153880952Y-111204761D01*
X153785714Y-111252380D01*
X153642857Y-111252380D01*
X154547619Y-111252380D02*
X154452380Y-111204761D01*
X154404761Y-111157142D01*
X154357142Y-111061904D01*
X154357142Y-110776190D01*
X154404761Y-110680952D01*
X154452380Y-110633333D01*
X154547619Y-110585714D01*
X154690476Y-110585714D01*
X154785714Y-110633333D01*
X154833333Y-110680952D01*
X154880952Y-110776190D01*
X154880952Y-111061904D01*
X154833333Y-111157142D01*
X154785714Y-111204761D01*
X154690476Y-111252380D01*
X154547619Y-111252380D01*
X155166666Y-110585714D02*
X155547619Y-110585714D01*
X155309523Y-110252380D02*
X155309523Y-111109523D01*
X155357142Y-111204761D01*
X155452380Y-111252380D01*
X155547619Y-111252380D01*
X171100000Y-100041666D02*
X171576190Y-100041666D01*
X171004761Y-100327380D02*
X171338095Y-99327380D01*
X171671428Y-100327380D01*
X172576190Y-100327380D02*
X172242857Y-99851190D01*
X172004761Y-100327380D02*
X172004761Y-99327380D01*
X172385714Y-99327380D01*
X172480952Y-99375000D01*
X172528571Y-99422619D01*
X172576190Y-99517857D01*
X172576190Y-99660714D01*
X172528571Y-99755952D01*
X172480952Y-99803571D01*
X172385714Y-99851190D01*
X172004761Y-99851190D01*
X173004761Y-100327380D02*
X173004761Y-99327380D01*
X173338095Y-100041666D01*
X173671428Y-99327380D01*
X173671428Y-100327380D01*
X174909523Y-99803571D02*
X175242857Y-99803571D01*
X175385714Y-100327380D02*
X174909523Y-100327380D01*
X174909523Y-99327380D01*
X175385714Y-99327380D01*
X175671428Y-99660714D02*
X176052380Y-99660714D01*
X175814285Y-100327380D02*
X175814285Y-99470238D01*
X175861904Y-99375000D01*
X175957142Y-99327380D01*
X176052380Y-99327380D01*
X176242857Y-99660714D02*
X176623809Y-99660714D01*
X176385714Y-100327380D02*
X176385714Y-99470238D01*
X176433333Y-99375000D01*
X176528571Y-99327380D01*
X176623809Y-99327380D01*
X177338095Y-100279761D02*
X177242857Y-100327380D01*
X177052380Y-100327380D01*
X176957142Y-100279761D01*
X176909523Y-100184523D01*
X176909523Y-99803571D01*
X176957142Y-99708333D01*
X177052380Y-99660714D01*
X177242857Y-99660714D01*
X177338095Y-99708333D01*
X177385714Y-99803571D01*
X177385714Y-99898809D01*
X176909523Y-99994047D01*
X178242857Y-100279761D02*
X178147619Y-100327380D01*
X177957142Y-100327380D01*
X177861904Y-100279761D01*
X177814285Y-100232142D01*
X177766666Y-100136904D01*
X177766666Y-99851190D01*
X177814285Y-99755952D01*
X177861904Y-99708333D01*
X177957142Y-99660714D01*
X178147619Y-99660714D01*
X178242857Y-99708333D01*
X178528571Y-99660714D02*
X178909523Y-99660714D01*
X178671428Y-99327380D02*
X178671428Y-100184523D01*
X178719047Y-100279761D01*
X178814285Y-100327380D01*
X178909523Y-100327380D01*
X179195238Y-100279761D02*
X179290476Y-100327380D01*
X179480952Y-100327380D01*
X179576190Y-100279761D01*
X179623809Y-100184523D01*
X179623809Y-100136904D01*
X179576190Y-100041666D01*
X179480952Y-99994047D01*
X179338095Y-99994047D01*
X179242857Y-99946428D01*
X179195238Y-99851190D01*
X179195238Y-99803571D01*
X179242857Y-99708333D01*
X179338095Y-99660714D01*
X179480952Y-99660714D01*
X179576190Y-99708333D01*
X180719047Y-99660714D02*
X180957142Y-100327380D01*
X181195238Y-99660714D01*
X182100000Y-100327380D02*
X181528571Y-100327380D01*
X181814285Y-100327380D02*
X181814285Y-99327380D01*
X181719047Y-99470238D01*
X181623809Y-99565476D01*
X181528571Y-99613095D01*
X172219047Y-101310714D02*
X172600000Y-101310714D01*
X172361904Y-101977380D02*
X172361904Y-101120238D01*
X172409523Y-101025000D01*
X172504761Y-100977380D01*
X172600000Y-100977380D01*
X173076190Y-101977380D02*
X172980952Y-101929761D01*
X172933333Y-101882142D01*
X172885714Y-101786904D01*
X172885714Y-101501190D01*
X172933333Y-101405952D01*
X172980952Y-101358333D01*
X173076190Y-101310714D01*
X173219047Y-101310714D01*
X173314285Y-101358333D01*
X173361904Y-101405952D01*
X173409523Y-101501190D01*
X173409523Y-101786904D01*
X173361904Y-101882142D01*
X173314285Y-101929761D01*
X173219047Y-101977380D01*
X173076190Y-101977380D01*
X173838095Y-101977380D02*
X173838095Y-101310714D01*
X173838095Y-101501190D02*
X173885714Y-101405952D01*
X173933333Y-101358333D01*
X174028571Y-101310714D01*
X174123809Y-101310714D01*
X175123809Y-100977380D02*
X175361904Y-101977380D01*
X175552380Y-101263095D01*
X175742857Y-101977380D01*
X175980952Y-100977380D01*
X176361904Y-101977380D02*
X176361904Y-100977380D01*
X176695238Y-101691666D01*
X177028571Y-100977380D01*
X177028571Y-101977380D01*
X177647619Y-101405952D02*
X177552380Y-101358333D01*
X177504761Y-101310714D01*
X177457142Y-101215476D01*
X177457142Y-101167857D01*
X177504761Y-101072619D01*
X177552380Y-101025000D01*
X177647619Y-100977380D01*
X177838095Y-100977380D01*
X177933333Y-101025000D01*
X177980952Y-101072619D01*
X178028571Y-101167857D01*
X178028571Y-101215476D01*
X177980952Y-101310714D01*
X177933333Y-101358333D01*
X177838095Y-101405952D01*
X177647619Y-101405952D01*
X177552380Y-101453571D01*
X177504761Y-101501190D01*
X177457142Y-101596428D01*
X177457142Y-101786904D01*
X177504761Y-101882142D01*
X177552380Y-101929761D01*
X177647619Y-101977380D01*
X177838095Y-101977380D01*
X177933333Y-101929761D01*
X177980952Y-101882142D01*
X178028571Y-101786904D01*
X178028571Y-101596428D01*
X177980952Y-101501190D01*
X177933333Y-101453571D01*
X177838095Y-101405952D01*
X178361904Y-100977380D02*
X179028571Y-100977380D01*
X178600000Y-101977380D01*
X179314285Y-100977380D02*
X179933333Y-100977380D01*
X179600000Y-101358333D01*
X179742857Y-101358333D01*
X179838095Y-101405952D01*
X179885714Y-101453571D01*
X179933333Y-101548809D01*
X179933333Y-101786904D01*
X179885714Y-101882142D01*
X179838095Y-101929761D01*
X179742857Y-101977380D01*
X179457142Y-101977380D01*
X179361904Y-101929761D01*
X179314285Y-101882142D01*
X180885714Y-101977380D02*
X180314285Y-101977380D01*
X180600000Y-101977380D02*
X180600000Y-100977380D01*
X180504761Y-101120238D01*
X180409523Y-101215476D01*
X180314285Y-101263095D01*
X167290476Y-103627380D02*
X167290476Y-103103571D01*
X167242857Y-103008333D01*
X167147619Y-102960714D01*
X166957142Y-102960714D01*
X166861904Y-103008333D01*
X167290476Y-103579761D02*
X167195238Y-103627380D01*
X166957142Y-103627380D01*
X166861904Y-103579761D01*
X166814285Y-103484523D01*
X166814285Y-103389285D01*
X166861904Y-103294047D01*
X166957142Y-103246428D01*
X167195238Y-103246428D01*
X167290476Y-103198809D01*
X167766666Y-102960714D02*
X167766666Y-103627380D01*
X167766666Y-103055952D02*
X167814285Y-103008333D01*
X167909523Y-102960714D01*
X168052380Y-102960714D01*
X168147619Y-103008333D01*
X168195238Y-103103571D01*
X168195238Y-103627380D01*
X169100000Y-103627380D02*
X169100000Y-102627380D01*
X169100000Y-103579761D02*
X169004761Y-103627380D01*
X168814285Y-103627380D01*
X168719047Y-103579761D01*
X168671428Y-103532142D01*
X168623809Y-103436904D01*
X168623809Y-103151190D01*
X168671428Y-103055952D01*
X168719047Y-103008333D01*
X168814285Y-102960714D01*
X169004761Y-102960714D01*
X169100000Y-103008333D01*
X170195238Y-102627380D02*
X170766666Y-102627380D01*
X170480952Y-103627380D02*
X170480952Y-102627380D01*
X171576190Y-103627380D02*
X171100000Y-103627380D01*
X171100000Y-102627380D01*
X171766666Y-102627380D02*
X172100000Y-103627380D01*
X172433333Y-102627380D01*
X172671428Y-102627380D02*
X173290476Y-102627380D01*
X172957142Y-103008333D01*
X173100000Y-103008333D01*
X173195238Y-103055952D01*
X173242857Y-103103571D01*
X173290476Y-103198809D01*
X173290476Y-103436904D01*
X173242857Y-103532142D01*
X173195238Y-103579761D01*
X173100000Y-103627380D01*
X172814285Y-103627380D01*
X172719047Y-103579761D01*
X172671428Y-103532142D01*
X173671428Y-102722619D02*
X173719047Y-102675000D01*
X173814285Y-102627380D01*
X174052380Y-102627380D01*
X174147619Y-102675000D01*
X174195238Y-102722619D01*
X174242857Y-102817857D01*
X174242857Y-102913095D01*
X174195238Y-103055952D01*
X173623809Y-103627380D01*
X174242857Y-103627380D01*
X174861904Y-102627380D02*
X174957142Y-102627380D01*
X175052380Y-102675000D01*
X175100000Y-102722619D01*
X175147619Y-102817857D01*
X175195238Y-103008333D01*
X175195238Y-103246428D01*
X175147619Y-103436904D01*
X175100000Y-103532142D01*
X175052380Y-103579761D01*
X174957142Y-103627380D01*
X174861904Y-103627380D01*
X174766666Y-103579761D01*
X174719047Y-103532142D01*
X174671428Y-103436904D01*
X174623809Y-103246428D01*
X174623809Y-103008333D01*
X174671428Y-102817857D01*
X174719047Y-102722619D01*
X174766666Y-102675000D01*
X174861904Y-102627380D01*
X175576190Y-103341666D02*
X176052380Y-103341666D01*
X175480952Y-103627380D02*
X175814285Y-102627380D01*
X176147619Y-103627380D01*
X176480952Y-103627380D02*
X176480952Y-102627380D01*
X177528571Y-103532142D02*
X177480952Y-103579761D01*
X177338095Y-103627380D01*
X177242857Y-103627380D01*
X177100000Y-103579761D01*
X177004761Y-103484523D01*
X176957142Y-103389285D01*
X176909523Y-103198809D01*
X176909523Y-103055952D01*
X176957142Y-102865476D01*
X177004761Y-102770238D01*
X177100000Y-102675000D01*
X177242857Y-102627380D01*
X177338095Y-102627380D01*
X177480952Y-102675000D01*
X177528571Y-102722619D01*
X177861904Y-102627380D02*
X178480952Y-102627380D01*
X178147619Y-103008333D01*
X178290476Y-103008333D01*
X178385714Y-103055952D01*
X178433333Y-103103571D01*
X178480952Y-103198809D01*
X178480952Y-103436904D01*
X178433333Y-103532142D01*
X178385714Y-103579761D01*
X178290476Y-103627380D01*
X178004761Y-103627380D01*
X177909523Y-103579761D01*
X177861904Y-103532142D01*
X179433333Y-103627380D02*
X178861904Y-103627380D01*
X179147619Y-103627380D02*
X179147619Y-102627380D01*
X179052380Y-102770238D01*
X178957142Y-102865476D01*
X178861904Y-102913095D01*
X180052380Y-102627380D02*
X180147619Y-102627380D01*
X180242857Y-102675000D01*
X180290476Y-102722619D01*
X180338095Y-102817857D01*
X180385714Y-103008333D01*
X180385714Y-103246428D01*
X180338095Y-103436904D01*
X180290476Y-103532142D01*
X180242857Y-103579761D01*
X180147619Y-103627380D01*
X180052380Y-103627380D01*
X179957142Y-103579761D01*
X179909523Y-103532142D01*
X179861904Y-103436904D01*
X179814285Y-103246428D01*
X179814285Y-103008333D01*
X179861904Y-102817857D01*
X179909523Y-102722619D01*
X179957142Y-102675000D01*
X180052380Y-102627380D01*
X181290476Y-102627380D02*
X180814285Y-102627380D01*
X180766666Y-103103571D01*
X180814285Y-103055952D01*
X180909523Y-103008333D01*
X181147619Y-103008333D01*
X181242857Y-103055952D01*
X181290476Y-103103571D01*
X181338095Y-103198809D01*
X181338095Y-103436904D01*
X181290476Y-103532142D01*
X181242857Y-103579761D01*
X181147619Y-103627380D01*
X180909523Y-103627380D01*
X180814285Y-103579761D01*
X180766666Y-103532142D01*
X181814285Y-103579761D02*
X181814285Y-103627380D01*
X181766666Y-103722619D01*
X181719047Y-103770238D01*
X182909523Y-102627380D02*
X183528571Y-102627380D01*
X183195238Y-103008333D01*
X183338095Y-103008333D01*
X183433333Y-103055952D01*
X183480952Y-103103571D01*
X183528571Y-103198809D01*
X183528571Y-103436904D01*
X183480952Y-103532142D01*
X183433333Y-103579761D01*
X183338095Y-103627380D01*
X183052380Y-103627380D01*
X182957142Y-103579761D01*
X182909523Y-103532142D01*
X184480952Y-103627380D02*
X183909523Y-103627380D01*
X184195238Y-103627380D02*
X184195238Y-102627380D01*
X184100000Y-102770238D01*
X184004761Y-102865476D01*
X183909523Y-102913095D01*
X185100000Y-102627380D02*
X185195238Y-102627380D01*
X185290476Y-102675000D01*
X185338095Y-102722619D01*
X185385714Y-102817857D01*
X185433333Y-103008333D01*
X185433333Y-103246428D01*
X185385714Y-103436904D01*
X185338095Y-103532142D01*
X185290476Y-103579761D01*
X185195238Y-103627380D01*
X185100000Y-103627380D01*
X185004761Y-103579761D01*
X184957142Y-103532142D01*
X184909523Y-103436904D01*
X184861904Y-103246428D01*
X184861904Y-103008333D01*
X184909523Y-102817857D01*
X184957142Y-102722619D01*
X185004761Y-102675000D01*
X185100000Y-102627380D01*
X185909523Y-103627380D02*
X186100000Y-103627380D01*
X186195238Y-103579761D01*
X186242857Y-103532142D01*
X186338095Y-103389285D01*
X186385714Y-103198809D01*
X186385714Y-102817857D01*
X186338095Y-102722619D01*
X186290476Y-102675000D01*
X186195238Y-102627380D01*
X186004761Y-102627380D01*
X185909523Y-102675000D01*
X185861904Y-102722619D01*
X185814285Y-102817857D01*
X185814285Y-103055952D01*
X185861904Y-103151190D01*
X185909523Y-103198809D01*
X186004761Y-103246428D01*
X186195238Y-103246428D01*
X186290476Y-103198809D01*
X186338095Y-103151190D01*
X186385714Y-103055952D01*
X174504761Y-106165476D02*
X174409523Y-106117857D01*
X174219047Y-106117857D01*
X174123809Y-106165476D01*
X174028571Y-106260714D01*
X173980952Y-106355952D01*
X173980952Y-106546428D01*
X174028571Y-106641666D01*
X174123809Y-106736904D01*
X174219047Y-106784523D01*
X174409523Y-106784523D01*
X174504761Y-106736904D01*
X174314285Y-105784523D02*
X174076190Y-105832142D01*
X173838095Y-105975000D01*
X173695238Y-106213095D01*
X173647619Y-106451190D01*
X173695238Y-106689285D01*
X173838095Y-106927380D01*
X174076190Y-107070238D01*
X174314285Y-107117857D01*
X174552380Y-107070238D01*
X174790476Y-106927380D01*
X174933333Y-106689285D01*
X174980952Y-106451190D01*
X174933333Y-106213095D01*
X174790476Y-105975000D01*
X174552380Y-105832142D01*
X174314285Y-105784523D01*
X176123809Y-106022619D02*
X176171428Y-105975000D01*
X176266666Y-105927380D01*
X176504761Y-105927380D01*
X176600000Y-105975000D01*
X176647619Y-106022619D01*
X176695238Y-106117857D01*
X176695238Y-106213095D01*
X176647619Y-106355952D01*
X176076190Y-106927380D01*
X176695238Y-106927380D01*
X177314285Y-105927380D02*
X177409523Y-105927380D01*
X177504761Y-105975000D01*
X177552380Y-106022619D01*
X177600000Y-106117857D01*
X177647619Y-106308333D01*
X177647619Y-106546428D01*
X177600000Y-106736904D01*
X177552380Y-106832142D01*
X177504761Y-106879761D01*
X177409523Y-106927380D01*
X177314285Y-106927380D01*
X177219047Y-106879761D01*
X177171428Y-106832142D01*
X177123809Y-106736904D01*
X177076190Y-106546428D01*
X177076190Y-106308333D01*
X177123809Y-106117857D01*
X177171428Y-106022619D01*
X177219047Y-105975000D01*
X177314285Y-105927380D01*
X178028571Y-106022619D02*
X178076190Y-105975000D01*
X178171428Y-105927380D01*
X178409523Y-105927380D01*
X178504761Y-105975000D01*
X178552380Y-106022619D01*
X178600000Y-106117857D01*
X178600000Y-106213095D01*
X178552380Y-106355952D01*
X177980952Y-106927380D01*
X178600000Y-106927380D01*
X179552380Y-106927380D02*
X178980952Y-106927380D01*
X179266666Y-106927380D02*
X179266666Y-105927380D01*
X179171428Y-106070238D01*
X179076190Y-106165476D01*
X178980952Y-106213095D01*
X167861904Y-108053571D02*
X168195238Y-108053571D01*
X168338095Y-108577380D02*
X167861904Y-108577380D01*
X167861904Y-107577380D01*
X168338095Y-107577380D01*
X168766666Y-108577380D02*
X168766666Y-107910714D01*
X168766666Y-108101190D02*
X168814285Y-108005952D01*
X168861904Y-107958333D01*
X168957142Y-107910714D01*
X169052380Y-107910714D01*
X169385714Y-108577380D02*
X169385714Y-107910714D01*
X169385714Y-107577380D02*
X169338095Y-107625000D01*
X169385714Y-107672619D01*
X169433333Y-107625000D01*
X169385714Y-107577380D01*
X169385714Y-107672619D01*
X170290476Y-108529761D02*
X170195238Y-108577380D01*
X170004761Y-108577380D01*
X169909523Y-108529761D01*
X169861904Y-108482142D01*
X169814285Y-108386904D01*
X169814285Y-108101190D01*
X169861904Y-108005952D01*
X169909523Y-107958333D01*
X170004761Y-107910714D01*
X170195238Y-107910714D01*
X170290476Y-107958333D01*
X171385714Y-107577380D02*
X171623809Y-108577380D01*
X171814285Y-107863095D01*
X172004761Y-108577380D01*
X172242857Y-107577380D01*
X172766666Y-108577380D02*
X172671428Y-108529761D01*
X172623809Y-108482142D01*
X172576190Y-108386904D01*
X172576190Y-108101190D01*
X172623809Y-108005952D01*
X172671428Y-107958333D01*
X172766666Y-107910714D01*
X172909523Y-107910714D01*
X173004761Y-107958333D01*
X173052380Y-108005952D01*
X173100000Y-108101190D01*
X173100000Y-108386904D01*
X173052380Y-108482142D01*
X173004761Y-108529761D01*
X172909523Y-108577380D01*
X172766666Y-108577380D01*
X173671428Y-108577380D02*
X173576190Y-108529761D01*
X173528571Y-108482142D01*
X173480952Y-108386904D01*
X173480952Y-108101190D01*
X173528571Y-108005952D01*
X173576190Y-107958333D01*
X173671428Y-107910714D01*
X173814285Y-107910714D01*
X173909523Y-107958333D01*
X173957142Y-108005952D01*
X174004761Y-108101190D01*
X174004761Y-108386904D01*
X173957142Y-108482142D01*
X173909523Y-108529761D01*
X173814285Y-108577380D01*
X173671428Y-108577380D01*
X174861904Y-108577380D02*
X174861904Y-107577380D01*
X174861904Y-108529761D02*
X174766666Y-108577380D01*
X174576190Y-108577380D01*
X174480952Y-108529761D01*
X174433333Y-108482142D01*
X174385714Y-108386904D01*
X174385714Y-108101190D01*
X174433333Y-108005952D01*
X174480952Y-107958333D01*
X174576190Y-107910714D01*
X174766666Y-107910714D01*
X174861904Y-107958333D01*
X175385714Y-108529761D02*
X175385714Y-108577380D01*
X175338095Y-108672619D01*
X175290476Y-108720238D01*
X176576190Y-108577380D02*
X176576190Y-107577380D01*
X176909523Y-108291666D01*
X177242857Y-107577380D01*
X177242857Y-108577380D01*
X178147619Y-108577380D02*
X178147619Y-108053571D01*
X178100000Y-107958333D01*
X178004761Y-107910714D01*
X177814285Y-107910714D01*
X177719047Y-107958333D01*
X178147619Y-108529761D02*
X178052380Y-108577380D01*
X177814285Y-108577380D01*
X177719047Y-108529761D01*
X177671428Y-108434523D01*
X177671428Y-108339285D01*
X177719047Y-108244047D01*
X177814285Y-108196428D01*
X178052380Y-108196428D01*
X178147619Y-108148809D01*
X178480952Y-107910714D02*
X178861904Y-107910714D01*
X178623809Y-107577380D02*
X178623809Y-108434523D01*
X178671428Y-108529761D01*
X178766666Y-108577380D01*
X178861904Y-108577380D01*
X179052380Y-107910714D02*
X179433333Y-107910714D01*
X179195238Y-107577380D02*
X179195238Y-108434523D01*
X179242857Y-108529761D01*
X179338095Y-108577380D01*
X179433333Y-108577380D01*
X180528571Y-108577380D02*
X180528571Y-107577380D01*
X180861904Y-108291666D01*
X181195238Y-107577380D01*
X181195238Y-108577380D01*
X182100000Y-107910714D02*
X182100000Y-108577380D01*
X181671428Y-107910714D02*
X181671428Y-108434523D01*
X181719047Y-108529761D01*
X181814285Y-108577380D01*
X181957142Y-108577380D01*
X182052380Y-108529761D01*
X182100000Y-108482142D01*
X182719047Y-108577380D02*
X182623809Y-108529761D01*
X182576190Y-108434523D01*
X182576190Y-107577380D01*
X183242857Y-108577380D02*
X183147619Y-108529761D01*
X183100000Y-108434523D01*
X183100000Y-107577380D01*
X183623809Y-108577380D02*
X183623809Y-107910714D01*
X183623809Y-107577380D02*
X183576190Y-107625000D01*
X183623809Y-107672619D01*
X183671428Y-107625000D01*
X183623809Y-107577380D01*
X183623809Y-107672619D01*
X184100000Y-107910714D02*
X184100000Y-108577380D01*
X184100000Y-108005952D02*
X184147619Y-107958333D01*
X184242857Y-107910714D01*
X184385714Y-107910714D01*
X184480952Y-107958333D01*
X184528571Y-108053571D01*
X184528571Y-108577380D01*
X184957142Y-108529761D02*
X185052380Y-108577380D01*
X185242857Y-108577380D01*
X185338095Y-108529761D01*
X185385714Y-108434523D01*
X185385714Y-108386904D01*
X185338095Y-108291666D01*
X185242857Y-108244047D01*
X185100000Y-108244047D01*
X185004761Y-108196428D01*
X184957142Y-108101190D01*
X184957142Y-108053571D01*
X185004761Y-107958333D01*
X185100000Y-107910714D01*
X185242857Y-107910714D01*
X185338095Y-107958333D01*
X166442738Y-84684880D02*
X167014166Y-84684880D01*
X166728452Y-85684880D02*
X166728452Y-84684880D01*
X167347500Y-85684880D02*
X167347500Y-84684880D01*
X98400000Y-68952380D02*
X98304761Y-68904761D01*
X98257142Y-68857142D01*
X98209523Y-68761904D01*
X98209523Y-68476190D01*
X98257142Y-68380952D01*
X98304761Y-68333333D01*
X98400000Y-68285714D01*
X98542857Y-68285714D01*
X98638095Y-68333333D01*
X98685714Y-68380952D01*
X98733333Y-68476190D01*
X98733333Y-68761904D01*
X98685714Y-68857142D01*
X98638095Y-68904761D01*
X98542857Y-68952380D01*
X98400000Y-68952380D01*
X99590476Y-68285714D02*
X99590476Y-68952380D01*
X99161904Y-68285714D02*
X99161904Y-68809523D01*
X99209523Y-68904761D01*
X99304761Y-68952380D01*
X99447619Y-68952380D01*
X99542857Y-68904761D01*
X99590476Y-68857142D01*
X99923809Y-68285714D02*
X100304761Y-68285714D01*
X100066666Y-67952380D02*
X100066666Y-68809523D01*
X100114285Y-68904761D01*
X100209523Y-68952380D01*
X100304761Y-68952380D01*
X100638095Y-68285714D02*
X100638095Y-69285714D01*
X100638095Y-68333333D02*
X100733333Y-68285714D01*
X100923809Y-68285714D01*
X101019047Y-68333333D01*
X101066666Y-68380952D01*
X101114285Y-68476190D01*
X101114285Y-68761904D01*
X101066666Y-68857142D01*
X101019047Y-68904761D01*
X100923809Y-68952380D01*
X100733333Y-68952380D01*
X100638095Y-68904761D01*
X101971428Y-68285714D02*
X101971428Y-68952380D01*
X101542857Y-68285714D02*
X101542857Y-68809523D01*
X101590476Y-68904761D01*
X101685714Y-68952380D01*
X101828571Y-68952380D01*
X101923809Y-68904761D01*
X101971428Y-68857142D01*
X102304761Y-68285714D02*
X102685714Y-68285714D01*
X102447619Y-67952380D02*
X102447619Y-68809523D01*
X102495238Y-68904761D01*
X102590476Y-68952380D01*
X102685714Y-68952380D01*
X183757142Y-68852380D02*
X183757142Y-68185714D01*
X183757142Y-67852380D02*
X183709523Y-67900000D01*
X183757142Y-67947619D01*
X183804761Y-67900000D01*
X183757142Y-67852380D01*
X183757142Y-67947619D01*
X184233333Y-68185714D02*
X184233333Y-68852380D01*
X184233333Y-68280952D02*
X184280952Y-68233333D01*
X184376190Y-68185714D01*
X184519047Y-68185714D01*
X184614285Y-68233333D01*
X184661904Y-68328571D01*
X184661904Y-68852380D01*
X185138095Y-68185714D02*
X185138095Y-69185714D01*
X185138095Y-68233333D02*
X185233333Y-68185714D01*
X185423809Y-68185714D01*
X185519047Y-68233333D01*
X185566666Y-68280952D01*
X185614285Y-68376190D01*
X185614285Y-68661904D01*
X185566666Y-68757142D01*
X185519047Y-68804761D01*
X185423809Y-68852380D01*
X185233333Y-68852380D01*
X185138095Y-68804761D01*
X186471428Y-68185714D02*
X186471428Y-68852380D01*
X186042857Y-68185714D02*
X186042857Y-68709523D01*
X186090476Y-68804761D01*
X186185714Y-68852380D01*
X186328571Y-68852380D01*
X186423809Y-68804761D01*
X186471428Y-68757142D01*
X186804761Y-68185714D02*
X187185714Y-68185714D01*
X186947619Y-67852380D02*
X186947619Y-68709523D01*
X186995238Y-68804761D01*
X187090476Y-68852380D01*
X187185714Y-68852380D01*
X164159404Y-46700000D02*
X164064166Y-46652380D01*
X163921309Y-46652380D01*
X163778452Y-46700000D01*
X163683214Y-46795238D01*
X163635595Y-46890476D01*
X163587976Y-47080952D01*
X163587976Y-47223809D01*
X163635595Y-47414285D01*
X163683214Y-47509523D01*
X163778452Y-47604761D01*
X163921309Y-47652380D01*
X164016547Y-47652380D01*
X164159404Y-47604761D01*
X164207023Y-47557142D01*
X164207023Y-47223809D01*
X164016547Y-47223809D01*
X164635595Y-47652380D02*
X164635595Y-46652380D01*
X165207023Y-47652380D01*
X165207023Y-46652380D01*
X165683214Y-47652380D02*
X165683214Y-46652380D01*
X165921309Y-46652380D01*
X166064166Y-46700000D01*
X166159404Y-46795238D01*
X166207023Y-46890476D01*
X166254642Y-47080952D01*
X166254642Y-47223809D01*
X166207023Y-47414285D01*
X166159404Y-47509523D01*
X166064166Y-47604761D01*
X165921309Y-47652380D01*
X165683214Y-47652380D01*
X163540357Y-43984880D02*
X164159404Y-43984880D01*
X163826071Y-44365833D01*
X163968928Y-44365833D01*
X164064166Y-44413452D01*
X164111785Y-44461071D01*
X164159404Y-44556309D01*
X164159404Y-44794404D01*
X164111785Y-44889642D01*
X164064166Y-44937261D01*
X163968928Y-44984880D01*
X163683214Y-44984880D01*
X163587976Y-44937261D01*
X163540357Y-44889642D01*
X164587976Y-44889642D02*
X164635595Y-44937261D01*
X164587976Y-44984880D01*
X164540357Y-44937261D01*
X164587976Y-44889642D01*
X164587976Y-44984880D01*
X164968928Y-43984880D02*
X165587976Y-43984880D01*
X165254642Y-44365833D01*
X165397500Y-44365833D01*
X165492738Y-44413452D01*
X165540357Y-44461071D01*
X165587976Y-44556309D01*
X165587976Y-44794404D01*
X165540357Y-44889642D01*
X165492738Y-44937261D01*
X165397500Y-44984880D01*
X165111785Y-44984880D01*
X165016547Y-44937261D01*
X164968928Y-44889642D01*
X165873690Y-43984880D02*
X166207023Y-44984880D01*
X166540357Y-43984880D01*
X174264166Y-70252380D02*
X174264166Y-69728571D01*
X174216547Y-69633333D01*
X174121309Y-69585714D01*
X173930833Y-69585714D01*
X173835595Y-69633333D01*
X174264166Y-70204761D02*
X174168928Y-70252380D01*
X173930833Y-70252380D01*
X173835595Y-70204761D01*
X173787976Y-70109523D01*
X173787976Y-70014285D01*
X173835595Y-69919047D01*
X173930833Y-69871428D01*
X174168928Y-69871428D01*
X174264166Y-69823809D01*
X175168928Y-69585714D02*
X175168928Y-70252380D01*
X174740357Y-69585714D02*
X174740357Y-70109523D01*
X174787976Y-70204761D01*
X174883214Y-70252380D01*
X175026071Y-70252380D01*
X175121309Y-70204761D01*
X175168928Y-70157142D01*
X176073690Y-70252380D02*
X176073690Y-69252380D01*
X176073690Y-70204761D02*
X175978452Y-70252380D01*
X175787976Y-70252380D01*
X175692738Y-70204761D01*
X175645119Y-70157142D01*
X175597500Y-70061904D01*
X175597500Y-69776190D01*
X175645119Y-69680952D01*
X175692738Y-69633333D01*
X175787976Y-69585714D01*
X175978452Y-69585714D01*
X176073690Y-69633333D01*
X176549880Y-70252380D02*
X176549880Y-69585714D01*
X176549880Y-69252380D02*
X176502261Y-69300000D01*
X176549880Y-69347619D01*
X176597500Y-69300000D01*
X176549880Y-69252380D01*
X176549880Y-69347619D01*
X177168928Y-70252380D02*
X177073690Y-70204761D01*
X177026071Y-70157142D01*
X176978452Y-70061904D01*
X176978452Y-69776190D01*
X177026071Y-69680952D01*
X177073690Y-69633333D01*
X177168928Y-69585714D01*
X177311785Y-69585714D01*
X177407023Y-69633333D01*
X177454642Y-69680952D01*
X177502261Y-69776190D01*
X177502261Y-70061904D01*
X177454642Y-70157142D01*
X177407023Y-70204761D01*
X177311785Y-70252380D01*
X177168928Y-70252380D01*
X178692738Y-70252380D02*
X178692738Y-69585714D01*
X178692738Y-69252380D02*
X178645119Y-69300000D01*
X178692738Y-69347619D01*
X178740357Y-69300000D01*
X178692738Y-69252380D01*
X178692738Y-69347619D01*
X179168928Y-69585714D02*
X179168928Y-70252380D01*
X179168928Y-69680952D02*
X179216547Y-69633333D01*
X179311785Y-69585714D01*
X179454642Y-69585714D01*
X179549880Y-69633333D01*
X179597500Y-69728571D01*
X179597500Y-70252380D01*
X163440357Y-78909880D02*
X163678452Y-79909880D01*
X163868928Y-79195595D01*
X164059404Y-79909880D01*
X164297500Y-78909880D01*
X164678452Y-79909880D02*
X164678452Y-78909880D01*
X165011785Y-79624166D01*
X165345119Y-78909880D01*
X165345119Y-79909880D01*
X149327500Y-70959404D02*
X149375119Y-70864166D01*
X149375119Y-70721309D01*
X149327500Y-70578452D01*
X149232261Y-70483214D01*
X149137023Y-70435595D01*
X148946547Y-70387976D01*
X148803690Y-70387976D01*
X148613214Y-70435595D01*
X148517976Y-70483214D01*
X148422738Y-70578452D01*
X148375119Y-70721309D01*
X148375119Y-70816547D01*
X148422738Y-70959404D01*
X148470357Y-71007023D01*
X148803690Y-71007023D01*
X148803690Y-70816547D01*
X148375119Y-71435595D02*
X149375119Y-71435595D01*
X148375119Y-72007023D01*
X149375119Y-72007023D01*
X148375119Y-72483214D02*
X149375119Y-72483214D01*
X149375119Y-72721309D01*
X149327500Y-72864166D01*
X149232261Y-72959404D01*
X149137023Y-73007023D01*
X148946547Y-73054642D01*
X148803690Y-73054642D01*
X148613214Y-73007023D01*
X148517976Y-72959404D01*
X148422738Y-72864166D01*
X148375119Y-72721309D01*
X148375119Y-72483214D01*
X150915119Y-70864166D02*
X151438928Y-70864166D01*
X151534166Y-70816547D01*
X151581785Y-70721309D01*
X151581785Y-70530833D01*
X151534166Y-70435595D01*
X150962738Y-70864166D02*
X150915119Y-70768928D01*
X150915119Y-70530833D01*
X150962738Y-70435595D01*
X151057976Y-70387976D01*
X151153214Y-70387976D01*
X151248452Y-70435595D01*
X151296071Y-70530833D01*
X151296071Y-70768928D01*
X151343690Y-70864166D01*
X151581785Y-71768928D02*
X150915119Y-71768928D01*
X151581785Y-71340357D02*
X151057976Y-71340357D01*
X150962738Y-71387976D01*
X150915119Y-71483214D01*
X150915119Y-71626071D01*
X150962738Y-71721309D01*
X151010357Y-71768928D01*
X150915119Y-72673690D02*
X151915119Y-72673690D01*
X150962738Y-72673690D02*
X150915119Y-72578452D01*
X150915119Y-72387976D01*
X150962738Y-72292738D01*
X151010357Y-72245119D01*
X151105595Y-72197500D01*
X151391309Y-72197500D01*
X151486547Y-72245119D01*
X151534166Y-72292738D01*
X151581785Y-72387976D01*
X151581785Y-72578452D01*
X151534166Y-72673690D01*
X150915119Y-73149880D02*
X151581785Y-73149880D01*
X151915119Y-73149880D02*
X151867500Y-73102261D01*
X151819880Y-73149880D01*
X151867500Y-73197500D01*
X151915119Y-73149880D01*
X151819880Y-73149880D01*
X150915119Y-73768928D02*
X150962738Y-73673690D01*
X151010357Y-73626071D01*
X151105595Y-73578452D01*
X151391309Y-73578452D01*
X151486547Y-73626071D01*
X151534166Y-73673690D01*
X151581785Y-73768928D01*
X151581785Y-73911785D01*
X151534166Y-74007023D01*
X151486547Y-74054642D01*
X151391309Y-74102261D01*
X151105595Y-74102261D01*
X151010357Y-74054642D01*
X150962738Y-74007023D01*
X150915119Y-73911785D01*
X150915119Y-73768928D01*
X150915119Y-75435595D02*
X150962738Y-75340357D01*
X151010357Y-75292738D01*
X151105595Y-75245119D01*
X151391309Y-75245119D01*
X151486547Y-75292738D01*
X151534166Y-75340357D01*
X151581785Y-75435595D01*
X151581785Y-75578452D01*
X151534166Y-75673690D01*
X151486547Y-75721309D01*
X151391309Y-75768928D01*
X151105595Y-75768928D01*
X151010357Y-75721309D01*
X150962738Y-75673690D01*
X150915119Y-75578452D01*
X150915119Y-75435595D01*
X151581785Y-76626071D02*
X150915119Y-76626071D01*
X151581785Y-76197500D02*
X151057976Y-76197500D01*
X150962738Y-76245119D01*
X150915119Y-76340357D01*
X150915119Y-76483214D01*
X150962738Y-76578452D01*
X151010357Y-76626071D01*
X151581785Y-76959404D02*
X151581785Y-77340357D01*
X151915119Y-77102261D02*
X151057976Y-77102261D01*
X150962738Y-77149880D01*
X150915119Y-77245119D01*
X150915119Y-77340357D01*
X97935595Y-97864880D02*
X97935595Y-96864880D01*
X98316547Y-96864880D01*
X98411785Y-96912500D01*
X98459404Y-96960119D01*
X98507023Y-97055357D01*
X98507023Y-97198214D01*
X98459404Y-97293452D01*
X98411785Y-97341071D01*
X98316547Y-97388690D01*
X97935595Y-97388690D01*
X99268928Y-97341071D02*
X99411785Y-97388690D01*
X99459404Y-97436309D01*
X99507023Y-97531547D01*
X99507023Y-97674404D01*
X99459404Y-97769642D01*
X99411785Y-97817261D01*
X99316547Y-97864880D01*
X98935595Y-97864880D01*
X98935595Y-96864880D01*
X99268928Y-96864880D01*
X99364166Y-96912500D01*
X99411785Y-96960119D01*
X99459404Y-97055357D01*
X99459404Y-97150595D01*
X99411785Y-97245833D01*
X99364166Y-97293452D01*
X99268928Y-97341071D01*
X98935595Y-97341071D01*
X100126071Y-96864880D02*
X100221309Y-96864880D01*
X100316547Y-96912500D01*
X100364166Y-96960119D01*
X100411785Y-97055357D01*
X100459404Y-97245833D01*
X100459404Y-97483928D01*
X100411785Y-97674404D01*
X100364166Y-97769642D01*
X100316547Y-97817261D01*
X100221309Y-97864880D01*
X100126071Y-97864880D01*
X100030833Y-97817261D01*
X99983214Y-97769642D01*
X99935595Y-97674404D01*
X99887976Y-97483928D01*
X99887976Y-97245833D01*
X99935595Y-97055357D01*
X99983214Y-96960119D01*
X100030833Y-96912500D01*
X100126071Y-96864880D01*
X100792738Y-96864880D02*
X101459404Y-96864880D01*
X101030833Y-97864880D01*
X97935595Y-95324880D02*
X97935595Y-94324880D01*
X98316547Y-94324880D01*
X98411785Y-94372500D01*
X98459404Y-94420119D01*
X98507023Y-94515357D01*
X98507023Y-94658214D01*
X98459404Y-94753452D01*
X98411785Y-94801071D01*
X98316547Y-94848690D01*
X97935595Y-94848690D01*
X99268928Y-94801071D02*
X99411785Y-94848690D01*
X99459404Y-94896309D01*
X99507023Y-94991547D01*
X99507023Y-95134404D01*
X99459404Y-95229642D01*
X99411785Y-95277261D01*
X99316547Y-95324880D01*
X98935595Y-95324880D01*
X98935595Y-94324880D01*
X99268928Y-94324880D01*
X99364166Y-94372500D01*
X99411785Y-94420119D01*
X99459404Y-94515357D01*
X99459404Y-94610595D01*
X99411785Y-94705833D01*
X99364166Y-94753452D01*
X99268928Y-94801071D01*
X98935595Y-94801071D01*
X100126071Y-94324880D02*
X100221309Y-94324880D01*
X100316547Y-94372500D01*
X100364166Y-94420119D01*
X100411785Y-94515357D01*
X100459404Y-94705833D01*
X100459404Y-94943928D01*
X100411785Y-95134404D01*
X100364166Y-95229642D01*
X100316547Y-95277261D01*
X100221309Y-95324880D01*
X100126071Y-95324880D01*
X100030833Y-95277261D01*
X99983214Y-95229642D01*
X99935595Y-95134404D01*
X99887976Y-94943928D01*
X99887976Y-94705833D01*
X99935595Y-94515357D01*
X99983214Y-94420119D01*
X100030833Y-94372500D01*
X100126071Y-94324880D01*
X101316547Y-94324880D02*
X101126071Y-94324880D01*
X101030833Y-94372500D01*
X100983214Y-94420119D01*
X100887976Y-94562976D01*
X100840357Y-94753452D01*
X100840357Y-95134404D01*
X100887976Y-95229642D01*
X100935595Y-95277261D01*
X101030833Y-95324880D01*
X101221309Y-95324880D01*
X101316547Y-95277261D01*
X101364166Y-95229642D01*
X101411785Y-95134404D01*
X101411785Y-94896309D01*
X101364166Y-94801071D01*
X101316547Y-94753452D01*
X101221309Y-94705833D01*
X101030833Y-94705833D01*
X100935595Y-94753452D01*
X100887976Y-94801071D01*
X100840357Y-94896309D01*
X97935595Y-92784880D02*
X97935595Y-91784880D01*
X98316547Y-91784880D01*
X98411785Y-91832500D01*
X98459404Y-91880119D01*
X98507023Y-91975357D01*
X98507023Y-92118214D01*
X98459404Y-92213452D01*
X98411785Y-92261071D01*
X98316547Y-92308690D01*
X97935595Y-92308690D01*
X99268928Y-92261071D02*
X99411785Y-92308690D01*
X99459404Y-92356309D01*
X99507023Y-92451547D01*
X99507023Y-92594404D01*
X99459404Y-92689642D01*
X99411785Y-92737261D01*
X99316547Y-92784880D01*
X98935595Y-92784880D01*
X98935595Y-91784880D01*
X99268928Y-91784880D01*
X99364166Y-91832500D01*
X99411785Y-91880119D01*
X99459404Y-91975357D01*
X99459404Y-92070595D01*
X99411785Y-92165833D01*
X99364166Y-92213452D01*
X99268928Y-92261071D01*
X98935595Y-92261071D01*
X100126071Y-91784880D02*
X100221309Y-91784880D01*
X100316547Y-91832500D01*
X100364166Y-91880119D01*
X100411785Y-91975357D01*
X100459404Y-92165833D01*
X100459404Y-92403928D01*
X100411785Y-92594404D01*
X100364166Y-92689642D01*
X100316547Y-92737261D01*
X100221309Y-92784880D01*
X100126071Y-92784880D01*
X100030833Y-92737261D01*
X99983214Y-92689642D01*
X99935595Y-92594404D01*
X99887976Y-92403928D01*
X99887976Y-92165833D01*
X99935595Y-91975357D01*
X99983214Y-91880119D01*
X100030833Y-91832500D01*
X100126071Y-91784880D01*
X101364166Y-91784880D02*
X100887976Y-91784880D01*
X100840357Y-92261071D01*
X100887976Y-92213452D01*
X100983214Y-92165833D01*
X101221309Y-92165833D01*
X101316547Y-92213452D01*
X101364166Y-92261071D01*
X101411785Y-92356309D01*
X101411785Y-92594404D01*
X101364166Y-92689642D01*
X101316547Y-92737261D01*
X101221309Y-92784880D01*
X100983214Y-92784880D01*
X100887976Y-92737261D01*
X100840357Y-92689642D01*
X97935595Y-90244880D02*
X97935595Y-89244880D01*
X98316547Y-89244880D01*
X98411785Y-89292500D01*
X98459404Y-89340119D01*
X98507023Y-89435357D01*
X98507023Y-89578214D01*
X98459404Y-89673452D01*
X98411785Y-89721071D01*
X98316547Y-89768690D01*
X97935595Y-89768690D01*
X99268928Y-89721071D02*
X99411785Y-89768690D01*
X99459404Y-89816309D01*
X99507023Y-89911547D01*
X99507023Y-90054404D01*
X99459404Y-90149642D01*
X99411785Y-90197261D01*
X99316547Y-90244880D01*
X98935595Y-90244880D01*
X98935595Y-89244880D01*
X99268928Y-89244880D01*
X99364166Y-89292500D01*
X99411785Y-89340119D01*
X99459404Y-89435357D01*
X99459404Y-89530595D01*
X99411785Y-89625833D01*
X99364166Y-89673452D01*
X99268928Y-89721071D01*
X98935595Y-89721071D01*
X100126071Y-89244880D02*
X100221309Y-89244880D01*
X100316547Y-89292500D01*
X100364166Y-89340119D01*
X100411785Y-89435357D01*
X100459404Y-89625833D01*
X100459404Y-89863928D01*
X100411785Y-90054404D01*
X100364166Y-90149642D01*
X100316547Y-90197261D01*
X100221309Y-90244880D01*
X100126071Y-90244880D01*
X100030833Y-90197261D01*
X99983214Y-90149642D01*
X99935595Y-90054404D01*
X99887976Y-89863928D01*
X99887976Y-89625833D01*
X99935595Y-89435357D01*
X99983214Y-89340119D01*
X100030833Y-89292500D01*
X100126071Y-89244880D01*
X101316547Y-89578214D02*
X101316547Y-90244880D01*
X101078452Y-89197261D02*
X100840357Y-89911547D01*
X101459404Y-89911547D01*
X97935595Y-87704880D02*
X97935595Y-86704880D01*
X98316547Y-86704880D01*
X98411785Y-86752500D01*
X98459404Y-86800119D01*
X98507023Y-86895357D01*
X98507023Y-87038214D01*
X98459404Y-87133452D01*
X98411785Y-87181071D01*
X98316547Y-87228690D01*
X97935595Y-87228690D01*
X99268928Y-87181071D02*
X99411785Y-87228690D01*
X99459404Y-87276309D01*
X99507023Y-87371547D01*
X99507023Y-87514404D01*
X99459404Y-87609642D01*
X99411785Y-87657261D01*
X99316547Y-87704880D01*
X98935595Y-87704880D01*
X98935595Y-86704880D01*
X99268928Y-86704880D01*
X99364166Y-86752500D01*
X99411785Y-86800119D01*
X99459404Y-86895357D01*
X99459404Y-86990595D01*
X99411785Y-87085833D01*
X99364166Y-87133452D01*
X99268928Y-87181071D01*
X98935595Y-87181071D01*
X100126071Y-86704880D02*
X100221309Y-86704880D01*
X100316547Y-86752500D01*
X100364166Y-86800119D01*
X100411785Y-86895357D01*
X100459404Y-87085833D01*
X100459404Y-87323928D01*
X100411785Y-87514404D01*
X100364166Y-87609642D01*
X100316547Y-87657261D01*
X100221309Y-87704880D01*
X100126071Y-87704880D01*
X100030833Y-87657261D01*
X99983214Y-87609642D01*
X99935595Y-87514404D01*
X99887976Y-87323928D01*
X99887976Y-87085833D01*
X99935595Y-86895357D01*
X99983214Y-86800119D01*
X100030833Y-86752500D01*
X100126071Y-86704880D01*
X100792738Y-86704880D02*
X101411785Y-86704880D01*
X101078452Y-87085833D01*
X101221309Y-87085833D01*
X101316547Y-87133452D01*
X101364166Y-87181071D01*
X101411785Y-87276309D01*
X101411785Y-87514404D01*
X101364166Y-87609642D01*
X101316547Y-87657261D01*
X101221309Y-87704880D01*
X100935595Y-87704880D01*
X100840357Y-87657261D01*
X100792738Y-87609642D01*
X97935595Y-85164880D02*
X97935595Y-84164880D01*
X98316547Y-84164880D01*
X98411785Y-84212500D01*
X98459404Y-84260119D01*
X98507023Y-84355357D01*
X98507023Y-84498214D01*
X98459404Y-84593452D01*
X98411785Y-84641071D01*
X98316547Y-84688690D01*
X97935595Y-84688690D01*
X99268928Y-84641071D02*
X99411785Y-84688690D01*
X99459404Y-84736309D01*
X99507023Y-84831547D01*
X99507023Y-84974404D01*
X99459404Y-85069642D01*
X99411785Y-85117261D01*
X99316547Y-85164880D01*
X98935595Y-85164880D01*
X98935595Y-84164880D01*
X99268928Y-84164880D01*
X99364166Y-84212500D01*
X99411785Y-84260119D01*
X99459404Y-84355357D01*
X99459404Y-84450595D01*
X99411785Y-84545833D01*
X99364166Y-84593452D01*
X99268928Y-84641071D01*
X98935595Y-84641071D01*
X100126071Y-84164880D02*
X100221309Y-84164880D01*
X100316547Y-84212500D01*
X100364166Y-84260119D01*
X100411785Y-84355357D01*
X100459404Y-84545833D01*
X100459404Y-84783928D01*
X100411785Y-84974404D01*
X100364166Y-85069642D01*
X100316547Y-85117261D01*
X100221309Y-85164880D01*
X100126071Y-85164880D01*
X100030833Y-85117261D01*
X99983214Y-85069642D01*
X99935595Y-84974404D01*
X99887976Y-84783928D01*
X99887976Y-84545833D01*
X99935595Y-84355357D01*
X99983214Y-84260119D01*
X100030833Y-84212500D01*
X100126071Y-84164880D01*
X100840357Y-84260119D02*
X100887976Y-84212500D01*
X100983214Y-84164880D01*
X101221309Y-84164880D01*
X101316547Y-84212500D01*
X101364166Y-84260119D01*
X101411785Y-84355357D01*
X101411785Y-84450595D01*
X101364166Y-84593452D01*
X100792738Y-85164880D01*
X101411785Y-85164880D01*
X97935595Y-82624880D02*
X97935595Y-81624880D01*
X98316547Y-81624880D01*
X98411785Y-81672500D01*
X98459404Y-81720119D01*
X98507023Y-81815357D01*
X98507023Y-81958214D01*
X98459404Y-82053452D01*
X98411785Y-82101071D01*
X98316547Y-82148690D01*
X97935595Y-82148690D01*
X99268928Y-82101071D02*
X99411785Y-82148690D01*
X99459404Y-82196309D01*
X99507023Y-82291547D01*
X99507023Y-82434404D01*
X99459404Y-82529642D01*
X99411785Y-82577261D01*
X99316547Y-82624880D01*
X98935595Y-82624880D01*
X98935595Y-81624880D01*
X99268928Y-81624880D01*
X99364166Y-81672500D01*
X99411785Y-81720119D01*
X99459404Y-81815357D01*
X99459404Y-81910595D01*
X99411785Y-82005833D01*
X99364166Y-82053452D01*
X99268928Y-82101071D01*
X98935595Y-82101071D01*
X100126071Y-81624880D02*
X100221309Y-81624880D01*
X100316547Y-81672500D01*
X100364166Y-81720119D01*
X100411785Y-81815357D01*
X100459404Y-82005833D01*
X100459404Y-82243928D01*
X100411785Y-82434404D01*
X100364166Y-82529642D01*
X100316547Y-82577261D01*
X100221309Y-82624880D01*
X100126071Y-82624880D01*
X100030833Y-82577261D01*
X99983214Y-82529642D01*
X99935595Y-82434404D01*
X99887976Y-82243928D01*
X99887976Y-82005833D01*
X99935595Y-81815357D01*
X99983214Y-81720119D01*
X100030833Y-81672500D01*
X100126071Y-81624880D01*
X101411785Y-82624880D02*
X100840357Y-82624880D01*
X101126071Y-82624880D02*
X101126071Y-81624880D01*
X101030833Y-81767738D01*
X100935595Y-81862976D01*
X100840357Y-81910595D01*
X97935595Y-80084880D02*
X97935595Y-79084880D01*
X98316547Y-79084880D01*
X98411785Y-79132500D01*
X98459404Y-79180119D01*
X98507023Y-79275357D01*
X98507023Y-79418214D01*
X98459404Y-79513452D01*
X98411785Y-79561071D01*
X98316547Y-79608690D01*
X97935595Y-79608690D01*
X99268928Y-79561071D02*
X99411785Y-79608690D01*
X99459404Y-79656309D01*
X99507023Y-79751547D01*
X99507023Y-79894404D01*
X99459404Y-79989642D01*
X99411785Y-80037261D01*
X99316547Y-80084880D01*
X98935595Y-80084880D01*
X98935595Y-79084880D01*
X99268928Y-79084880D01*
X99364166Y-79132500D01*
X99411785Y-79180119D01*
X99459404Y-79275357D01*
X99459404Y-79370595D01*
X99411785Y-79465833D01*
X99364166Y-79513452D01*
X99268928Y-79561071D01*
X98935595Y-79561071D01*
X100126071Y-79084880D02*
X100221309Y-79084880D01*
X100316547Y-79132500D01*
X100364166Y-79180119D01*
X100411785Y-79275357D01*
X100459404Y-79465833D01*
X100459404Y-79703928D01*
X100411785Y-79894404D01*
X100364166Y-79989642D01*
X100316547Y-80037261D01*
X100221309Y-80084880D01*
X100126071Y-80084880D01*
X100030833Y-80037261D01*
X99983214Y-79989642D01*
X99935595Y-79894404D01*
X99887976Y-79703928D01*
X99887976Y-79465833D01*
X99935595Y-79275357D01*
X99983214Y-79180119D01*
X100030833Y-79132500D01*
X100126071Y-79084880D01*
X101078452Y-79084880D02*
X101173690Y-79084880D01*
X101268928Y-79132500D01*
X101316547Y-79180119D01*
X101364166Y-79275357D01*
X101411785Y-79465833D01*
X101411785Y-79703928D01*
X101364166Y-79894404D01*
X101316547Y-79989642D01*
X101268928Y-80037261D01*
X101173690Y-80084880D01*
X101078452Y-80084880D01*
X100983214Y-80037261D01*
X100935595Y-79989642D01*
X100887976Y-79894404D01*
X100840357Y-79703928D01*
X100840357Y-79465833D01*
X100887976Y-79275357D01*
X100935595Y-79180119D01*
X100983214Y-79132500D01*
X101078452Y-79084880D01*
X114989839Y-98882579D02*
X115124526Y-98815236D01*
X115292885Y-98646877D01*
X115326557Y-98545862D01*
X115326557Y-98478518D01*
X115292885Y-98377503D01*
X115225542Y-98310160D01*
X115124526Y-98276488D01*
X115057183Y-98276488D01*
X114956168Y-98310160D01*
X114787809Y-98411175D01*
X114686794Y-98444847D01*
X114619450Y-98444847D01*
X114518435Y-98411175D01*
X114451091Y-98343831D01*
X114417420Y-98242816D01*
X114417420Y-98175473D01*
X114451091Y-98074457D01*
X114619450Y-97906099D01*
X114754137Y-97838755D01*
X114956168Y-97569381D02*
X115831633Y-98108129D01*
X115461244Y-97468366D01*
X116101007Y-97838755D01*
X115562259Y-96963290D01*
X115966320Y-96559229D02*
X116101007Y-96424542D01*
X116202022Y-96390870D01*
X116336709Y-96390870D01*
X116505068Y-96491885D01*
X116740770Y-96727587D01*
X116841786Y-96895946D01*
X116841786Y-97030633D01*
X116808114Y-97131648D01*
X116673427Y-97266335D01*
X116572412Y-97300007D01*
X116437725Y-97300007D01*
X116269366Y-97198992D01*
X116033664Y-96963290D01*
X115932648Y-96794931D01*
X115932648Y-96660244D01*
X115966320Y-96559229D01*
X112557183Y-98882579D02*
X111850076Y-98175473D01*
X112961244Y-98478518D01*
X112254137Y-97771412D01*
X113702022Y-97737740D02*
X113129603Y-97636725D01*
X113297961Y-98141801D02*
X112590855Y-97434694D01*
X112860229Y-97165320D01*
X112961244Y-97131648D01*
X113028587Y-97131648D01*
X113129603Y-97165320D01*
X113230618Y-97266335D01*
X113264290Y-97367351D01*
X113264290Y-97434694D01*
X113230618Y-97535709D01*
X112961244Y-97805083D01*
X113937725Y-97434694D02*
X114072412Y-97367351D01*
X114240770Y-97198992D01*
X114274442Y-97097977D01*
X114274442Y-97030633D01*
X114240770Y-96929618D01*
X114173427Y-96862274D01*
X114072412Y-96828603D01*
X114005068Y-96828603D01*
X113904053Y-96862274D01*
X113735694Y-96963290D01*
X113634679Y-96996961D01*
X113567335Y-96996961D01*
X113466320Y-96963290D01*
X113398977Y-96895946D01*
X113365305Y-96794931D01*
X113365305Y-96727587D01*
X113398977Y-96626572D01*
X113567335Y-96458213D01*
X113702022Y-96390870D01*
X113870381Y-96155168D02*
X114274442Y-95751107D01*
X114779518Y-96660244D02*
X114072412Y-95953137D01*
X109757261Y-107126071D02*
X109804880Y-106983214D01*
X109804880Y-106745119D01*
X109757261Y-106649880D01*
X109709642Y-106602261D01*
X109614404Y-106554642D01*
X109519166Y-106554642D01*
X109423928Y-106602261D01*
X109376309Y-106649880D01*
X109328690Y-106745119D01*
X109281071Y-106935595D01*
X109233452Y-107030833D01*
X109185833Y-107078452D01*
X109090595Y-107126071D01*
X108995357Y-107126071D01*
X108900119Y-107078452D01*
X108852500Y-107030833D01*
X108804880Y-106935595D01*
X108804880Y-106697500D01*
X108852500Y-106554642D01*
X108804880Y-106221309D02*
X109804880Y-105983214D01*
X109090595Y-105792738D01*
X109804880Y-105602261D01*
X108804880Y-105364166D01*
X109804880Y-104983214D02*
X108804880Y-104983214D01*
X108804880Y-104745119D01*
X108852500Y-104602261D01*
X108947738Y-104507023D01*
X109042976Y-104459404D01*
X109233452Y-104411785D01*
X109376309Y-104411785D01*
X109566785Y-104459404D01*
X109662023Y-104507023D01*
X109757261Y-104602261D01*
X109804880Y-104745119D01*
X109804880Y-104983214D01*
X109804880Y-103983214D02*
X108804880Y-103983214D01*
X108804880Y-103316547D02*
X108804880Y-103126071D01*
X108852500Y-103030833D01*
X108947738Y-102935595D01*
X109138214Y-102887976D01*
X109471547Y-102887976D01*
X109662023Y-102935595D01*
X109757261Y-103030833D01*
X109804880Y-103126071D01*
X109804880Y-103316547D01*
X109757261Y-103411785D01*
X109662023Y-103507023D01*
X109471547Y-103554642D01*
X109138214Y-103554642D01*
X108947738Y-103507023D01*
X108852500Y-103411785D01*
X108804880Y-103316547D01*
X104677261Y-107411785D02*
X104724880Y-107268928D01*
X104724880Y-107030833D01*
X104677261Y-106935595D01*
X104629642Y-106887976D01*
X104534404Y-106840357D01*
X104439166Y-106840357D01*
X104343928Y-106887976D01*
X104296309Y-106935595D01*
X104248690Y-107030833D01*
X104201071Y-107221309D01*
X104153452Y-107316547D01*
X104105833Y-107364166D01*
X104010595Y-107411785D01*
X103915357Y-107411785D01*
X103820119Y-107364166D01*
X103772500Y-107316547D01*
X103724880Y-107221309D01*
X103724880Y-106983214D01*
X103772500Y-106840357D01*
X103724880Y-106507023D02*
X104724880Y-106268928D01*
X104010595Y-106078452D01*
X104724880Y-105887976D01*
X103724880Y-105649880D01*
X104629642Y-104697500D02*
X104677261Y-104745119D01*
X104724880Y-104887976D01*
X104724880Y-104983214D01*
X104677261Y-105126071D01*
X104582023Y-105221309D01*
X104486785Y-105268928D01*
X104296309Y-105316547D01*
X104153452Y-105316547D01*
X103962976Y-105268928D01*
X103867738Y-105221309D01*
X103772500Y-105126071D01*
X103724880Y-104983214D01*
X103724880Y-104887976D01*
X103772500Y-104745119D01*
X103820119Y-104697500D01*
X104724880Y-103792738D02*
X104724880Y-104268928D01*
X103724880Y-104268928D01*
X104724880Y-103459404D02*
X103724880Y-103459404D01*
X104724880Y-102887976D02*
X104153452Y-103316547D01*
X103724880Y-102887976D02*
X104296309Y-103459404D01*
X129764880Y-107664404D02*
X128764880Y-107664404D01*
X128764880Y-107283452D01*
X128812500Y-107188214D01*
X128860119Y-107140595D01*
X128955357Y-107092976D01*
X129098214Y-107092976D01*
X129193452Y-107140595D01*
X129241071Y-107188214D01*
X129288690Y-107283452D01*
X129288690Y-107664404D01*
X129479166Y-106712023D02*
X129479166Y-106235833D01*
X129764880Y-106807261D02*
X128764880Y-106473928D01*
X129764880Y-106140595D01*
X128764880Y-105616785D02*
X128764880Y-105521547D01*
X128812500Y-105426309D01*
X128860119Y-105378690D01*
X128955357Y-105331071D01*
X129145833Y-105283452D01*
X129383928Y-105283452D01*
X129574404Y-105331071D01*
X129669642Y-105378690D01*
X129717261Y-105426309D01*
X129764880Y-105521547D01*
X129764880Y-105616785D01*
X129717261Y-105712023D01*
X129669642Y-105759642D01*
X129574404Y-105807261D01*
X129383928Y-105854880D01*
X129145833Y-105854880D01*
X128955357Y-105807261D01*
X128860119Y-105759642D01*
X128812500Y-105712023D01*
X128764880Y-105616785D01*
X128764880Y-104950119D02*
X128764880Y-104283452D01*
X129764880Y-104712023D01*
X127224880Y-107664404D02*
X126224880Y-107664404D01*
X126224880Y-107283452D01*
X126272500Y-107188214D01*
X126320119Y-107140595D01*
X126415357Y-107092976D01*
X126558214Y-107092976D01*
X126653452Y-107140595D01*
X126701071Y-107188214D01*
X126748690Y-107283452D01*
X126748690Y-107664404D01*
X126939166Y-106712023D02*
X126939166Y-106235833D01*
X127224880Y-106807261D02*
X126224880Y-106473928D01*
X127224880Y-106140595D01*
X126224880Y-105616785D02*
X126224880Y-105521547D01*
X126272500Y-105426309D01*
X126320119Y-105378690D01*
X126415357Y-105331071D01*
X126605833Y-105283452D01*
X126843928Y-105283452D01*
X127034404Y-105331071D01*
X127129642Y-105378690D01*
X127177261Y-105426309D01*
X127224880Y-105521547D01*
X127224880Y-105616785D01*
X127177261Y-105712023D01*
X127129642Y-105759642D01*
X127034404Y-105807261D01*
X126843928Y-105854880D01*
X126605833Y-105854880D01*
X126415357Y-105807261D01*
X126320119Y-105759642D01*
X126272500Y-105712023D01*
X126224880Y-105616785D01*
X126224880Y-104426309D02*
X126224880Y-104616785D01*
X126272500Y-104712023D01*
X126320119Y-104759642D01*
X126462976Y-104854880D01*
X126653452Y-104902500D01*
X127034404Y-104902500D01*
X127129642Y-104854880D01*
X127177261Y-104807261D01*
X127224880Y-104712023D01*
X127224880Y-104521547D01*
X127177261Y-104426309D01*
X127129642Y-104378690D01*
X127034404Y-104331071D01*
X126796309Y-104331071D01*
X126701071Y-104378690D01*
X126653452Y-104426309D01*
X126605833Y-104521547D01*
X126605833Y-104712023D01*
X126653452Y-104807261D01*
X126701071Y-104854880D01*
X126796309Y-104902500D01*
X124684880Y-107664404D02*
X123684880Y-107664404D01*
X123684880Y-107283452D01*
X123732500Y-107188214D01*
X123780119Y-107140595D01*
X123875357Y-107092976D01*
X124018214Y-107092976D01*
X124113452Y-107140595D01*
X124161071Y-107188214D01*
X124208690Y-107283452D01*
X124208690Y-107664404D01*
X124399166Y-106712023D02*
X124399166Y-106235833D01*
X124684880Y-106807261D02*
X123684880Y-106473928D01*
X124684880Y-106140595D01*
X123684880Y-105616785D02*
X123684880Y-105521547D01*
X123732500Y-105426309D01*
X123780119Y-105378690D01*
X123875357Y-105331071D01*
X124065833Y-105283452D01*
X124303928Y-105283452D01*
X124494404Y-105331071D01*
X124589642Y-105378690D01*
X124637261Y-105426309D01*
X124684880Y-105521547D01*
X124684880Y-105616785D01*
X124637261Y-105712023D01*
X124589642Y-105759642D01*
X124494404Y-105807261D01*
X124303928Y-105854880D01*
X124065833Y-105854880D01*
X123875357Y-105807261D01*
X123780119Y-105759642D01*
X123732500Y-105712023D01*
X123684880Y-105616785D01*
X123684880Y-104378690D02*
X123684880Y-104854880D01*
X124161071Y-104902500D01*
X124113452Y-104854880D01*
X124065833Y-104759642D01*
X124065833Y-104521547D01*
X124113452Y-104426309D01*
X124161071Y-104378690D01*
X124256309Y-104331071D01*
X124494404Y-104331071D01*
X124589642Y-104378690D01*
X124637261Y-104426309D01*
X124684880Y-104521547D01*
X124684880Y-104759642D01*
X124637261Y-104854880D01*
X124589642Y-104902500D01*
X122144880Y-107664404D02*
X121144880Y-107664404D01*
X121144880Y-107283452D01*
X121192500Y-107188214D01*
X121240119Y-107140595D01*
X121335357Y-107092976D01*
X121478214Y-107092976D01*
X121573452Y-107140595D01*
X121621071Y-107188214D01*
X121668690Y-107283452D01*
X121668690Y-107664404D01*
X121859166Y-106712023D02*
X121859166Y-106235833D01*
X122144880Y-106807261D02*
X121144880Y-106473928D01*
X122144880Y-106140595D01*
X121144880Y-105616785D02*
X121144880Y-105521547D01*
X121192500Y-105426309D01*
X121240119Y-105378690D01*
X121335357Y-105331071D01*
X121525833Y-105283452D01*
X121763928Y-105283452D01*
X121954404Y-105331071D01*
X122049642Y-105378690D01*
X122097261Y-105426309D01*
X122144880Y-105521547D01*
X122144880Y-105616785D01*
X122097261Y-105712023D01*
X122049642Y-105759642D01*
X121954404Y-105807261D01*
X121763928Y-105854880D01*
X121525833Y-105854880D01*
X121335357Y-105807261D01*
X121240119Y-105759642D01*
X121192500Y-105712023D01*
X121144880Y-105616785D01*
X121478214Y-104426309D02*
X122144880Y-104426309D01*
X121097261Y-104664404D02*
X121811547Y-104902500D01*
X121811547Y-104283452D01*
X119604880Y-107664404D02*
X118604880Y-107664404D01*
X118604880Y-107283452D01*
X118652500Y-107188214D01*
X118700119Y-107140595D01*
X118795357Y-107092976D01*
X118938214Y-107092976D01*
X119033452Y-107140595D01*
X119081071Y-107188214D01*
X119128690Y-107283452D01*
X119128690Y-107664404D01*
X119319166Y-106712023D02*
X119319166Y-106235833D01*
X119604880Y-106807261D02*
X118604880Y-106473928D01*
X119604880Y-106140595D01*
X118604880Y-105616785D02*
X118604880Y-105521547D01*
X118652500Y-105426309D01*
X118700119Y-105378690D01*
X118795357Y-105331071D01*
X118985833Y-105283452D01*
X119223928Y-105283452D01*
X119414404Y-105331071D01*
X119509642Y-105378690D01*
X119557261Y-105426309D01*
X119604880Y-105521547D01*
X119604880Y-105616785D01*
X119557261Y-105712023D01*
X119509642Y-105759642D01*
X119414404Y-105807261D01*
X119223928Y-105854880D01*
X118985833Y-105854880D01*
X118795357Y-105807261D01*
X118700119Y-105759642D01*
X118652500Y-105712023D01*
X118604880Y-105616785D01*
X118604880Y-104950119D02*
X118604880Y-104331071D01*
X118985833Y-104664404D01*
X118985833Y-104521547D01*
X119033452Y-104426309D01*
X119081071Y-104378690D01*
X119176309Y-104331071D01*
X119414404Y-104331071D01*
X119509642Y-104378690D01*
X119557261Y-104426309D01*
X119604880Y-104521547D01*
X119604880Y-104807261D01*
X119557261Y-104902500D01*
X119509642Y-104950119D01*
X117064880Y-107664404D02*
X116064880Y-107664404D01*
X116064880Y-107283452D01*
X116112500Y-107188214D01*
X116160119Y-107140595D01*
X116255357Y-107092976D01*
X116398214Y-107092976D01*
X116493452Y-107140595D01*
X116541071Y-107188214D01*
X116588690Y-107283452D01*
X116588690Y-107664404D01*
X116779166Y-106712023D02*
X116779166Y-106235833D01*
X117064880Y-106807261D02*
X116064880Y-106473928D01*
X117064880Y-106140595D01*
X116064880Y-105616785D02*
X116064880Y-105521547D01*
X116112500Y-105426309D01*
X116160119Y-105378690D01*
X116255357Y-105331071D01*
X116445833Y-105283452D01*
X116683928Y-105283452D01*
X116874404Y-105331071D01*
X116969642Y-105378690D01*
X117017261Y-105426309D01*
X117064880Y-105521547D01*
X117064880Y-105616785D01*
X117017261Y-105712023D01*
X116969642Y-105759642D01*
X116874404Y-105807261D01*
X116683928Y-105854880D01*
X116445833Y-105854880D01*
X116255357Y-105807261D01*
X116160119Y-105759642D01*
X116112500Y-105712023D01*
X116064880Y-105616785D01*
X116160119Y-104902500D02*
X116112500Y-104854880D01*
X116064880Y-104759642D01*
X116064880Y-104521547D01*
X116112500Y-104426309D01*
X116160119Y-104378690D01*
X116255357Y-104331071D01*
X116350595Y-104331071D01*
X116493452Y-104378690D01*
X117064880Y-104950119D01*
X117064880Y-104331071D01*
X114524880Y-107664404D02*
X113524880Y-107664404D01*
X113524880Y-107283452D01*
X113572500Y-107188214D01*
X113620119Y-107140595D01*
X113715357Y-107092976D01*
X113858214Y-107092976D01*
X113953452Y-107140595D01*
X114001071Y-107188214D01*
X114048690Y-107283452D01*
X114048690Y-107664404D01*
X114001071Y-106331071D02*
X114048690Y-106188214D01*
X114096309Y-106140595D01*
X114191547Y-106092976D01*
X114334404Y-106092976D01*
X114429642Y-106140595D01*
X114477261Y-106188214D01*
X114524880Y-106283452D01*
X114524880Y-106664404D01*
X113524880Y-106664404D01*
X113524880Y-106331071D01*
X113572500Y-106235833D01*
X113620119Y-106188214D01*
X113715357Y-106140595D01*
X113810595Y-106140595D01*
X113905833Y-106188214D01*
X113953452Y-106235833D01*
X114001071Y-106331071D01*
X114001071Y-106664404D01*
X113524880Y-105473928D02*
X113524880Y-105378690D01*
X113572500Y-105283452D01*
X113620119Y-105235833D01*
X113715357Y-105188214D01*
X113905833Y-105140595D01*
X114143928Y-105140595D01*
X114334404Y-105188214D01*
X114429642Y-105235833D01*
X114477261Y-105283452D01*
X114524880Y-105378690D01*
X114524880Y-105473928D01*
X114477261Y-105569166D01*
X114429642Y-105616785D01*
X114334404Y-105664404D01*
X114143928Y-105712023D01*
X113905833Y-105712023D01*
X113715357Y-105664404D01*
X113620119Y-105616785D01*
X113572500Y-105569166D01*
X113524880Y-105473928D01*
X114524880Y-104664404D02*
X114524880Y-104473928D01*
X114477261Y-104378690D01*
X114429642Y-104331071D01*
X114286785Y-104235833D01*
X114096309Y-104188214D01*
X113715357Y-104188214D01*
X113620119Y-104235833D01*
X113572500Y-104283452D01*
X113524880Y-104378690D01*
X113524880Y-104569166D01*
X113572500Y-104664404D01*
X113620119Y-104712023D01*
X113715357Y-104759642D01*
X113953452Y-104759642D01*
X114048690Y-104712023D01*
X114096309Y-104664404D01*
X114143928Y-104569166D01*
X114143928Y-104378690D01*
X114096309Y-104283452D01*
X114048690Y-104235833D01*
X113953452Y-104188214D01*
X111984880Y-107664404D02*
X110984880Y-107664404D01*
X110984880Y-107283452D01*
X111032500Y-107188214D01*
X111080119Y-107140595D01*
X111175357Y-107092976D01*
X111318214Y-107092976D01*
X111413452Y-107140595D01*
X111461071Y-107188214D01*
X111508690Y-107283452D01*
X111508690Y-107664404D01*
X111461071Y-106331071D02*
X111508690Y-106188214D01*
X111556309Y-106140595D01*
X111651547Y-106092976D01*
X111794404Y-106092976D01*
X111889642Y-106140595D01*
X111937261Y-106188214D01*
X111984880Y-106283452D01*
X111984880Y-106664404D01*
X110984880Y-106664404D01*
X110984880Y-106331071D01*
X111032500Y-106235833D01*
X111080119Y-106188214D01*
X111175357Y-106140595D01*
X111270595Y-106140595D01*
X111365833Y-106188214D01*
X111413452Y-106235833D01*
X111461071Y-106331071D01*
X111461071Y-106664404D01*
X110984880Y-105473928D02*
X110984880Y-105378690D01*
X111032500Y-105283452D01*
X111080119Y-105235833D01*
X111175357Y-105188214D01*
X111365833Y-105140595D01*
X111603928Y-105140595D01*
X111794404Y-105188214D01*
X111889642Y-105235833D01*
X111937261Y-105283452D01*
X111984880Y-105378690D01*
X111984880Y-105473928D01*
X111937261Y-105569166D01*
X111889642Y-105616785D01*
X111794404Y-105664404D01*
X111603928Y-105712023D01*
X111365833Y-105712023D01*
X111175357Y-105664404D01*
X111080119Y-105616785D01*
X111032500Y-105569166D01*
X110984880Y-105473928D01*
X111413452Y-104569166D02*
X111365833Y-104664404D01*
X111318214Y-104712023D01*
X111222976Y-104759642D01*
X111175357Y-104759642D01*
X111080119Y-104712023D01*
X111032500Y-104664404D01*
X110984880Y-104569166D01*
X110984880Y-104378690D01*
X111032500Y-104283452D01*
X111080119Y-104235833D01*
X111175357Y-104188214D01*
X111222976Y-104188214D01*
X111318214Y-104235833D01*
X111365833Y-104283452D01*
X111413452Y-104378690D01*
X111413452Y-104569166D01*
X111461071Y-104664404D01*
X111508690Y-104712023D01*
X111603928Y-104759642D01*
X111794404Y-104759642D01*
X111889642Y-104712023D01*
X111937261Y-104664404D01*
X111984880Y-104569166D01*
X111984880Y-104378690D01*
X111937261Y-104283452D01*
X111889642Y-104235833D01*
X111794404Y-104188214D01*
X111603928Y-104188214D01*
X111508690Y-104235833D01*
X111461071Y-104283452D01*
X111413452Y-104378690D01*
X135896961Y-100742801D02*
X135189855Y-100035694D01*
X135930633Y-100305068D01*
X135661259Y-99564290D01*
X136368366Y-100271396D01*
X137041801Y-99463274D02*
X137041801Y-99530618D01*
X136974457Y-99665305D01*
X136907114Y-99732648D01*
X136772427Y-99799992D01*
X136637740Y-99799992D01*
X136536725Y-99766320D01*
X136368366Y-99665305D01*
X136267351Y-99564290D01*
X136166335Y-99395931D01*
X136132664Y-99294916D01*
X136132664Y-99160229D01*
X136200007Y-99025542D01*
X136267351Y-98958198D01*
X136402038Y-98890855D01*
X136469381Y-98890855D01*
X137412190Y-99227572D02*
X136705083Y-98520465D01*
X137816251Y-98823511D02*
X137109144Y-98722496D01*
X137109144Y-98116404D02*
X137109144Y-98924526D01*
D11*
X139000000Y-97000000D02*
X140000000Y-97000000D01*
X137800000Y-98200000D02*
X139000000Y-97000000D01*
X139000000Y-94500000D02*
X140000000Y-94500000D01*
D10*
X134550091Y-98175457D02*
X135425557Y-98714205D01*
X135055168Y-98074442D01*
X135694931Y-98444831D01*
X135156183Y-97569366D01*
X136469381Y-97535694D02*
X136469381Y-97603038D01*
X136402038Y-97737725D01*
X136334694Y-97805068D01*
X136200007Y-97872412D01*
X136065320Y-97872412D01*
X135964305Y-97838740D01*
X135795946Y-97737725D01*
X135694931Y-97636709D01*
X135593916Y-97468351D01*
X135560244Y-97367335D01*
X135560244Y-97232648D01*
X135627587Y-97097961D01*
X135694931Y-97030618D01*
X135829618Y-96963274D01*
X135896961Y-96963274D01*
X137176488Y-96963274D02*
X136839770Y-97299992D01*
X136132664Y-96592885D01*
X137412190Y-96727572D02*
X136705083Y-96020465D01*
X137816251Y-96323511D02*
X137109144Y-96222496D01*
X137109144Y-95616404D02*
X137109144Y-96424526D01*
D11*
X137800000Y-95700000D02*
X139000000Y-94500000D01*
D10*
X136098992Y-95440770D02*
X135391885Y-94733664D01*
X135560244Y-94565305D01*
X135694931Y-94497961D01*
X135829618Y-94497961D01*
X135930633Y-94531633D01*
X136098992Y-94632648D01*
X136200007Y-94733664D01*
X136301022Y-94902022D01*
X136334694Y-95003038D01*
X136334694Y-95137725D01*
X136267351Y-95272412D01*
X136098992Y-95440770D01*
X136570396Y-94565305D02*
X136907114Y-94228587D01*
X136705083Y-94834679D02*
X136233679Y-93891870D01*
X137176488Y-94363274D01*
X137748908Y-93656168D02*
X137748908Y-93723511D01*
X137681564Y-93858198D01*
X137614221Y-93925542D01*
X137479534Y-93992885D01*
X137344847Y-93992885D01*
X137243831Y-93959213D01*
X137075473Y-93858198D01*
X136974457Y-93757183D01*
X136873442Y-93588824D01*
X136839770Y-93487809D01*
X136839770Y-93353122D01*
X136907114Y-93218435D01*
X136974457Y-93151091D01*
X137109144Y-93083748D01*
X137176488Y-93083748D01*
D11*
X139000000Y-91900000D02*
X140000000Y-91900000D01*
X137800000Y-93100000D02*
X139000000Y-91900000D01*
D10*
X135863290Y-92772412D02*
X136200007Y-92435694D01*
X135997977Y-93041786D02*
X135526572Y-92098977D01*
X136469381Y-92570381D01*
X136705083Y-92334679D02*
X135997977Y-91627572D01*
X136166335Y-91459213D01*
X136301022Y-91391870D01*
X136435709Y-91391870D01*
X136536725Y-91425542D01*
X136705083Y-91526557D01*
X136806099Y-91627572D01*
X136907114Y-91795931D01*
X136940786Y-91896946D01*
X136940786Y-92031633D01*
X136873442Y-92166320D01*
X136705083Y-92334679D01*
X137748908Y-91156168D02*
X137748908Y-91223511D01*
X137681564Y-91358198D01*
X137614221Y-91425542D01*
X137479534Y-91492885D01*
X137344847Y-91492885D01*
X137243831Y-91459213D01*
X137075473Y-91358198D01*
X136974457Y-91257183D01*
X136873442Y-91088824D01*
X136839770Y-90987809D01*
X136839770Y-90853122D01*
X136907114Y-90718435D01*
X136974457Y-90651091D01*
X137109144Y-90583748D01*
X137176488Y-90583748D01*
D11*
X137800000Y-90600000D02*
X139000000Y-89400000D01*
X139000000Y-89400000D02*
X140000000Y-89400000D01*
X139000000Y-86800000D02*
X140000000Y-86800000D01*
D10*
X135290870Y-90408114D02*
X135425557Y-90340770D01*
X135492900Y-90340770D01*
X135593916Y-90374442D01*
X135694931Y-90475457D01*
X135728603Y-90576473D01*
X135728603Y-90643816D01*
X135694931Y-90744831D01*
X135425557Y-91014205D01*
X134718450Y-90307099D01*
X134954152Y-90071396D01*
X135055168Y-90037725D01*
X135122511Y-90037725D01*
X135223526Y-90071396D01*
X135290870Y-90138740D01*
X135324542Y-90239755D01*
X135324542Y-90307099D01*
X135290870Y-90408114D01*
X135055168Y-90643816D01*
X136469381Y-89835694D02*
X136469381Y-89903038D01*
X136402038Y-90037725D01*
X136334694Y-90105068D01*
X136200007Y-90172412D01*
X136065320Y-90172412D01*
X135964305Y-90138740D01*
X135795946Y-90037725D01*
X135694931Y-89936709D01*
X135593916Y-89768351D01*
X135560244Y-89667335D01*
X135560244Y-89532648D01*
X135627587Y-89397961D01*
X135694931Y-89330618D01*
X135829618Y-89263274D01*
X135896961Y-89263274D01*
X137176488Y-89263274D02*
X136839770Y-89599992D01*
X136132664Y-88892885D01*
X137412190Y-89027572D02*
X136705083Y-88320465D01*
X137816251Y-88623511D02*
X137109144Y-88522496D01*
X137109144Y-87916404D02*
X137109144Y-88724526D01*
D11*
X137800000Y-88000000D02*
X139000000Y-86800000D01*
X139000000Y-84300000D02*
X140000000Y-84300000D01*
X137800000Y-85500000D02*
X139000000Y-84300000D01*
D10*
X136065320Y-87807099D02*
X136200007Y-87739755D01*
X136368366Y-87571396D01*
X136402038Y-87470381D01*
X136402038Y-87403038D01*
X136368366Y-87302022D01*
X136301022Y-87234679D01*
X136200007Y-87201007D01*
X136132664Y-87201007D01*
X136031648Y-87234679D01*
X135863290Y-87335694D01*
X135762274Y-87369366D01*
X135694931Y-87369366D01*
X135593916Y-87335694D01*
X135526572Y-87268351D01*
X135492900Y-87167335D01*
X135492900Y-87099992D01*
X135526572Y-86998977D01*
X135694931Y-86830618D01*
X135829618Y-86763274D01*
X136806099Y-87133664D02*
X136098992Y-86426557D01*
X136267351Y-86258198D01*
X136402038Y-86190855D01*
X136536725Y-86190855D01*
X136637740Y-86224526D01*
X136806099Y-86325542D01*
X136907114Y-86426557D01*
X137008129Y-86594916D01*
X137041801Y-86695931D01*
X137041801Y-86830618D01*
X136974457Y-86965305D01*
X136806099Y-87133664D01*
X137277503Y-86258198D02*
X137614221Y-85921481D01*
X137412190Y-86527572D02*
X136940786Y-85584763D01*
X137883595Y-86056168D01*
X135331071Y-82244761D02*
X135473928Y-82292380D01*
X135712023Y-82292380D01*
X135807261Y-82244761D01*
X135854880Y-82197142D01*
X135902500Y-82101904D01*
X135902500Y-82006666D01*
X135854880Y-81911428D01*
X135807261Y-81863809D01*
X135712023Y-81816190D01*
X135521547Y-81768571D01*
X135426309Y-81720952D01*
X135378690Y-81673333D01*
X135331071Y-81578095D01*
X135331071Y-81482857D01*
X135378690Y-81387619D01*
X135426309Y-81340000D01*
X135521547Y-81292380D01*
X135759642Y-81292380D01*
X135902500Y-81340000D01*
X136902500Y-82197142D02*
X136854880Y-82244761D01*
X136712023Y-82292380D01*
X136616785Y-82292380D01*
X136473928Y-82244761D01*
X136378690Y-82149523D01*
X136331071Y-82054285D01*
X136283452Y-81863809D01*
X136283452Y-81720952D01*
X136331071Y-81530476D01*
X136378690Y-81435238D01*
X136473928Y-81340000D01*
X136616785Y-81292380D01*
X136712023Y-81292380D01*
X136854880Y-81340000D01*
X136902500Y-81387619D01*
X137807261Y-82292380D02*
X137331071Y-82292380D01*
X137331071Y-81292380D01*
X129473928Y-78237500D02*
X130473928Y-78237500D01*
X130283452Y-79509642D02*
X130235833Y-79557261D01*
X130092976Y-79604880D01*
X129997738Y-79604880D01*
X129854880Y-79557261D01*
X129759642Y-79462023D01*
X129712023Y-79366785D01*
X129664404Y-79176309D01*
X129664404Y-79033452D01*
X129712023Y-78842976D01*
X129759642Y-78747738D01*
X129854880Y-78652500D01*
X129997738Y-78604880D01*
X130092976Y-78604880D01*
X130235833Y-78652500D01*
X130283452Y-78700119D01*
X130473928Y-78237500D02*
X131521547Y-78237500D01*
X130902500Y-78604880D02*
X131092976Y-78604880D01*
X131188214Y-78652500D01*
X131283452Y-78747738D01*
X131331071Y-78938214D01*
X131331071Y-79271547D01*
X131283452Y-79462023D01*
X131188214Y-79557261D01*
X131092976Y-79604880D01*
X130902500Y-79604880D01*
X130807261Y-79557261D01*
X130712023Y-79462023D01*
X130664404Y-79271547D01*
X130664404Y-78938214D01*
X130712023Y-78747738D01*
X130807261Y-78652500D01*
X130902500Y-78604880D01*
X131521547Y-78237500D02*
X132521547Y-78237500D01*
X131759642Y-79604880D02*
X131759642Y-78604880D01*
X131997738Y-78604880D01*
X132140595Y-78652500D01*
X132235833Y-78747738D01*
X132283452Y-78842976D01*
X132331071Y-79033452D01*
X132331071Y-79176309D01*
X132283452Y-79366785D01*
X132235833Y-79462023D01*
X132140595Y-79557261D01*
X131997738Y-79604880D01*
X131759642Y-79604880D01*
X132521547Y-78237500D02*
X133426309Y-78237500D01*
X132759642Y-79081071D02*
X133092976Y-79081071D01*
X133235833Y-79604880D02*
X132759642Y-79604880D01*
X132759642Y-78604880D01*
X133235833Y-78604880D01*
X133426309Y-78237500D02*
X134426309Y-78237500D01*
X134235833Y-79509642D02*
X134188214Y-79557261D01*
X134045357Y-79604880D01*
X133950119Y-79604880D01*
X133807261Y-79557261D01*
X133712023Y-79462023D01*
X133664404Y-79366785D01*
X133616785Y-79176309D01*
X133616785Y-79033452D01*
X133664404Y-78842976D01*
X133712023Y-78747738D01*
X133807261Y-78652500D01*
X133950119Y-78604880D01*
X134045357Y-78604880D01*
X134188214Y-78652500D01*
X134235833Y-78700119D01*
X134426309Y-78237500D02*
X135188214Y-78237500D01*
X134426309Y-79700119D02*
X135188214Y-79700119D01*
X135188214Y-78237500D02*
X136188214Y-78237500D01*
X135997738Y-79604880D02*
X135664404Y-79128690D01*
X135426309Y-79604880D02*
X135426309Y-78604880D01*
X135807261Y-78604880D01*
X135902500Y-78652500D01*
X135950119Y-78700119D01*
X135997738Y-78795357D01*
X135997738Y-78938214D01*
X135950119Y-79033452D01*
X135902500Y-79081071D01*
X135807261Y-79128690D01*
X135426309Y-79128690D01*
X136188214Y-78237500D02*
X137140595Y-78237500D01*
X136378690Y-79557261D02*
X136521547Y-79604880D01*
X136759642Y-79604880D01*
X136854880Y-79557261D01*
X136902500Y-79509642D01*
X136950119Y-79414404D01*
X136950119Y-79319166D01*
X136902500Y-79223928D01*
X136854880Y-79176309D01*
X136759642Y-79128690D01*
X136569166Y-79081071D01*
X136473928Y-79033452D01*
X136426309Y-78985833D01*
X136378690Y-78890595D01*
X136378690Y-78795357D01*
X136426309Y-78700119D01*
X136473928Y-78652500D01*
X136569166Y-78604880D01*
X136807261Y-78604880D01*
X136950119Y-78652500D01*
X137140595Y-78237500D02*
X137902500Y-78237500D01*
X137235833Y-78604880D02*
X137807261Y-78604880D01*
X137521547Y-79604880D02*
X137521547Y-78604880D01*
X134331071Y-77017261D02*
X134473928Y-77064880D01*
X134712023Y-77064880D01*
X134807261Y-77017261D01*
X134854880Y-76969642D01*
X134902500Y-76874404D01*
X134902500Y-76779166D01*
X134854880Y-76683928D01*
X134807261Y-76636309D01*
X134712023Y-76588690D01*
X134521547Y-76541071D01*
X134426309Y-76493452D01*
X134378690Y-76445833D01*
X134331071Y-76350595D01*
X134331071Y-76255357D01*
X134378690Y-76160119D01*
X134426309Y-76112500D01*
X134521547Y-76064880D01*
X134759642Y-76064880D01*
X134902500Y-76112500D01*
X135902500Y-76969642D02*
X135854880Y-77017261D01*
X135712023Y-77064880D01*
X135616785Y-77064880D01*
X135473928Y-77017261D01*
X135378690Y-76922023D01*
X135331071Y-76826785D01*
X135283452Y-76636309D01*
X135283452Y-76493452D01*
X135331071Y-76302976D01*
X135378690Y-76207738D01*
X135473928Y-76112500D01*
X135616785Y-76064880D01*
X135712023Y-76064880D01*
X135854880Y-76112500D01*
X135902500Y-76160119D01*
X136807261Y-77064880D02*
X136331071Y-77064880D01*
X136331071Y-76064880D01*
X137140595Y-77064880D02*
X137140595Y-76064880D01*
X137712023Y-77064880D02*
X137283452Y-76493452D01*
X137712023Y-76064880D02*
X137140595Y-76636309D01*
X134616785Y-74477261D02*
X134759642Y-74524880D01*
X134997738Y-74524880D01*
X135092976Y-74477261D01*
X135140595Y-74429642D01*
X135188214Y-74334404D01*
X135188214Y-74239166D01*
X135140595Y-74143928D01*
X135092976Y-74096309D01*
X134997738Y-74048690D01*
X134807261Y-74001071D01*
X134712023Y-73953452D01*
X134664404Y-73905833D01*
X134616785Y-73810595D01*
X134616785Y-73715357D01*
X134664404Y-73620119D01*
X134712023Y-73572500D01*
X134807261Y-73524880D01*
X135045357Y-73524880D01*
X135188214Y-73572500D01*
X135616785Y-74524880D02*
X135616785Y-73524880D01*
X135854880Y-73524880D01*
X135997738Y-73572500D01*
X136092976Y-73667738D01*
X136140595Y-73762976D01*
X136188214Y-73953452D01*
X136188214Y-74096309D01*
X136140595Y-74286785D01*
X136092976Y-74382023D01*
X135997738Y-74477261D01*
X135854880Y-74524880D01*
X135616785Y-74524880D01*
X136616785Y-74524880D02*
X136616785Y-73524880D01*
X137283452Y-73524880D02*
X137473928Y-73524880D01*
X137569166Y-73572500D01*
X137664404Y-73667738D01*
X137712023Y-73858214D01*
X137712023Y-74191547D01*
X137664404Y-74382023D01*
X137569166Y-74477261D01*
X137473928Y-74524880D01*
X137283452Y-74524880D01*
X137188214Y-74477261D01*
X137092976Y-74382023D01*
X137045357Y-74191547D01*
X137045357Y-73858214D01*
X137092976Y-73667738D01*
X137188214Y-73572500D01*
X137283452Y-73524880D01*
X134950119Y-70765000D02*
X135950119Y-70765000D01*
X135759642Y-72037142D02*
X135712023Y-72084761D01*
X135569166Y-72132380D01*
X135473928Y-72132380D01*
X135331071Y-72084761D01*
X135235833Y-71989523D01*
X135188214Y-71894285D01*
X135140595Y-71703809D01*
X135140595Y-71560952D01*
X135188214Y-71370476D01*
X135235833Y-71275238D01*
X135331071Y-71180000D01*
X135473928Y-71132380D01*
X135569166Y-71132380D01*
X135712023Y-71180000D01*
X135759642Y-71227619D01*
X135950119Y-70765000D02*
X136902500Y-70765000D01*
X136140595Y-72084761D02*
X136283452Y-72132380D01*
X136521547Y-72132380D01*
X136616785Y-72084761D01*
X136664404Y-72037142D01*
X136712023Y-71941904D01*
X136712023Y-71846666D01*
X136664404Y-71751428D01*
X136616785Y-71703809D01*
X136521547Y-71656190D01*
X136331071Y-71608571D01*
X136235833Y-71560952D01*
X136188214Y-71513333D01*
X136140595Y-71418095D01*
X136140595Y-71322857D01*
X136188214Y-71227619D01*
X136235833Y-71180000D01*
X136331071Y-71132380D01*
X136569166Y-71132380D01*
X136712023Y-71180000D01*
X136902500Y-70765000D02*
X137902500Y-70765000D01*
X137473928Y-71608571D02*
X137616785Y-71656190D01*
X137664404Y-71703809D01*
X137712023Y-71799047D01*
X137712023Y-71941904D01*
X137664404Y-72037142D01*
X137616785Y-72084761D01*
X137521547Y-72132380D01*
X137140595Y-72132380D01*
X137140595Y-71132380D01*
X137473928Y-71132380D01*
X137569166Y-71180000D01*
X137616785Y-71227619D01*
X137664404Y-71322857D01*
X137664404Y-71418095D01*
X137616785Y-71513333D01*
X137569166Y-71560952D01*
X137473928Y-71608571D01*
X137140595Y-71608571D01*
D11*
%TO.C,U5*%
X178735000Y-83290000D02*
X179210000Y-83290000D01*
X179210000Y-83290000D02*
X179210000Y-83765000D01*
X174465000Y-88510000D02*
X173990000Y-88510000D01*
X173990000Y-88510000D02*
X173990000Y-88035000D01*
X178735000Y-88510000D02*
X179210000Y-88510000D01*
X179210000Y-88510000D02*
X179210000Y-88035000D01*
X174465000Y-83290000D02*
X173990000Y-83290000D01*
D12*
%TO.C,S2*%
X101650000Y-109425000D02*
X97150000Y-109425000D01*
X101650000Y-104325000D02*
X97150000Y-104325000D01*
D13*
X95250000Y-105000000D02*
G75*
G03*
X95250000Y-105000000I-100000J0D01*
G01*
D12*
X96850000Y-105695000D02*
X96850000Y-108055000D01*
X101950000Y-108055000D02*
X101950000Y-105695000D01*
%TO.C,S1*%
X151750000Y-104325000D02*
X156250000Y-104325000D01*
X151750000Y-109425000D02*
X156250000Y-109425000D01*
D13*
X158350000Y-108750000D02*
G75*
G03*
X158350000Y-108750000I-100000J0D01*
G01*
D12*
X156550000Y-108055000D02*
X156550000Y-105695000D01*
X151450000Y-105695000D02*
X151450000Y-108055000D01*
D11*
%TO.C,R11*%
X162877500Y-103912258D02*
X162877500Y-103437742D01*
X163922500Y-103912258D02*
X163922500Y-103437742D01*
%TO.C,J11*%
X138670000Y-98330000D02*
X143870000Y-98330000D01*
X138670000Y-72870000D02*
X138670000Y-98330000D01*
X143870000Y-70270000D02*
X143870000Y-98330000D01*
X138670000Y-72870000D02*
X141270000Y-72870000D01*
X141270000Y-72870000D02*
X141270000Y-70270000D01*
X141270000Y-70270000D02*
X143870000Y-70270000D01*
X138670000Y-71600000D02*
X138670000Y-70270000D01*
X138670000Y-70270000D02*
X140000000Y-70270000D01*
%TO.C,U4*%
X158065000Y-83190000D02*
X158790000Y-83190000D01*
X158790000Y-83190000D02*
X158790000Y-83915000D01*
X154295000Y-88410000D02*
X153570000Y-88410000D01*
X153570000Y-88410000D02*
X153570000Y-87685000D01*
X158065000Y-88410000D02*
X158790000Y-88410000D01*
X158790000Y-88410000D02*
X158790000Y-87685000D01*
X154295000Y-83190000D02*
X153570000Y-83190000D01*
%TO.C,U3*%
X119590000Y-89660000D02*
X119590000Y-90950000D01*
X118640000Y-89660000D02*
X119590000Y-89660000D01*
X118640000Y-88710000D02*
X118640000Y-89660000D01*
X118640000Y-79440000D02*
X119590000Y-79440000D01*
X118640000Y-80390000D02*
X118640000Y-79440000D01*
X128860000Y-89660000D02*
X127910000Y-89660000D01*
X128860000Y-88710000D02*
X128860000Y-89660000D01*
X128860000Y-79440000D02*
X127910000Y-79440000D01*
X128860000Y-80390000D02*
X128860000Y-79440000D01*
%TO.C,R26*%
X162777500Y-85087742D02*
X162777500Y-85562258D01*
X163822500Y-85087742D02*
X163822500Y-85562258D01*
%TO.C,R25*%
X165822500Y-85537258D02*
X165822500Y-85062742D01*
X164777500Y-85537258D02*
X164777500Y-85062742D01*
%TO.C,R24*%
X159777500Y-79287742D02*
X159777500Y-79762258D01*
X160822500Y-79287742D02*
X160822500Y-79762258D01*
%TO.C,R23*%
X162822500Y-79762258D02*
X162822500Y-79287742D01*
X161777500Y-79762258D02*
X161777500Y-79287742D01*
%TO.C,C21*%
X149365580Y-91710000D02*
X149084420Y-91710000D01*
X149365580Y-90690000D02*
X149084420Y-90690000D01*
%TO.C,C29*%
X149236252Y-94710000D02*
X147813748Y-94710000D01*
X149236252Y-92890000D02*
X147813748Y-92890000D01*
%TO.C,C8*%
X133490000Y-85636252D02*
X133490000Y-84213748D01*
X135310000Y-85636252D02*
X135310000Y-84213748D01*
%TO.C,C12*%
X111036252Y-91010000D02*
X109613748Y-91010000D01*
X111036252Y-89190000D02*
X109613748Y-89190000D01*
%TO.C,U6*%
X179790000Y-73190000D02*
X179790000Y-74450000D01*
X179790000Y-80010000D02*
X179790000Y-78750000D01*
X183550000Y-73190000D02*
X179790000Y-73190000D01*
X185800000Y-80010000D02*
X179790000Y-80010000D01*
%TO.C,R22*%
X109242742Y-95867500D02*
X109717258Y-95867500D01*
X109242742Y-96912500D02*
X109717258Y-96912500D01*
%TO.C,R21*%
X173022500Y-92187742D02*
X173022500Y-92662258D01*
X171977500Y-92187742D02*
X171977500Y-92662258D01*
%TO.C,R20*%
X174822500Y-92187742D02*
X174822500Y-92662258D01*
X173777500Y-92187742D02*
X173777500Y-92662258D01*
D13*
%TO.C,J10*%
X152100000Y-47600000D02*
G75*
G03*
X152100000Y-47600000I-100000J0D01*
G01*
D12*
X153370000Y-44295000D02*
X153370000Y-43530000D01*
X153370000Y-40050000D02*
X153370000Y-40470000D01*
X144430000Y-40050000D02*
X153370000Y-40050000D01*
X144430000Y-40470000D02*
X144430000Y-40050000D01*
X144430000Y-44295000D02*
X144430000Y-43530000D01*
D11*
%TO.C,C38*%
X105815580Y-96900000D02*
X105534420Y-96900000D01*
X105815580Y-95880000D02*
X105534420Y-95880000D01*
%TO.C,C37*%
X128660000Y-66688748D02*
X128660000Y-68111252D01*
X126840000Y-66688748D02*
X126840000Y-68111252D01*
%TO.C,C36*%
X170010000Y-78813748D02*
X170010000Y-80236252D01*
X168190000Y-78813748D02*
X168190000Y-80236252D01*
%TO.C,C35*%
X174361252Y-78735000D02*
X173838748Y-78735000D01*
X174361252Y-77265000D02*
X173838748Y-77265000D01*
%TO.C,C34*%
X174215139Y-81510000D02*
X173933979Y-81510000D01*
X174215139Y-80490000D02*
X173933979Y-80490000D01*
%TO.C,C33*%
X167935000Y-92188748D02*
X167935000Y-92711252D01*
X166465000Y-92188748D02*
X166465000Y-92711252D01*
%TO.C,C32*%
X161213748Y-93990000D02*
X162636252Y-93990000D01*
X161213748Y-95810000D02*
X162636252Y-95810000D01*
%TO.C,C31*%
X164310000Y-88988748D02*
X164310000Y-90411252D01*
X162490000Y-88988748D02*
X162490000Y-90411252D01*
%TO.C,C30*%
X152888748Y-92890000D02*
X154311252Y-92890000D01*
X152888748Y-94710000D02*
X154311252Y-94710000D01*
%TO.C,C28*%
X170010000Y-92134420D02*
X170010000Y-92415580D01*
X168990000Y-92134420D02*
X168990000Y-92415580D01*
%TO.C,C27*%
X188535000Y-84888748D02*
X188535000Y-85411252D01*
X187065000Y-84888748D02*
X187065000Y-85411252D01*
%TO.C,C26*%
X183234420Y-83640001D02*
X183515580Y-83640001D01*
X183234420Y-84660001D02*
X183515580Y-84660001D01*
%TO.C,C25*%
X183288748Y-88765000D02*
X183811252Y-88765000D01*
X183288748Y-90235000D02*
X183811252Y-90235000D01*
%TO.C,C19*%
X185088748Y-80765000D02*
X185611252Y-80765000D01*
X185088748Y-82235000D02*
X185611252Y-82235000D01*
%TO.C,C15*%
X122911252Y-98810000D02*
X121488748Y-98810000D01*
X122911252Y-96990000D02*
X121488748Y-96990000D01*
%TO.C,C6*%
X113660000Y-83563748D02*
X113660000Y-84986252D01*
X111840000Y-83563748D02*
X111840000Y-84986252D01*
%TO.C,C1*%
X125660000Y-61213748D02*
X125660000Y-62636252D01*
X123840000Y-61213748D02*
X123840000Y-62636252D01*
%TO.C,C20*%
X183234420Y-86640000D02*
X183515580Y-86640000D01*
X183234420Y-87660000D02*
X183515580Y-87660000D01*
%TO.C,Y1*%
X110100000Y-83200000D02*
X110100000Y-77450000D01*
X110100000Y-77450000D02*
X106500000Y-77450000D01*
X106500000Y-77450000D02*
X106500000Y-83200000D01*
%TO.C,U2*%
X116940000Y-57690000D02*
X116940000Y-58950000D01*
X116940000Y-64510000D02*
X116940000Y-63250000D01*
X120700000Y-57690000D02*
X116940000Y-57690000D01*
X122950000Y-64510000D02*
X116940000Y-64510000D01*
%TO.C,U1*%
X156600000Y-63960000D02*
X158550000Y-63960000D01*
X156600000Y-63960000D02*
X154650000Y-63960000D01*
X156600000Y-58840000D02*
X158550000Y-58840000D01*
X156600000Y-58840000D02*
X153150000Y-58840000D01*
%TO.C,R19*%
X155657500Y-79962258D02*
X155657500Y-79487742D01*
X156702500Y-79962258D02*
X156702500Y-79487742D01*
%TO.C,R18*%
X140677500Y-102862258D02*
X140677500Y-102387742D01*
X141722500Y-102862258D02*
X141722500Y-102387742D01*
%TO.C,R17*%
X139077500Y-102862258D02*
X139077500Y-102387742D01*
X140122500Y-102862258D02*
X140122500Y-102387742D01*
%TO.C,R16*%
X137477500Y-102862258D02*
X137477500Y-102387742D01*
X138522500Y-102862258D02*
X138522500Y-102387742D01*
%TO.C,R15*%
X135877500Y-102862258D02*
X135877500Y-102387742D01*
X136922500Y-102862258D02*
X136922500Y-102387742D01*
%TO.C,R14*%
X152522500Y-50087742D02*
X152522500Y-50562258D01*
X151477500Y-50087742D02*
X151477500Y-50562258D01*
%TO.C,R13*%
X146522500Y-50087742D02*
X146522500Y-50562258D01*
X145477500Y-50087742D02*
X145477500Y-50562258D01*
%TO.C,R12*%
X149522500Y-50087742D02*
X149522500Y-50562258D01*
X148477500Y-50087742D02*
X148477500Y-50562258D01*
%TO.C,R10*%
X105387742Y-88977500D02*
X105862258Y-88977500D01*
X105387742Y-90022500D02*
X105862258Y-90022500D01*
%TO.C,R9*%
X164062742Y-63777500D02*
X164537258Y-63777500D01*
X164062742Y-64822500D02*
X164537258Y-64822500D01*
%TO.C,R8*%
X148902742Y-60260834D02*
X149377258Y-60260834D01*
X148902742Y-61305834D02*
X149377258Y-61305834D01*
%TO.C,R7*%
X164062742Y-59977500D02*
X164537258Y-59977500D01*
X164062742Y-61022500D02*
X164537258Y-61022500D01*
%TO.C,R6*%
X149377258Y-63039167D02*
X148902742Y-63039167D01*
X149377258Y-61994167D02*
X148902742Y-61994167D01*
%TO.C,R5*%
X164537258Y-59447500D02*
X164062742Y-59447500D01*
X164537258Y-58402500D02*
X164062742Y-58402500D01*
%TO.C,R4*%
X93587742Y-68477500D02*
X94062258Y-68477500D01*
X93587742Y-69522500D02*
X94062258Y-69522500D01*
%TO.C,R3*%
X175222500Y-72362742D02*
X175222500Y-72837258D01*
X174177500Y-72362742D02*
X174177500Y-72837258D01*
%TO.C,R2*%
X156087742Y-55777500D02*
X156562258Y-55777500D01*
X156087742Y-56822500D02*
X156562258Y-56822500D01*
%TO.C,R1*%
X156562258Y-55222500D02*
X156087742Y-55222500D01*
X156562258Y-54177500D02*
X156087742Y-54177500D01*
%TO.C,J9*%
X115830000Y-102130000D02*
X115830000Y-99470000D01*
X103070000Y-102130000D02*
X115830000Y-102130000D01*
X103070000Y-99470000D02*
X115830000Y-99470000D01*
X103070000Y-102130000D02*
X103070000Y-99470000D01*
X101800000Y-102130000D02*
X100470000Y-102130000D01*
X100470000Y-102130000D02*
X100470000Y-100800000D01*
%TO.C,J8*%
X130710000Y-111130000D02*
X130710000Y-108470000D01*
X112870000Y-111130000D02*
X130710000Y-111130000D01*
X112870000Y-108470000D02*
X130710000Y-108470000D01*
X112870000Y-111130000D02*
X112870000Y-108470000D01*
X111600000Y-111130000D02*
X110270000Y-111130000D01*
X110270000Y-111130000D02*
X110270000Y-109800000D01*
%TO.C,J7*%
X94470000Y-98810000D02*
X97130000Y-98810000D01*
X94470000Y-80970000D02*
X94470000Y-98810000D01*
X97130000Y-80970000D02*
X97130000Y-98810000D01*
X94470000Y-80970000D02*
X97130000Y-80970000D01*
X94470000Y-79700000D02*
X94470000Y-78370000D01*
X94470000Y-78370000D02*
X95800000Y-78370000D01*
%TO.C,J6*%
X95295000Y-43405001D02*
X95295000Y-40405001D01*
X106935000Y-40405001D02*
X95295000Y-40405001D01*
X106935000Y-43405001D02*
X106935000Y-40405001D01*
X105585000Y-67175001D02*
X105585000Y-64255001D01*
X110335000Y-43405001D02*
X106935000Y-43405001D01*
X91895000Y-43405001D02*
X91895000Y-46125001D01*
X110335000Y-43405001D02*
X110335000Y-46125001D01*
X110335000Y-61625001D02*
X110335000Y-64255001D01*
X110335000Y-48925001D02*
X110335000Y-58825001D01*
X91895000Y-58825001D02*
X91895000Y-48925001D01*
X91895000Y-64255001D02*
X91895000Y-61625001D01*
X110335000Y-64255001D02*
X105585000Y-64255001D01*
X105545000Y-67175001D02*
X96645000Y-67175001D01*
X96645000Y-67175001D02*
X96645000Y-64255001D01*
X96645000Y-64255001D02*
X91895000Y-64255001D01*
X95295000Y-43405001D02*
X91895000Y-43405001D01*
%TO.C,J5*%
X172995000Y-43405001D02*
X172995000Y-40405001D01*
X184635000Y-40405001D02*
X172995000Y-40405001D01*
X184635000Y-43405001D02*
X184635000Y-40405001D01*
X183285000Y-67175001D02*
X183285000Y-64255001D01*
X188035000Y-43405001D02*
X184635000Y-43405001D01*
X169595000Y-43405001D02*
X169595000Y-46125001D01*
X188035000Y-43405001D02*
X188035000Y-46125001D01*
X188035000Y-61625001D02*
X188035000Y-64255001D01*
X188035000Y-48925001D02*
X188035000Y-58825001D01*
X169595000Y-58825001D02*
X169595000Y-48925001D01*
X169595000Y-64255001D02*
X169595000Y-61625001D01*
X188035000Y-64255001D02*
X183285000Y-64255001D01*
X183245000Y-67175001D02*
X174345000Y-67175001D01*
X174345000Y-67175001D02*
X174345000Y-64255001D01*
X174345000Y-64255001D02*
X169595000Y-64255001D01*
X172995000Y-43405001D02*
X169595000Y-43405001D01*
%TO.C,J4*%
X133400000Y-54800000D02*
X130800000Y-54800000D01*
X133400000Y-40100000D02*
X133400000Y-54800000D01*
X124200000Y-54800000D02*
X124200000Y-52900000D01*
X126900000Y-54800000D02*
X124200000Y-54800000D01*
X124200000Y-40100000D02*
X133400000Y-40100000D01*
X124200000Y-48900000D02*
X124200000Y-40100000D01*
X133600000Y-53950000D02*
X133600000Y-55000000D01*
X132550000Y-55000000D02*
X133600000Y-55000000D01*
%TO.C,J3*%
X147430000Y-66670000D02*
X147430000Y-69330000D01*
X150030000Y-66670000D02*
X147430000Y-66670000D01*
X150030000Y-69330000D02*
X147430000Y-69330000D01*
X150030000Y-66670000D02*
X150030000Y-69330000D01*
X151300000Y-66670000D02*
X152630000Y-66670000D01*
X152630000Y-66670000D02*
X152630000Y-68000000D01*
%TO.C,J2*%
X170170000Y-73870000D02*
X172830000Y-73870000D01*
X170170000Y-71270000D02*
X170170000Y-73870000D01*
X172830000Y-71270000D02*
X172830000Y-73870000D01*
X170170000Y-71270000D02*
X172830000Y-71270000D01*
X170170000Y-70000000D02*
X170170000Y-68670000D01*
X170170000Y-68670000D02*
X171500000Y-68670000D01*
%TO.C,J1*%
X159870000Y-48470000D02*
X162530000Y-48470000D01*
X159870000Y-45870000D02*
X159870000Y-48470000D01*
X162530000Y-45870000D02*
X162530000Y-48470000D01*
X159870000Y-45870000D02*
X162530000Y-45870000D01*
X159870000Y-44600000D02*
X159870000Y-43270000D01*
X159870000Y-43270000D02*
X161200000Y-43270000D01*
%TO.C,D8*%
X140465000Y-104987500D02*
X140465000Y-107272500D01*
X140465000Y-107272500D02*
X141935000Y-107272500D01*
X141935000Y-107272500D02*
X141935000Y-104987500D01*
%TO.C,D7*%
X138865000Y-104987500D02*
X138865000Y-107272500D01*
X138865000Y-107272500D02*
X140335000Y-107272500D01*
X140335000Y-107272500D02*
X140335000Y-104987500D01*
%TO.C,D6*%
X137265000Y-105000000D02*
X137265000Y-107285000D01*
X137265000Y-107285000D02*
X138735000Y-107285000D01*
X138735000Y-107285000D02*
X138735000Y-105000000D01*
%TO.C,D5*%
X135665000Y-105007500D02*
X135665000Y-107292500D01*
X135665000Y-107292500D02*
X137135000Y-107292500D01*
X137135000Y-107292500D02*
X137135000Y-105007500D01*
%TO.C,D4*%
X165700000Y-73650000D02*
X165700000Y-70350000D01*
X165700000Y-70350000D02*
X160300000Y-70350000D01*
X165700000Y-73650000D02*
X160300000Y-73650000D01*
%TO.C,D3*%
X158900000Y-66550000D02*
X158900000Y-69850000D01*
X158900000Y-69850000D02*
X164300000Y-69850000D01*
X158900000Y-66550000D02*
X164300000Y-66550000D01*
%TO.C,D2*%
X126350000Y-57600000D02*
X126350000Y-60900000D01*
X126350000Y-60900000D02*
X131750000Y-60900000D01*
X126350000Y-57600000D02*
X131750000Y-57600000D01*
%TO.C,D1*%
X126350000Y-61350000D02*
X126350000Y-64650000D01*
X126350000Y-64650000D02*
X131750000Y-64650000D01*
X126350000Y-61350000D02*
X131750000Y-61350000D01*
%TO.C,C24*%
X160710000Y-90859420D02*
X160710000Y-91140580D01*
X159690000Y-90859420D02*
X159690000Y-91140580D01*
%TO.C,C23*%
X160990000Y-85240580D02*
X160990000Y-84959420D01*
X162010000Y-85240580D02*
X162010000Y-84959420D01*
%TO.C,C22*%
X152759420Y-90690000D02*
X153040580Y-90690000D01*
X152759420Y-91710000D02*
X153040580Y-91710000D01*
%TO.C,C18*%
X124010000Y-94234420D02*
X124010000Y-94515580D01*
X122990000Y-94234420D02*
X122990000Y-94515580D01*
%TO.C,C17*%
X179859420Y-80940000D02*
X180140580Y-80940000D01*
X179859420Y-81960000D02*
X180140580Y-81960000D01*
%TO.C,C16*%
X113115580Y-88310000D02*
X112834420Y-88310000D01*
X113115580Y-87290000D02*
X112834420Y-87290000D01*
%TO.C,C14*%
X120634420Y-73590000D02*
X120915580Y-73590000D01*
X120634420Y-74610000D02*
X120915580Y-74610000D01*
%TO.C,C13*%
X104990000Y-82260580D02*
X104990000Y-81979420D01*
X106010000Y-82260580D02*
X106010000Y-81979420D01*
%TO.C,C11*%
X127290000Y-75490580D02*
X127290000Y-75209420D01*
X128310000Y-75490580D02*
X128310000Y-75209420D01*
%TO.C,C10*%
X116010000Y-83434420D02*
X116010000Y-83715580D01*
X114990000Y-83434420D02*
X114990000Y-83715580D01*
%TO.C,C9*%
X106010000Y-78739420D02*
X106010000Y-79020580D01*
X104990000Y-78739420D02*
X104990000Y-79020580D01*
%TO.C,C7*%
X131490000Y-85665580D02*
X131490000Y-85384420D01*
X132510000Y-85665580D02*
X132510000Y-85384420D01*
%TO.C,C5*%
X149181252Y-59535000D02*
X148658748Y-59535000D01*
X149181252Y-58065000D02*
X148658748Y-58065000D01*
%TO.C,C4*%
X164341252Y-63135000D02*
X163818748Y-63135000D01*
X164341252Y-61665000D02*
X163818748Y-61665000D01*
%TO.C,C3*%
X148658748Y-63765000D02*
X149181252Y-63765000D01*
X148658748Y-65235000D02*
X149181252Y-65235000D01*
%TO.C,C2*%
X163818748Y-56365000D02*
X164341252Y-56365000D01*
X163818748Y-57835000D02*
X164341252Y-57835000D01*
%TO.C,U5*%
D10*
X175838095Y-81532380D02*
X175838095Y-82341904D01*
X175885714Y-82437142D01*
X175933333Y-82484761D01*
X176028571Y-82532380D01*
X176219047Y-82532380D01*
X176314285Y-82484761D01*
X176361904Y-82437142D01*
X176409523Y-82341904D01*
X176409523Y-81532380D01*
X177361904Y-81532380D02*
X176885714Y-81532380D01*
X176838095Y-82008571D01*
X176885714Y-81960952D01*
X176980952Y-81913333D01*
X177219047Y-81913333D01*
X177314285Y-81960952D01*
X177361904Y-82008571D01*
X177409523Y-82103809D01*
X177409523Y-82341904D01*
X177361904Y-82437142D01*
X177314285Y-82484761D01*
X177219047Y-82532380D01*
X176980952Y-82532380D01*
X176885714Y-82484761D01*
X176838095Y-82437142D01*
%TO.C,S2*%
X98638095Y-103804761D02*
X98780952Y-103852380D01*
X99019047Y-103852380D01*
X99114285Y-103804761D01*
X99161904Y-103757142D01*
X99209523Y-103661904D01*
X99209523Y-103566666D01*
X99161904Y-103471428D01*
X99114285Y-103423809D01*
X99019047Y-103376190D01*
X98828571Y-103328571D01*
X98733333Y-103280952D01*
X98685714Y-103233333D01*
X98638095Y-103138095D01*
X98638095Y-103042857D01*
X98685714Y-102947619D01*
X98733333Y-102900000D01*
X98828571Y-102852380D01*
X99066666Y-102852380D01*
X99209523Y-102900000D01*
X99590476Y-102947619D02*
X99638095Y-102900000D01*
X99733333Y-102852380D01*
X99971428Y-102852380D01*
X100066666Y-102900000D01*
X100114285Y-102947619D01*
X100161904Y-103042857D01*
X100161904Y-103138095D01*
X100114285Y-103280952D01*
X99542857Y-103852380D01*
X100161904Y-103852380D01*
%TO.C,S1*%
X153238095Y-103804761D02*
X153380952Y-103852380D01*
X153619047Y-103852380D01*
X153714285Y-103804761D01*
X153761904Y-103757142D01*
X153809523Y-103661904D01*
X153809523Y-103566666D01*
X153761904Y-103471428D01*
X153714285Y-103423809D01*
X153619047Y-103376190D01*
X153428571Y-103328571D01*
X153333333Y-103280952D01*
X153285714Y-103233333D01*
X153238095Y-103138095D01*
X153238095Y-103042857D01*
X153285714Y-102947619D01*
X153333333Y-102900000D01*
X153428571Y-102852380D01*
X153666666Y-102852380D01*
X153809523Y-102900000D01*
X154761904Y-103852380D02*
X154190476Y-103852380D01*
X154476190Y-103852380D02*
X154476190Y-102852380D01*
X154380952Y-102995238D01*
X154285714Y-103090476D01*
X154190476Y-103138095D01*
%TO.C,R11*%
X162422380Y-104317857D02*
X161946190Y-104651190D01*
X162422380Y-104889285D02*
X161422380Y-104889285D01*
X161422380Y-104508333D01*
X161470000Y-104413095D01*
X161517619Y-104365476D01*
X161612857Y-104317857D01*
X161755714Y-104317857D01*
X161850952Y-104365476D01*
X161898571Y-104413095D01*
X161946190Y-104508333D01*
X161946190Y-104889285D01*
X162422380Y-103365476D02*
X162422380Y-103936904D01*
X162422380Y-103651190D02*
X161422380Y-103651190D01*
X161565238Y-103746428D01*
X161660476Y-103841666D01*
X161708095Y-103936904D01*
X162422380Y-102413095D02*
X162422380Y-102984523D01*
X162422380Y-102698809D02*
X161422380Y-102698809D01*
X161565238Y-102794047D01*
X161660476Y-102889285D01*
X161708095Y-102984523D01*
%TO.C,J11*%
X140460476Y-68722380D02*
X140460476Y-69436666D01*
X140412857Y-69579523D01*
X140317619Y-69674761D01*
X140174761Y-69722380D01*
X140079523Y-69722380D01*
X141460476Y-69722380D02*
X140889047Y-69722380D01*
X141174761Y-69722380D02*
X141174761Y-68722380D01*
X141079523Y-68865238D01*
X140984285Y-68960476D01*
X140889047Y-69008095D01*
X142412857Y-69722380D02*
X141841428Y-69722380D01*
X142127142Y-69722380D02*
X142127142Y-68722380D01*
X142031904Y-68865238D01*
X141936666Y-68960476D01*
X141841428Y-69008095D01*
%TO.C,U4*%
X155418095Y-81452380D02*
X155418095Y-82261904D01*
X155465714Y-82357142D01*
X155513333Y-82404761D01*
X155608571Y-82452380D01*
X155799047Y-82452380D01*
X155894285Y-82404761D01*
X155941904Y-82357142D01*
X155989523Y-82261904D01*
X155989523Y-81452380D01*
X156894285Y-81785714D02*
X156894285Y-82452380D01*
X156656190Y-81404761D02*
X156418095Y-82119047D01*
X157037142Y-82119047D01*
%TO.C,U3*%
X117038095Y-77952380D02*
X117038095Y-78761904D01*
X117085714Y-78857142D01*
X117133333Y-78904761D01*
X117228571Y-78952380D01*
X117419047Y-78952380D01*
X117514285Y-78904761D01*
X117561904Y-78857142D01*
X117609523Y-78761904D01*
X117609523Y-77952380D01*
X117990476Y-77952380D02*
X118609523Y-77952380D01*
X118276190Y-78333333D01*
X118419047Y-78333333D01*
X118514285Y-78380952D01*
X118561904Y-78428571D01*
X118609523Y-78523809D01*
X118609523Y-78761904D01*
X118561904Y-78857142D01*
X118514285Y-78904761D01*
X118419047Y-78952380D01*
X118133333Y-78952380D01*
X118038095Y-78904761D01*
X117990476Y-78857142D01*
%TO.C,R26*%
X163852380Y-83042857D02*
X163376190Y-83376190D01*
X163852380Y-83614285D02*
X162852380Y-83614285D01*
X162852380Y-83233333D01*
X162900000Y-83138095D01*
X162947619Y-83090476D01*
X163042857Y-83042857D01*
X163185714Y-83042857D01*
X163280952Y-83090476D01*
X163328571Y-83138095D01*
X163376190Y-83233333D01*
X163376190Y-83614285D01*
X162947619Y-82661904D02*
X162900000Y-82614285D01*
X162852380Y-82519047D01*
X162852380Y-82280952D01*
X162900000Y-82185714D01*
X162947619Y-82138095D01*
X163042857Y-82090476D01*
X163138095Y-82090476D01*
X163280952Y-82138095D01*
X163852380Y-82709523D01*
X163852380Y-82090476D01*
X162852380Y-81233333D02*
X162852380Y-81423809D01*
X162900000Y-81519047D01*
X162947619Y-81566666D01*
X163090476Y-81661904D01*
X163280952Y-81709523D01*
X163661904Y-81709523D01*
X163757142Y-81661904D01*
X163804761Y-81614285D01*
X163852380Y-81519047D01*
X163852380Y-81328571D01*
X163804761Y-81233333D01*
X163757142Y-81185714D01*
X163661904Y-81138095D01*
X163423809Y-81138095D01*
X163328571Y-81185714D01*
X163280952Y-81233333D01*
X163233333Y-81328571D01*
X163233333Y-81519047D01*
X163280952Y-81614285D01*
X163328571Y-81661904D01*
X163423809Y-81709523D01*
%TO.C,R25*%
X165752380Y-83042857D02*
X165276190Y-83376190D01*
X165752380Y-83614285D02*
X164752380Y-83614285D01*
X164752380Y-83233333D01*
X164800000Y-83138095D01*
X164847619Y-83090476D01*
X164942857Y-83042857D01*
X165085714Y-83042857D01*
X165180952Y-83090476D01*
X165228571Y-83138095D01*
X165276190Y-83233333D01*
X165276190Y-83614285D01*
X164847619Y-82661904D02*
X164800000Y-82614285D01*
X164752380Y-82519047D01*
X164752380Y-82280952D01*
X164800000Y-82185714D01*
X164847619Y-82138095D01*
X164942857Y-82090476D01*
X165038095Y-82090476D01*
X165180952Y-82138095D01*
X165752380Y-82709523D01*
X165752380Y-82090476D01*
X164752380Y-81185714D02*
X164752380Y-81661904D01*
X165228571Y-81709523D01*
X165180952Y-81661904D01*
X165133333Y-81566666D01*
X165133333Y-81328571D01*
X165180952Y-81233333D01*
X165228571Y-81185714D01*
X165323809Y-81138095D01*
X165561904Y-81138095D01*
X165657142Y-81185714D01*
X165704761Y-81233333D01*
X165752380Y-81328571D01*
X165752380Y-81566666D01*
X165704761Y-81661904D01*
X165657142Y-81709523D01*
%TO.C,R24*%
X160752380Y-77142857D02*
X160276190Y-77476190D01*
X160752380Y-77714285D02*
X159752380Y-77714285D01*
X159752380Y-77333333D01*
X159800000Y-77238095D01*
X159847619Y-77190476D01*
X159942857Y-77142857D01*
X160085714Y-77142857D01*
X160180952Y-77190476D01*
X160228571Y-77238095D01*
X160276190Y-77333333D01*
X160276190Y-77714285D01*
X159847619Y-76761904D02*
X159800000Y-76714285D01*
X159752380Y-76619047D01*
X159752380Y-76380952D01*
X159800000Y-76285714D01*
X159847619Y-76238095D01*
X159942857Y-76190476D01*
X160038095Y-76190476D01*
X160180952Y-76238095D01*
X160752380Y-76809523D01*
X160752380Y-76190476D01*
X160085714Y-75333333D02*
X160752380Y-75333333D01*
X159704761Y-75571428D02*
X160419047Y-75809523D01*
X160419047Y-75190476D01*
%TO.C,R23*%
X162752380Y-77142857D02*
X162276190Y-77476190D01*
X162752380Y-77714285D02*
X161752380Y-77714285D01*
X161752380Y-77333333D01*
X161800000Y-77238095D01*
X161847619Y-77190476D01*
X161942857Y-77142857D01*
X162085714Y-77142857D01*
X162180952Y-77190476D01*
X162228571Y-77238095D01*
X162276190Y-77333333D01*
X162276190Y-77714285D01*
X161847619Y-76761904D02*
X161800000Y-76714285D01*
X161752380Y-76619047D01*
X161752380Y-76380952D01*
X161800000Y-76285714D01*
X161847619Y-76238095D01*
X161942857Y-76190476D01*
X162038095Y-76190476D01*
X162180952Y-76238095D01*
X162752380Y-76809523D01*
X162752380Y-76190476D01*
X161752380Y-75857142D02*
X161752380Y-75238095D01*
X162133333Y-75571428D01*
X162133333Y-75428571D01*
X162180952Y-75333333D01*
X162228571Y-75285714D01*
X162323809Y-75238095D01*
X162561904Y-75238095D01*
X162657142Y-75285714D01*
X162704761Y-75333333D01*
X162752380Y-75428571D01*
X162752380Y-75714285D01*
X162704761Y-75809523D01*
X162657142Y-75857142D01*
%TO.C,C21*%
X145607142Y-91557142D02*
X145559523Y-91604761D01*
X145416666Y-91652380D01*
X145321428Y-91652380D01*
X145178571Y-91604761D01*
X145083333Y-91509523D01*
X145035714Y-91414285D01*
X144988095Y-91223809D01*
X144988095Y-91080952D01*
X145035714Y-90890476D01*
X145083333Y-90795238D01*
X145178571Y-90700000D01*
X145321428Y-90652380D01*
X145416666Y-90652380D01*
X145559523Y-90700000D01*
X145607142Y-90747619D01*
X145988095Y-90747619D02*
X146035714Y-90700000D01*
X146130952Y-90652380D01*
X146369047Y-90652380D01*
X146464285Y-90700000D01*
X146511904Y-90747619D01*
X146559523Y-90842857D01*
X146559523Y-90938095D01*
X146511904Y-91080952D01*
X145940476Y-91652380D01*
X146559523Y-91652380D01*
X147511904Y-91652380D02*
X146940476Y-91652380D01*
X147226190Y-91652380D02*
X147226190Y-90652380D01*
X147130952Y-90795238D01*
X147035714Y-90890476D01*
X146940476Y-90938095D01*
%TO.C,C29*%
X147882142Y-96007142D02*
X147834523Y-96054761D01*
X147691666Y-96102380D01*
X147596428Y-96102380D01*
X147453571Y-96054761D01*
X147358333Y-95959523D01*
X147310714Y-95864285D01*
X147263095Y-95673809D01*
X147263095Y-95530952D01*
X147310714Y-95340476D01*
X147358333Y-95245238D01*
X147453571Y-95150000D01*
X147596428Y-95102380D01*
X147691666Y-95102380D01*
X147834523Y-95150000D01*
X147882142Y-95197619D01*
X148263095Y-95197619D02*
X148310714Y-95150000D01*
X148405952Y-95102380D01*
X148644047Y-95102380D01*
X148739285Y-95150000D01*
X148786904Y-95197619D01*
X148834523Y-95292857D01*
X148834523Y-95388095D01*
X148786904Y-95530952D01*
X148215476Y-96102380D01*
X148834523Y-96102380D01*
X149310714Y-96102380D02*
X149501190Y-96102380D01*
X149596428Y-96054761D01*
X149644047Y-96007142D01*
X149739285Y-95864285D01*
X149786904Y-95673809D01*
X149786904Y-95292857D01*
X149739285Y-95197619D01*
X149691666Y-95150000D01*
X149596428Y-95102380D01*
X149405952Y-95102380D01*
X149310714Y-95150000D01*
X149263095Y-95197619D01*
X149215476Y-95292857D01*
X149215476Y-95530952D01*
X149263095Y-95626190D01*
X149310714Y-95673809D01*
X149405952Y-95721428D01*
X149596428Y-95721428D01*
X149691666Y-95673809D01*
X149739285Y-95626190D01*
X149786904Y-95530952D01*
%TO.C,C8*%
X134757142Y-88566666D02*
X134804761Y-88614285D01*
X134852380Y-88757142D01*
X134852380Y-88852380D01*
X134804761Y-88995238D01*
X134709523Y-89090476D01*
X134614285Y-89138095D01*
X134423809Y-89185714D01*
X134280952Y-89185714D01*
X134090476Y-89138095D01*
X133995238Y-89090476D01*
X133900000Y-88995238D01*
X133852380Y-88852380D01*
X133852380Y-88757142D01*
X133900000Y-88614285D01*
X133947619Y-88566666D01*
X134280952Y-87995238D02*
X134233333Y-88090476D01*
X134185714Y-88138095D01*
X134090476Y-88185714D01*
X134042857Y-88185714D01*
X133947619Y-88138095D01*
X133900000Y-88090476D01*
X133852380Y-87995238D01*
X133852380Y-87804761D01*
X133900000Y-87709523D01*
X133947619Y-87661904D01*
X134042857Y-87614285D01*
X134090476Y-87614285D01*
X134185714Y-87661904D01*
X134233333Y-87709523D01*
X134280952Y-87804761D01*
X134280952Y-87995238D01*
X134328571Y-88090476D01*
X134376190Y-88138095D01*
X134471428Y-88185714D01*
X134661904Y-88185714D01*
X134757142Y-88138095D01*
X134804761Y-88090476D01*
X134852380Y-87995238D01*
X134852380Y-87804761D01*
X134804761Y-87709523D01*
X134757142Y-87661904D01*
X134661904Y-87614285D01*
X134471428Y-87614285D01*
X134376190Y-87661904D01*
X134328571Y-87709523D01*
X134280952Y-87804761D01*
%TO.C,C12*%
X109682142Y-92307142D02*
X109634523Y-92354761D01*
X109491666Y-92402380D01*
X109396428Y-92402380D01*
X109253571Y-92354761D01*
X109158333Y-92259523D01*
X109110714Y-92164285D01*
X109063095Y-91973809D01*
X109063095Y-91830952D01*
X109110714Y-91640476D01*
X109158333Y-91545238D01*
X109253571Y-91450000D01*
X109396428Y-91402380D01*
X109491666Y-91402380D01*
X109634523Y-91450000D01*
X109682142Y-91497619D01*
X110634523Y-92402380D02*
X110063095Y-92402380D01*
X110348809Y-92402380D02*
X110348809Y-91402380D01*
X110253571Y-91545238D01*
X110158333Y-91640476D01*
X110063095Y-91688095D01*
X111015476Y-91497619D02*
X111063095Y-91450000D01*
X111158333Y-91402380D01*
X111396428Y-91402380D01*
X111491666Y-91450000D01*
X111539285Y-91497619D01*
X111586904Y-91592857D01*
X111586904Y-91688095D01*
X111539285Y-91830952D01*
X110967857Y-92402380D01*
X111586904Y-92402380D01*
%TO.C,U6*%
X180938095Y-71652380D02*
X180938095Y-72461904D01*
X180985714Y-72557142D01*
X181033333Y-72604761D01*
X181128571Y-72652380D01*
X181319047Y-72652380D01*
X181414285Y-72604761D01*
X181461904Y-72557142D01*
X181509523Y-72461904D01*
X181509523Y-71652380D01*
X182414285Y-71652380D02*
X182223809Y-71652380D01*
X182128571Y-71700000D01*
X182080952Y-71747619D01*
X181985714Y-71890476D01*
X181938095Y-72080952D01*
X181938095Y-72461904D01*
X181985714Y-72557142D01*
X182033333Y-72604761D01*
X182128571Y-72652380D01*
X182319047Y-72652380D01*
X182414285Y-72604761D01*
X182461904Y-72557142D01*
X182509523Y-72461904D01*
X182509523Y-72223809D01*
X182461904Y-72128571D01*
X182414285Y-72080952D01*
X182319047Y-72033333D01*
X182128571Y-72033333D01*
X182033333Y-72080952D01*
X181985714Y-72128571D01*
X181938095Y-72223809D01*
%TO.C,R22*%
X108837142Y-98252380D02*
X108503809Y-97776190D01*
X108265714Y-98252380D02*
X108265714Y-97252380D01*
X108646666Y-97252380D01*
X108741904Y-97300000D01*
X108789523Y-97347619D01*
X108837142Y-97442857D01*
X108837142Y-97585714D01*
X108789523Y-97680952D01*
X108741904Y-97728571D01*
X108646666Y-97776190D01*
X108265714Y-97776190D01*
X109218095Y-97347619D02*
X109265714Y-97300000D01*
X109360952Y-97252380D01*
X109599047Y-97252380D01*
X109694285Y-97300000D01*
X109741904Y-97347619D01*
X109789523Y-97442857D01*
X109789523Y-97538095D01*
X109741904Y-97680952D01*
X109170476Y-98252380D01*
X109789523Y-98252380D01*
X110170476Y-97347619D02*
X110218095Y-97300000D01*
X110313333Y-97252380D01*
X110551428Y-97252380D01*
X110646666Y-97300000D01*
X110694285Y-97347619D01*
X110741904Y-97442857D01*
X110741904Y-97538095D01*
X110694285Y-97680952D01*
X110122857Y-98252380D01*
X110741904Y-98252380D01*
%TO.C,R21*%
X172952380Y-96042857D02*
X172476190Y-96376190D01*
X172952380Y-96614285D02*
X171952380Y-96614285D01*
X171952380Y-96233333D01*
X172000000Y-96138095D01*
X172047619Y-96090476D01*
X172142857Y-96042857D01*
X172285714Y-96042857D01*
X172380952Y-96090476D01*
X172428571Y-96138095D01*
X172476190Y-96233333D01*
X172476190Y-96614285D01*
X172047619Y-95661904D02*
X172000000Y-95614285D01*
X171952380Y-95519047D01*
X171952380Y-95280952D01*
X172000000Y-95185714D01*
X172047619Y-95138095D01*
X172142857Y-95090476D01*
X172238095Y-95090476D01*
X172380952Y-95138095D01*
X172952380Y-95709523D01*
X172952380Y-95090476D01*
X172952380Y-94138095D02*
X172952380Y-94709523D01*
X172952380Y-94423809D02*
X171952380Y-94423809D01*
X172095238Y-94519047D01*
X172190476Y-94614285D01*
X172238095Y-94709523D01*
%TO.C,R20*%
X174752380Y-96042857D02*
X174276190Y-96376190D01*
X174752380Y-96614285D02*
X173752380Y-96614285D01*
X173752380Y-96233333D01*
X173800000Y-96138095D01*
X173847619Y-96090476D01*
X173942857Y-96042857D01*
X174085714Y-96042857D01*
X174180952Y-96090476D01*
X174228571Y-96138095D01*
X174276190Y-96233333D01*
X174276190Y-96614285D01*
X173847619Y-95661904D02*
X173800000Y-95614285D01*
X173752380Y-95519047D01*
X173752380Y-95280952D01*
X173800000Y-95185714D01*
X173847619Y-95138095D01*
X173942857Y-95090476D01*
X174038095Y-95090476D01*
X174180952Y-95138095D01*
X174752380Y-95709523D01*
X174752380Y-95090476D01*
X173752380Y-94471428D02*
X173752380Y-94376190D01*
X173800000Y-94280952D01*
X173847619Y-94233333D01*
X173942857Y-94185714D01*
X174133333Y-94138095D01*
X174371428Y-94138095D01*
X174561904Y-94185714D01*
X174657142Y-94233333D01*
X174704761Y-94280952D01*
X174752380Y-94376190D01*
X174752380Y-94471428D01*
X174704761Y-94566666D01*
X174657142Y-94614285D01*
X174561904Y-94661904D01*
X174371428Y-94709523D01*
X174133333Y-94709523D01*
X173942857Y-94661904D01*
X173847619Y-94614285D01*
X173800000Y-94566666D01*
X173752380Y-94471428D01*
%TO.C,J10*%
X141590476Y-46252380D02*
X141590476Y-46966666D01*
X141542857Y-47109523D01*
X141447619Y-47204761D01*
X141304761Y-47252380D01*
X141209523Y-47252380D01*
X142590476Y-47252380D02*
X142019047Y-47252380D01*
X142304761Y-47252380D02*
X142304761Y-46252380D01*
X142209523Y-46395238D01*
X142114285Y-46490476D01*
X142019047Y-46538095D01*
X143209523Y-46252380D02*
X143304761Y-46252380D01*
X143400000Y-46300000D01*
X143447619Y-46347619D01*
X143495238Y-46442857D01*
X143542857Y-46633333D01*
X143542857Y-46871428D01*
X143495238Y-47061904D01*
X143447619Y-47157142D01*
X143400000Y-47204761D01*
X143304761Y-47252380D01*
X143209523Y-47252380D01*
X143114285Y-47204761D01*
X143066666Y-47157142D01*
X143019047Y-47061904D01*
X142971428Y-46871428D01*
X142971428Y-46633333D01*
X143019047Y-46442857D01*
X143066666Y-46347619D01*
X143114285Y-46300000D01*
X143209523Y-46252380D01*
%TO.C,C38*%
X105032142Y-98157142D02*
X104984523Y-98204761D01*
X104841666Y-98252380D01*
X104746428Y-98252380D01*
X104603571Y-98204761D01*
X104508333Y-98109523D01*
X104460714Y-98014285D01*
X104413095Y-97823809D01*
X104413095Y-97680952D01*
X104460714Y-97490476D01*
X104508333Y-97395238D01*
X104603571Y-97300000D01*
X104746428Y-97252380D01*
X104841666Y-97252380D01*
X104984523Y-97300000D01*
X105032142Y-97347619D01*
X105365476Y-97252380D02*
X105984523Y-97252380D01*
X105651190Y-97633333D01*
X105794047Y-97633333D01*
X105889285Y-97680952D01*
X105936904Y-97728571D01*
X105984523Y-97823809D01*
X105984523Y-98061904D01*
X105936904Y-98157142D01*
X105889285Y-98204761D01*
X105794047Y-98252380D01*
X105508333Y-98252380D01*
X105413095Y-98204761D01*
X105365476Y-98157142D01*
X106555952Y-97680952D02*
X106460714Y-97633333D01*
X106413095Y-97585714D01*
X106365476Y-97490476D01*
X106365476Y-97442857D01*
X106413095Y-97347619D01*
X106460714Y-97300000D01*
X106555952Y-97252380D01*
X106746428Y-97252380D01*
X106841666Y-97300000D01*
X106889285Y-97347619D01*
X106936904Y-97442857D01*
X106936904Y-97490476D01*
X106889285Y-97585714D01*
X106841666Y-97633333D01*
X106746428Y-97680952D01*
X106555952Y-97680952D01*
X106460714Y-97728571D01*
X106413095Y-97776190D01*
X106365476Y-97871428D01*
X106365476Y-98061904D01*
X106413095Y-98157142D01*
X106460714Y-98204761D01*
X106555952Y-98252380D01*
X106746428Y-98252380D01*
X106841666Y-98204761D01*
X106889285Y-98157142D01*
X106936904Y-98061904D01*
X106936904Y-97871428D01*
X106889285Y-97776190D01*
X106841666Y-97728571D01*
X106746428Y-97680952D01*
%TO.C,C37*%
X129957142Y-68042857D02*
X130004761Y-68090476D01*
X130052380Y-68233333D01*
X130052380Y-68328571D01*
X130004761Y-68471428D01*
X129909523Y-68566666D01*
X129814285Y-68614285D01*
X129623809Y-68661904D01*
X129480952Y-68661904D01*
X129290476Y-68614285D01*
X129195238Y-68566666D01*
X129100000Y-68471428D01*
X129052380Y-68328571D01*
X129052380Y-68233333D01*
X129100000Y-68090476D01*
X129147619Y-68042857D01*
X129052380Y-67709523D02*
X129052380Y-67090476D01*
X129433333Y-67423809D01*
X129433333Y-67280952D01*
X129480952Y-67185714D01*
X129528571Y-67138095D01*
X129623809Y-67090476D01*
X129861904Y-67090476D01*
X129957142Y-67138095D01*
X130004761Y-67185714D01*
X130052380Y-67280952D01*
X130052380Y-67566666D01*
X130004761Y-67661904D01*
X129957142Y-67709523D01*
X129052380Y-66757142D02*
X129052380Y-66090476D01*
X130052380Y-66519047D01*
%TO.C,C36*%
X171307142Y-80167857D02*
X171354761Y-80215476D01*
X171402380Y-80358333D01*
X171402380Y-80453571D01*
X171354761Y-80596428D01*
X171259523Y-80691666D01*
X171164285Y-80739285D01*
X170973809Y-80786904D01*
X170830952Y-80786904D01*
X170640476Y-80739285D01*
X170545238Y-80691666D01*
X170450000Y-80596428D01*
X170402380Y-80453571D01*
X170402380Y-80358333D01*
X170450000Y-80215476D01*
X170497619Y-80167857D01*
X170402380Y-79834523D02*
X170402380Y-79215476D01*
X170783333Y-79548809D01*
X170783333Y-79405952D01*
X170830952Y-79310714D01*
X170878571Y-79263095D01*
X170973809Y-79215476D01*
X171211904Y-79215476D01*
X171307142Y-79263095D01*
X171354761Y-79310714D01*
X171402380Y-79405952D01*
X171402380Y-79691666D01*
X171354761Y-79786904D01*
X171307142Y-79834523D01*
X170402380Y-78358333D02*
X170402380Y-78548809D01*
X170450000Y-78644047D01*
X170497619Y-78691666D01*
X170640476Y-78786904D01*
X170830952Y-78834523D01*
X171211904Y-78834523D01*
X171307142Y-78786904D01*
X171354761Y-78739285D01*
X171402380Y-78644047D01*
X171402380Y-78453571D01*
X171354761Y-78358333D01*
X171307142Y-78310714D01*
X171211904Y-78263095D01*
X170973809Y-78263095D01*
X170878571Y-78310714D01*
X170830952Y-78358333D01*
X170783333Y-78453571D01*
X170783333Y-78644047D01*
X170830952Y-78739285D01*
X170878571Y-78786904D01*
X170973809Y-78834523D01*
%TO.C,C35*%
X173457142Y-76757142D02*
X173409523Y-76804761D01*
X173266666Y-76852380D01*
X173171428Y-76852380D01*
X173028571Y-76804761D01*
X172933333Y-76709523D01*
X172885714Y-76614285D01*
X172838095Y-76423809D01*
X172838095Y-76280952D01*
X172885714Y-76090476D01*
X172933333Y-75995238D01*
X173028571Y-75900000D01*
X173171428Y-75852380D01*
X173266666Y-75852380D01*
X173409523Y-75900000D01*
X173457142Y-75947619D01*
X173790476Y-75852380D02*
X174409523Y-75852380D01*
X174076190Y-76233333D01*
X174219047Y-76233333D01*
X174314285Y-76280952D01*
X174361904Y-76328571D01*
X174409523Y-76423809D01*
X174409523Y-76661904D01*
X174361904Y-76757142D01*
X174314285Y-76804761D01*
X174219047Y-76852380D01*
X173933333Y-76852380D01*
X173838095Y-76804761D01*
X173790476Y-76757142D01*
X175314285Y-75852380D02*
X174838095Y-75852380D01*
X174790476Y-76328571D01*
X174838095Y-76280952D01*
X174933333Y-76233333D01*
X175171428Y-76233333D01*
X175266666Y-76280952D01*
X175314285Y-76328571D01*
X175361904Y-76423809D01*
X175361904Y-76661904D01*
X175314285Y-76757142D01*
X175266666Y-76804761D01*
X175171428Y-76852380D01*
X174933333Y-76852380D01*
X174838095Y-76804761D01*
X174790476Y-76757142D01*
%TO.C,C34*%
X173357142Y-80057142D02*
X173309523Y-80104761D01*
X173166666Y-80152380D01*
X173071428Y-80152380D01*
X172928571Y-80104761D01*
X172833333Y-80009523D01*
X172785714Y-79914285D01*
X172738095Y-79723809D01*
X172738095Y-79580952D01*
X172785714Y-79390476D01*
X172833333Y-79295238D01*
X172928571Y-79200000D01*
X173071428Y-79152380D01*
X173166666Y-79152380D01*
X173309523Y-79200000D01*
X173357142Y-79247619D01*
X173690476Y-79152380D02*
X174309523Y-79152380D01*
X173976190Y-79533333D01*
X174119047Y-79533333D01*
X174214285Y-79580952D01*
X174261904Y-79628571D01*
X174309523Y-79723809D01*
X174309523Y-79961904D01*
X174261904Y-80057142D01*
X174214285Y-80104761D01*
X174119047Y-80152380D01*
X173833333Y-80152380D01*
X173738095Y-80104761D01*
X173690476Y-80057142D01*
X175166666Y-79485714D02*
X175166666Y-80152380D01*
X174928571Y-79104761D02*
X174690476Y-79819047D01*
X175309523Y-79819047D01*
%TO.C,C33*%
X167557142Y-96342857D02*
X167604761Y-96390476D01*
X167652380Y-96533333D01*
X167652380Y-96628571D01*
X167604761Y-96771428D01*
X167509523Y-96866666D01*
X167414285Y-96914285D01*
X167223809Y-96961904D01*
X167080952Y-96961904D01*
X166890476Y-96914285D01*
X166795238Y-96866666D01*
X166700000Y-96771428D01*
X166652380Y-96628571D01*
X166652380Y-96533333D01*
X166700000Y-96390476D01*
X166747619Y-96342857D01*
X166652380Y-96009523D02*
X166652380Y-95390476D01*
X167033333Y-95723809D01*
X167033333Y-95580952D01*
X167080952Y-95485714D01*
X167128571Y-95438095D01*
X167223809Y-95390476D01*
X167461904Y-95390476D01*
X167557142Y-95438095D01*
X167604761Y-95485714D01*
X167652380Y-95580952D01*
X167652380Y-95866666D01*
X167604761Y-95961904D01*
X167557142Y-96009523D01*
X166652380Y-95057142D02*
X166652380Y-94438095D01*
X167033333Y-94771428D01*
X167033333Y-94628571D01*
X167080952Y-94533333D01*
X167128571Y-94485714D01*
X167223809Y-94438095D01*
X167461904Y-94438095D01*
X167557142Y-94485714D01*
X167604761Y-94533333D01*
X167652380Y-94628571D01*
X167652380Y-94914285D01*
X167604761Y-95009523D01*
X167557142Y-95057142D01*
%TO.C,C32*%
X161282142Y-97157142D02*
X161234523Y-97204761D01*
X161091666Y-97252380D01*
X160996428Y-97252380D01*
X160853571Y-97204761D01*
X160758333Y-97109523D01*
X160710714Y-97014285D01*
X160663095Y-96823809D01*
X160663095Y-96680952D01*
X160710714Y-96490476D01*
X160758333Y-96395238D01*
X160853571Y-96300000D01*
X160996428Y-96252380D01*
X161091666Y-96252380D01*
X161234523Y-96300000D01*
X161282142Y-96347619D01*
X161615476Y-96252380D02*
X162234523Y-96252380D01*
X161901190Y-96633333D01*
X162044047Y-96633333D01*
X162139285Y-96680952D01*
X162186904Y-96728571D01*
X162234523Y-96823809D01*
X162234523Y-97061904D01*
X162186904Y-97157142D01*
X162139285Y-97204761D01*
X162044047Y-97252380D01*
X161758333Y-97252380D01*
X161663095Y-97204761D01*
X161615476Y-97157142D01*
X162615476Y-96347619D02*
X162663095Y-96300000D01*
X162758333Y-96252380D01*
X162996428Y-96252380D01*
X163091666Y-96300000D01*
X163139285Y-96347619D01*
X163186904Y-96442857D01*
X163186904Y-96538095D01*
X163139285Y-96680952D01*
X162567857Y-97252380D01*
X163186904Y-97252380D01*
%TO.C,C31*%
X165607142Y-90342857D02*
X165654761Y-90390476D01*
X165702380Y-90533333D01*
X165702380Y-90628571D01*
X165654761Y-90771428D01*
X165559523Y-90866666D01*
X165464285Y-90914285D01*
X165273809Y-90961904D01*
X165130952Y-90961904D01*
X164940476Y-90914285D01*
X164845238Y-90866666D01*
X164750000Y-90771428D01*
X164702380Y-90628571D01*
X164702380Y-90533333D01*
X164750000Y-90390476D01*
X164797619Y-90342857D01*
X164702380Y-90009523D02*
X164702380Y-89390476D01*
X165083333Y-89723809D01*
X165083333Y-89580952D01*
X165130952Y-89485714D01*
X165178571Y-89438095D01*
X165273809Y-89390476D01*
X165511904Y-89390476D01*
X165607142Y-89438095D01*
X165654761Y-89485714D01*
X165702380Y-89580952D01*
X165702380Y-89866666D01*
X165654761Y-89961904D01*
X165607142Y-90009523D01*
X165702380Y-88438095D02*
X165702380Y-89009523D01*
X165702380Y-88723809D02*
X164702380Y-88723809D01*
X164845238Y-88819047D01*
X164940476Y-88914285D01*
X164988095Y-89009523D01*
%TO.C,C30*%
X152957142Y-96007142D02*
X152909523Y-96054761D01*
X152766666Y-96102380D01*
X152671428Y-96102380D01*
X152528571Y-96054761D01*
X152433333Y-95959523D01*
X152385714Y-95864285D01*
X152338095Y-95673809D01*
X152338095Y-95530952D01*
X152385714Y-95340476D01*
X152433333Y-95245238D01*
X152528571Y-95150000D01*
X152671428Y-95102380D01*
X152766666Y-95102380D01*
X152909523Y-95150000D01*
X152957142Y-95197619D01*
X153290476Y-95102380D02*
X153909523Y-95102380D01*
X153576190Y-95483333D01*
X153719047Y-95483333D01*
X153814285Y-95530952D01*
X153861904Y-95578571D01*
X153909523Y-95673809D01*
X153909523Y-95911904D01*
X153861904Y-96007142D01*
X153814285Y-96054761D01*
X153719047Y-96102380D01*
X153433333Y-96102380D01*
X153338095Y-96054761D01*
X153290476Y-96007142D01*
X154528571Y-95102380D02*
X154623809Y-95102380D01*
X154719047Y-95150000D01*
X154766666Y-95197619D01*
X154814285Y-95292857D01*
X154861904Y-95483333D01*
X154861904Y-95721428D01*
X154814285Y-95911904D01*
X154766666Y-96007142D01*
X154719047Y-96054761D01*
X154623809Y-96102380D01*
X154528571Y-96102380D01*
X154433333Y-96054761D01*
X154385714Y-96007142D01*
X154338095Y-95911904D01*
X154290476Y-95721428D01*
X154290476Y-95483333D01*
X154338095Y-95292857D01*
X154385714Y-95197619D01*
X154433333Y-95150000D01*
X154528571Y-95102380D01*
%TO.C,C28*%
X169857142Y-96242857D02*
X169904761Y-96290476D01*
X169952380Y-96433333D01*
X169952380Y-96528571D01*
X169904761Y-96671428D01*
X169809523Y-96766666D01*
X169714285Y-96814285D01*
X169523809Y-96861904D01*
X169380952Y-96861904D01*
X169190476Y-96814285D01*
X169095238Y-96766666D01*
X169000000Y-96671428D01*
X168952380Y-96528571D01*
X168952380Y-96433333D01*
X169000000Y-96290476D01*
X169047619Y-96242857D01*
X169047619Y-95861904D02*
X169000000Y-95814285D01*
X168952380Y-95719047D01*
X168952380Y-95480952D01*
X169000000Y-95385714D01*
X169047619Y-95338095D01*
X169142857Y-95290476D01*
X169238095Y-95290476D01*
X169380952Y-95338095D01*
X169952380Y-95909523D01*
X169952380Y-95290476D01*
X169380952Y-94719047D02*
X169333333Y-94814285D01*
X169285714Y-94861904D01*
X169190476Y-94909523D01*
X169142857Y-94909523D01*
X169047619Y-94861904D01*
X169000000Y-94814285D01*
X168952380Y-94719047D01*
X168952380Y-94528571D01*
X169000000Y-94433333D01*
X169047619Y-94385714D01*
X169142857Y-94338095D01*
X169190476Y-94338095D01*
X169285714Y-94385714D01*
X169333333Y-94433333D01*
X169380952Y-94528571D01*
X169380952Y-94719047D01*
X169428571Y-94814285D01*
X169476190Y-94861904D01*
X169571428Y-94909523D01*
X169761904Y-94909523D01*
X169857142Y-94861904D01*
X169904761Y-94814285D01*
X169952380Y-94719047D01*
X169952380Y-94528571D01*
X169904761Y-94433333D01*
X169857142Y-94385714D01*
X169761904Y-94338095D01*
X169571428Y-94338095D01*
X169476190Y-94385714D01*
X169428571Y-94433333D01*
X169380952Y-94528571D01*
%TO.C,C27*%
X188157142Y-89642857D02*
X188204761Y-89690476D01*
X188252380Y-89833333D01*
X188252380Y-89928571D01*
X188204761Y-90071428D01*
X188109523Y-90166666D01*
X188014285Y-90214285D01*
X187823809Y-90261904D01*
X187680952Y-90261904D01*
X187490476Y-90214285D01*
X187395238Y-90166666D01*
X187300000Y-90071428D01*
X187252380Y-89928571D01*
X187252380Y-89833333D01*
X187300000Y-89690476D01*
X187347619Y-89642857D01*
X187347619Y-89261904D02*
X187300000Y-89214285D01*
X187252380Y-89119047D01*
X187252380Y-88880952D01*
X187300000Y-88785714D01*
X187347619Y-88738095D01*
X187442857Y-88690476D01*
X187538095Y-88690476D01*
X187680952Y-88738095D01*
X188252380Y-89309523D01*
X188252380Y-88690476D01*
X187252380Y-88357142D02*
X187252380Y-87690476D01*
X188252380Y-88119047D01*
%TO.C,C26*%
X181457142Y-83157142D02*
X181409523Y-83204761D01*
X181266666Y-83252380D01*
X181171428Y-83252380D01*
X181028571Y-83204761D01*
X180933333Y-83109523D01*
X180885714Y-83014285D01*
X180838095Y-82823809D01*
X180838095Y-82680952D01*
X180885714Y-82490476D01*
X180933333Y-82395238D01*
X181028571Y-82300000D01*
X181171428Y-82252380D01*
X181266666Y-82252380D01*
X181409523Y-82300000D01*
X181457142Y-82347619D01*
X181838095Y-82347619D02*
X181885714Y-82300000D01*
X181980952Y-82252380D01*
X182219047Y-82252380D01*
X182314285Y-82300000D01*
X182361904Y-82347619D01*
X182409523Y-82442857D01*
X182409523Y-82538095D01*
X182361904Y-82680952D01*
X181790476Y-83252380D01*
X182409523Y-83252380D01*
X183266666Y-82252380D02*
X183076190Y-82252380D01*
X182980952Y-82300000D01*
X182933333Y-82347619D01*
X182838095Y-82490476D01*
X182790476Y-82680952D01*
X182790476Y-83061904D01*
X182838095Y-83157142D01*
X182885714Y-83204761D01*
X182980952Y-83252380D01*
X183171428Y-83252380D01*
X183266666Y-83204761D01*
X183314285Y-83157142D01*
X183361904Y-83061904D01*
X183361904Y-82823809D01*
X183314285Y-82728571D01*
X183266666Y-82680952D01*
X183171428Y-82633333D01*
X182980952Y-82633333D01*
X182885714Y-82680952D01*
X182838095Y-82728571D01*
X182790476Y-82823809D01*
%TO.C,C25*%
X182907142Y-91557142D02*
X182859523Y-91604761D01*
X182716666Y-91652380D01*
X182621428Y-91652380D01*
X182478571Y-91604761D01*
X182383333Y-91509523D01*
X182335714Y-91414285D01*
X182288095Y-91223809D01*
X182288095Y-91080952D01*
X182335714Y-90890476D01*
X182383333Y-90795238D01*
X182478571Y-90700000D01*
X182621428Y-90652380D01*
X182716666Y-90652380D01*
X182859523Y-90700000D01*
X182907142Y-90747619D01*
X183288095Y-90747619D02*
X183335714Y-90700000D01*
X183430952Y-90652380D01*
X183669047Y-90652380D01*
X183764285Y-90700000D01*
X183811904Y-90747619D01*
X183859523Y-90842857D01*
X183859523Y-90938095D01*
X183811904Y-91080952D01*
X183240476Y-91652380D01*
X183859523Y-91652380D01*
X184764285Y-90652380D02*
X184288095Y-90652380D01*
X184240476Y-91128571D01*
X184288095Y-91080952D01*
X184383333Y-91033333D01*
X184621428Y-91033333D01*
X184716666Y-91080952D01*
X184764285Y-91128571D01*
X184811904Y-91223809D01*
X184811904Y-91461904D01*
X184764285Y-91557142D01*
X184716666Y-91604761D01*
X184621428Y-91652380D01*
X184383333Y-91652380D01*
X184288095Y-91604761D01*
X184240476Y-91557142D01*
%TO.C,C19*%
X187857142Y-81757142D02*
X187809523Y-81804761D01*
X187666666Y-81852380D01*
X187571428Y-81852380D01*
X187428571Y-81804761D01*
X187333333Y-81709523D01*
X187285714Y-81614285D01*
X187238095Y-81423809D01*
X187238095Y-81280952D01*
X187285714Y-81090476D01*
X187333333Y-80995238D01*
X187428571Y-80900000D01*
X187571428Y-80852380D01*
X187666666Y-80852380D01*
X187809523Y-80900000D01*
X187857142Y-80947619D01*
X188809523Y-81852380D02*
X188238095Y-81852380D01*
X188523809Y-81852380D02*
X188523809Y-80852380D01*
X188428571Y-80995238D01*
X188333333Y-81090476D01*
X188238095Y-81138095D01*
X189285714Y-81852380D02*
X189476190Y-81852380D01*
X189571428Y-81804761D01*
X189619047Y-81757142D01*
X189714285Y-81614285D01*
X189761904Y-81423809D01*
X189761904Y-81042857D01*
X189714285Y-80947619D01*
X189666666Y-80900000D01*
X189571428Y-80852380D01*
X189380952Y-80852380D01*
X189285714Y-80900000D01*
X189238095Y-80947619D01*
X189190476Y-81042857D01*
X189190476Y-81280952D01*
X189238095Y-81376190D01*
X189285714Y-81423809D01*
X189380952Y-81471428D01*
X189571428Y-81471428D01*
X189666666Y-81423809D01*
X189714285Y-81376190D01*
X189761904Y-81280952D01*
%TO.C,C15*%
X121557142Y-100107142D02*
X121509523Y-100154761D01*
X121366666Y-100202380D01*
X121271428Y-100202380D01*
X121128571Y-100154761D01*
X121033333Y-100059523D01*
X120985714Y-99964285D01*
X120938095Y-99773809D01*
X120938095Y-99630952D01*
X120985714Y-99440476D01*
X121033333Y-99345238D01*
X121128571Y-99250000D01*
X121271428Y-99202380D01*
X121366666Y-99202380D01*
X121509523Y-99250000D01*
X121557142Y-99297619D01*
X122509523Y-100202380D02*
X121938095Y-100202380D01*
X122223809Y-100202380D02*
X122223809Y-99202380D01*
X122128571Y-99345238D01*
X122033333Y-99440476D01*
X121938095Y-99488095D01*
X123414285Y-99202380D02*
X122938095Y-99202380D01*
X122890476Y-99678571D01*
X122938095Y-99630952D01*
X123033333Y-99583333D01*
X123271428Y-99583333D01*
X123366666Y-99630952D01*
X123414285Y-99678571D01*
X123461904Y-99773809D01*
X123461904Y-100011904D01*
X123414285Y-100107142D01*
X123366666Y-100154761D01*
X123271428Y-100202380D01*
X123033333Y-100202380D01*
X122938095Y-100154761D01*
X122890476Y-100107142D01*
%TO.C,C6*%
X113157142Y-81166666D02*
X113204761Y-81214285D01*
X113252380Y-81357142D01*
X113252380Y-81452380D01*
X113204761Y-81595238D01*
X113109523Y-81690476D01*
X113014285Y-81738095D01*
X112823809Y-81785714D01*
X112680952Y-81785714D01*
X112490476Y-81738095D01*
X112395238Y-81690476D01*
X112300000Y-81595238D01*
X112252380Y-81452380D01*
X112252380Y-81357142D01*
X112300000Y-81214285D01*
X112347619Y-81166666D01*
X112252380Y-80309523D02*
X112252380Y-80500000D01*
X112300000Y-80595238D01*
X112347619Y-80642857D01*
X112490476Y-80738095D01*
X112680952Y-80785714D01*
X113061904Y-80785714D01*
X113157142Y-80738095D01*
X113204761Y-80690476D01*
X113252380Y-80595238D01*
X113252380Y-80404761D01*
X113204761Y-80309523D01*
X113157142Y-80261904D01*
X113061904Y-80214285D01*
X112823809Y-80214285D01*
X112728571Y-80261904D01*
X112680952Y-80309523D01*
X112633333Y-80404761D01*
X112633333Y-80595238D01*
X112680952Y-80690476D01*
X112728571Y-80738095D01*
X112823809Y-80785714D01*
%TO.C,C1*%
X125057142Y-58766666D02*
X125104761Y-58814285D01*
X125152380Y-58957142D01*
X125152380Y-59052380D01*
X125104761Y-59195238D01*
X125009523Y-59290476D01*
X124914285Y-59338095D01*
X124723809Y-59385714D01*
X124580952Y-59385714D01*
X124390476Y-59338095D01*
X124295238Y-59290476D01*
X124200000Y-59195238D01*
X124152380Y-59052380D01*
X124152380Y-58957142D01*
X124200000Y-58814285D01*
X124247619Y-58766666D01*
X125152380Y-57814285D02*
X125152380Y-58385714D01*
X125152380Y-58100000D02*
X124152380Y-58100000D01*
X124295238Y-58195238D01*
X124390476Y-58290476D01*
X124438095Y-58385714D01*
%TO.C,C20*%
X182757142Y-86057142D02*
X182709523Y-86104761D01*
X182566666Y-86152380D01*
X182471428Y-86152380D01*
X182328571Y-86104761D01*
X182233333Y-86009523D01*
X182185714Y-85914285D01*
X182138095Y-85723809D01*
X182138095Y-85580952D01*
X182185714Y-85390476D01*
X182233333Y-85295238D01*
X182328571Y-85200000D01*
X182471428Y-85152380D01*
X182566666Y-85152380D01*
X182709523Y-85200000D01*
X182757142Y-85247619D01*
X183138095Y-85247619D02*
X183185714Y-85200000D01*
X183280952Y-85152380D01*
X183519047Y-85152380D01*
X183614285Y-85200000D01*
X183661904Y-85247619D01*
X183709523Y-85342857D01*
X183709523Y-85438095D01*
X183661904Y-85580952D01*
X183090476Y-86152380D01*
X183709523Y-86152380D01*
X184328571Y-85152380D02*
X184423809Y-85152380D01*
X184519047Y-85200000D01*
X184566666Y-85247619D01*
X184614285Y-85342857D01*
X184661904Y-85533333D01*
X184661904Y-85771428D01*
X184614285Y-85961904D01*
X184566666Y-86057142D01*
X184519047Y-86104761D01*
X184423809Y-86152380D01*
X184328571Y-86152380D01*
X184233333Y-86104761D01*
X184185714Y-86057142D01*
X184138095Y-85961904D01*
X184090476Y-85771428D01*
X184090476Y-85533333D01*
X184138095Y-85342857D01*
X184185714Y-85247619D01*
X184233333Y-85200000D01*
X184328571Y-85152380D01*
%TO.C,Y1*%
X107823809Y-76676190D02*
X107823809Y-77152380D01*
X107490476Y-76152380D02*
X107823809Y-76676190D01*
X108157142Y-76152380D01*
X109014285Y-77152380D02*
X108442857Y-77152380D01*
X108728571Y-77152380D02*
X108728571Y-76152380D01*
X108633333Y-76295238D01*
X108538095Y-76390476D01*
X108442857Y-76438095D01*
%TO.C,U2*%
X118088095Y-65052380D02*
X118088095Y-65861904D01*
X118135714Y-65957142D01*
X118183333Y-66004761D01*
X118278571Y-66052380D01*
X118469047Y-66052380D01*
X118564285Y-66004761D01*
X118611904Y-65957142D01*
X118659523Y-65861904D01*
X118659523Y-65052380D01*
X119088095Y-65147619D02*
X119135714Y-65100000D01*
X119230952Y-65052380D01*
X119469047Y-65052380D01*
X119564285Y-65100000D01*
X119611904Y-65147619D01*
X119659523Y-65242857D01*
X119659523Y-65338095D01*
X119611904Y-65480952D01*
X119040476Y-66052380D01*
X119659523Y-66052380D01*
%TO.C,U1*%
X155838095Y-57452380D02*
X155838095Y-58261904D01*
X155885714Y-58357142D01*
X155933333Y-58404761D01*
X156028571Y-58452380D01*
X156219047Y-58452380D01*
X156314285Y-58404761D01*
X156361904Y-58357142D01*
X156409523Y-58261904D01*
X156409523Y-57452380D01*
X157409523Y-58452380D02*
X156838095Y-58452380D01*
X157123809Y-58452380D02*
X157123809Y-57452380D01*
X157028571Y-57595238D01*
X156933333Y-57690476D01*
X156838095Y-57738095D01*
%TO.C,R19*%
X155202380Y-80367857D02*
X154726190Y-80701190D01*
X155202380Y-80939285D02*
X154202380Y-80939285D01*
X154202380Y-80558333D01*
X154250000Y-80463095D01*
X154297619Y-80415476D01*
X154392857Y-80367857D01*
X154535714Y-80367857D01*
X154630952Y-80415476D01*
X154678571Y-80463095D01*
X154726190Y-80558333D01*
X154726190Y-80939285D01*
X155202380Y-79415476D02*
X155202380Y-79986904D01*
X155202380Y-79701190D02*
X154202380Y-79701190D01*
X154345238Y-79796428D01*
X154440476Y-79891666D01*
X154488095Y-79986904D01*
X155202380Y-78939285D02*
X155202380Y-78748809D01*
X155154761Y-78653571D01*
X155107142Y-78605952D01*
X154964285Y-78510714D01*
X154773809Y-78463095D01*
X154392857Y-78463095D01*
X154297619Y-78510714D01*
X154250000Y-78558333D01*
X154202380Y-78653571D01*
X154202380Y-78844047D01*
X154250000Y-78939285D01*
X154297619Y-78986904D01*
X154392857Y-79034523D01*
X154630952Y-79034523D01*
X154726190Y-78986904D01*
X154773809Y-78939285D01*
X154821428Y-78844047D01*
X154821428Y-78653571D01*
X154773809Y-78558333D01*
X154726190Y-78510714D01*
X154630952Y-78463095D01*
%TO.C,R18*%
X144852380Y-103267857D02*
X144376190Y-103601190D01*
X144852380Y-103839285D02*
X143852380Y-103839285D01*
X143852380Y-103458333D01*
X143900000Y-103363095D01*
X143947619Y-103315476D01*
X144042857Y-103267857D01*
X144185714Y-103267857D01*
X144280952Y-103315476D01*
X144328571Y-103363095D01*
X144376190Y-103458333D01*
X144376190Y-103839285D01*
X144852380Y-102315476D02*
X144852380Y-102886904D01*
X144852380Y-102601190D02*
X143852380Y-102601190D01*
X143995238Y-102696428D01*
X144090476Y-102791666D01*
X144138095Y-102886904D01*
X144280952Y-101744047D02*
X144233333Y-101839285D01*
X144185714Y-101886904D01*
X144090476Y-101934523D01*
X144042857Y-101934523D01*
X143947619Y-101886904D01*
X143900000Y-101839285D01*
X143852380Y-101744047D01*
X143852380Y-101553571D01*
X143900000Y-101458333D01*
X143947619Y-101410714D01*
X144042857Y-101363095D01*
X144090476Y-101363095D01*
X144185714Y-101410714D01*
X144233333Y-101458333D01*
X144280952Y-101553571D01*
X144280952Y-101744047D01*
X144328571Y-101839285D01*
X144376190Y-101886904D01*
X144471428Y-101934523D01*
X144661904Y-101934523D01*
X144757142Y-101886904D01*
X144804761Y-101839285D01*
X144852380Y-101744047D01*
X144852380Y-101553571D01*
X144804761Y-101458333D01*
X144757142Y-101410714D01*
X144661904Y-101363095D01*
X144471428Y-101363095D01*
X144376190Y-101410714D01*
X144328571Y-101458333D01*
X144280952Y-101553571D01*
%TO.C,R17*%
X143252380Y-103267857D02*
X142776190Y-103601190D01*
X143252380Y-103839285D02*
X142252380Y-103839285D01*
X142252380Y-103458333D01*
X142300000Y-103363095D01*
X142347619Y-103315476D01*
X142442857Y-103267857D01*
X142585714Y-103267857D01*
X142680952Y-103315476D01*
X142728571Y-103363095D01*
X142776190Y-103458333D01*
X142776190Y-103839285D01*
X143252380Y-102315476D02*
X143252380Y-102886904D01*
X143252380Y-102601190D02*
X142252380Y-102601190D01*
X142395238Y-102696428D01*
X142490476Y-102791666D01*
X142538095Y-102886904D01*
X142252380Y-101982142D02*
X142252380Y-101315476D01*
X143252380Y-101744047D01*
%TO.C,R16*%
X135152380Y-103267857D02*
X134676190Y-103601190D01*
X135152380Y-103839285D02*
X134152380Y-103839285D01*
X134152380Y-103458333D01*
X134200000Y-103363095D01*
X134247619Y-103315476D01*
X134342857Y-103267857D01*
X134485714Y-103267857D01*
X134580952Y-103315476D01*
X134628571Y-103363095D01*
X134676190Y-103458333D01*
X134676190Y-103839285D01*
X135152380Y-102315476D02*
X135152380Y-102886904D01*
X135152380Y-102601190D02*
X134152380Y-102601190D01*
X134295238Y-102696428D01*
X134390476Y-102791666D01*
X134438095Y-102886904D01*
X134152380Y-101458333D02*
X134152380Y-101648809D01*
X134200000Y-101744047D01*
X134247619Y-101791666D01*
X134390476Y-101886904D01*
X134580952Y-101934523D01*
X134961904Y-101934523D01*
X135057142Y-101886904D01*
X135104761Y-101839285D01*
X135152380Y-101744047D01*
X135152380Y-101553571D01*
X135104761Y-101458333D01*
X135057142Y-101410714D01*
X134961904Y-101363095D01*
X134723809Y-101363095D01*
X134628571Y-101410714D01*
X134580952Y-101458333D01*
X134533333Y-101553571D01*
X134533333Y-101744047D01*
X134580952Y-101839285D01*
X134628571Y-101886904D01*
X134723809Y-101934523D01*
%TO.C,R15*%
X133552380Y-103267857D02*
X133076190Y-103601190D01*
X133552380Y-103839285D02*
X132552380Y-103839285D01*
X132552380Y-103458333D01*
X132600000Y-103363095D01*
X132647619Y-103315476D01*
X132742857Y-103267857D01*
X132885714Y-103267857D01*
X132980952Y-103315476D01*
X133028571Y-103363095D01*
X133076190Y-103458333D01*
X133076190Y-103839285D01*
X133552380Y-102315476D02*
X133552380Y-102886904D01*
X133552380Y-102601190D02*
X132552380Y-102601190D01*
X132695238Y-102696428D01*
X132790476Y-102791666D01*
X132838095Y-102886904D01*
X132552380Y-101410714D02*
X132552380Y-101886904D01*
X133028571Y-101934523D01*
X132980952Y-101886904D01*
X132933333Y-101791666D01*
X132933333Y-101553571D01*
X132980952Y-101458333D01*
X133028571Y-101410714D01*
X133123809Y-101363095D01*
X133361904Y-101363095D01*
X133457142Y-101410714D01*
X133504761Y-101458333D01*
X133552380Y-101553571D01*
X133552380Y-101791666D01*
X133504761Y-101886904D01*
X133457142Y-101934523D01*
%TO.C,R14*%
X153952380Y-50967857D02*
X153476190Y-51301190D01*
X153952380Y-51539285D02*
X152952380Y-51539285D01*
X152952380Y-51158333D01*
X153000000Y-51063095D01*
X153047619Y-51015476D01*
X153142857Y-50967857D01*
X153285714Y-50967857D01*
X153380952Y-51015476D01*
X153428571Y-51063095D01*
X153476190Y-51158333D01*
X153476190Y-51539285D01*
X153952380Y-50015476D02*
X153952380Y-50586904D01*
X153952380Y-50301190D02*
X152952380Y-50301190D01*
X153095238Y-50396428D01*
X153190476Y-50491666D01*
X153238095Y-50586904D01*
X153285714Y-49158333D02*
X153952380Y-49158333D01*
X152904761Y-49396428D02*
X153619047Y-49634523D01*
X153619047Y-49015476D01*
%TO.C,R13*%
X147882380Y-50967857D02*
X147406190Y-51301190D01*
X147882380Y-51539285D02*
X146882380Y-51539285D01*
X146882380Y-51158333D01*
X146930000Y-51063095D01*
X146977619Y-51015476D01*
X147072857Y-50967857D01*
X147215714Y-50967857D01*
X147310952Y-51015476D01*
X147358571Y-51063095D01*
X147406190Y-51158333D01*
X147406190Y-51539285D01*
X147882380Y-50015476D02*
X147882380Y-50586904D01*
X147882380Y-50301190D02*
X146882380Y-50301190D01*
X147025238Y-50396428D01*
X147120476Y-50491666D01*
X147168095Y-50586904D01*
X146882380Y-49682142D02*
X146882380Y-49063095D01*
X147263333Y-49396428D01*
X147263333Y-49253571D01*
X147310952Y-49158333D01*
X147358571Y-49110714D01*
X147453809Y-49063095D01*
X147691904Y-49063095D01*
X147787142Y-49110714D01*
X147834761Y-49158333D01*
X147882380Y-49253571D01*
X147882380Y-49539285D01*
X147834761Y-49634523D01*
X147787142Y-49682142D01*
%TO.C,R12*%
X150882380Y-50967857D02*
X150406190Y-51301190D01*
X150882380Y-51539285D02*
X149882380Y-51539285D01*
X149882380Y-51158333D01*
X149930000Y-51063095D01*
X149977619Y-51015476D01*
X150072857Y-50967857D01*
X150215714Y-50967857D01*
X150310952Y-51015476D01*
X150358571Y-51063095D01*
X150406190Y-51158333D01*
X150406190Y-51539285D01*
X150882380Y-50015476D02*
X150882380Y-50586904D01*
X150882380Y-50301190D02*
X149882380Y-50301190D01*
X150025238Y-50396428D01*
X150120476Y-50491666D01*
X150168095Y-50586904D01*
X149977619Y-49634523D02*
X149930000Y-49586904D01*
X149882380Y-49491666D01*
X149882380Y-49253571D01*
X149930000Y-49158333D01*
X149977619Y-49110714D01*
X150072857Y-49063095D01*
X150168095Y-49063095D01*
X150310952Y-49110714D01*
X150882380Y-49682142D01*
X150882380Y-49063095D01*
%TO.C,R10*%
X104982142Y-88522380D02*
X104648809Y-88046190D01*
X104410714Y-88522380D02*
X104410714Y-87522380D01*
X104791666Y-87522380D01*
X104886904Y-87570000D01*
X104934523Y-87617619D01*
X104982142Y-87712857D01*
X104982142Y-87855714D01*
X104934523Y-87950952D01*
X104886904Y-87998571D01*
X104791666Y-88046190D01*
X104410714Y-88046190D01*
X105934523Y-88522380D02*
X105363095Y-88522380D01*
X105648809Y-88522380D02*
X105648809Y-87522380D01*
X105553571Y-87665238D01*
X105458333Y-87760476D01*
X105363095Y-87808095D01*
X106553571Y-87522380D02*
X106648809Y-87522380D01*
X106744047Y-87570000D01*
X106791666Y-87617619D01*
X106839285Y-87712857D01*
X106886904Y-87903333D01*
X106886904Y-88141428D01*
X106839285Y-88331904D01*
X106791666Y-88427142D01*
X106744047Y-88474761D01*
X106648809Y-88522380D01*
X106553571Y-88522380D01*
X106458333Y-88474761D01*
X106410714Y-88427142D01*
X106363095Y-88331904D01*
X106315476Y-88141428D01*
X106315476Y-87903333D01*
X106363095Y-87712857D01*
X106410714Y-87617619D01*
X106458333Y-87570000D01*
X106553571Y-87522380D01*
%TO.C,R9*%
X166533333Y-64752380D02*
X166200000Y-64276190D01*
X165961904Y-64752380D02*
X165961904Y-63752380D01*
X166342857Y-63752380D01*
X166438095Y-63800000D01*
X166485714Y-63847619D01*
X166533333Y-63942857D01*
X166533333Y-64085714D01*
X166485714Y-64180952D01*
X166438095Y-64228571D01*
X166342857Y-64276190D01*
X165961904Y-64276190D01*
X167009523Y-64752380D02*
X167200000Y-64752380D01*
X167295238Y-64704761D01*
X167342857Y-64657142D01*
X167438095Y-64514285D01*
X167485714Y-64323809D01*
X167485714Y-63942857D01*
X167438095Y-63847619D01*
X167390476Y-63800000D01*
X167295238Y-63752380D01*
X167104761Y-63752380D01*
X167009523Y-63800000D01*
X166961904Y-63847619D01*
X166914285Y-63942857D01*
X166914285Y-64180952D01*
X166961904Y-64276190D01*
X167009523Y-64323809D01*
X167104761Y-64371428D01*
X167295238Y-64371428D01*
X167390476Y-64323809D01*
X167438095Y-64276190D01*
X167485714Y-64180952D01*
%TO.C,R8*%
X151533333Y-61252380D02*
X151200000Y-60776190D01*
X150961904Y-61252380D02*
X150961904Y-60252380D01*
X151342857Y-60252380D01*
X151438095Y-60300000D01*
X151485714Y-60347619D01*
X151533333Y-60442857D01*
X151533333Y-60585714D01*
X151485714Y-60680952D01*
X151438095Y-60728571D01*
X151342857Y-60776190D01*
X150961904Y-60776190D01*
X152104761Y-60680952D02*
X152009523Y-60633333D01*
X151961904Y-60585714D01*
X151914285Y-60490476D01*
X151914285Y-60442857D01*
X151961904Y-60347619D01*
X152009523Y-60300000D01*
X152104761Y-60252380D01*
X152295238Y-60252380D01*
X152390476Y-60300000D01*
X152438095Y-60347619D01*
X152485714Y-60442857D01*
X152485714Y-60490476D01*
X152438095Y-60585714D01*
X152390476Y-60633333D01*
X152295238Y-60680952D01*
X152104761Y-60680952D01*
X152009523Y-60728571D01*
X151961904Y-60776190D01*
X151914285Y-60871428D01*
X151914285Y-61061904D01*
X151961904Y-61157142D01*
X152009523Y-61204761D01*
X152104761Y-61252380D01*
X152295238Y-61252380D01*
X152390476Y-61204761D01*
X152438095Y-61157142D01*
X152485714Y-61061904D01*
X152485714Y-60871428D01*
X152438095Y-60776190D01*
X152390476Y-60728571D01*
X152295238Y-60680952D01*
%TO.C,R7*%
X166558333Y-60952380D02*
X166225000Y-60476190D01*
X165986904Y-60952380D02*
X165986904Y-59952380D01*
X166367857Y-59952380D01*
X166463095Y-60000000D01*
X166510714Y-60047619D01*
X166558333Y-60142857D01*
X166558333Y-60285714D01*
X166510714Y-60380952D01*
X166463095Y-60428571D01*
X166367857Y-60476190D01*
X165986904Y-60476190D01*
X166891666Y-59952380D02*
X167558333Y-59952380D01*
X167129761Y-60952380D01*
%TO.C,R6*%
X151533333Y-62952380D02*
X151200000Y-62476190D01*
X150961904Y-62952380D02*
X150961904Y-61952380D01*
X151342857Y-61952380D01*
X151438095Y-62000000D01*
X151485714Y-62047619D01*
X151533333Y-62142857D01*
X151533333Y-62285714D01*
X151485714Y-62380952D01*
X151438095Y-62428571D01*
X151342857Y-62476190D01*
X150961904Y-62476190D01*
X152390476Y-61952380D02*
X152200000Y-61952380D01*
X152104761Y-62000000D01*
X152057142Y-62047619D01*
X151961904Y-62190476D01*
X151914285Y-62380952D01*
X151914285Y-62761904D01*
X151961904Y-62857142D01*
X152009523Y-62904761D01*
X152104761Y-62952380D01*
X152295238Y-62952380D01*
X152390476Y-62904761D01*
X152438095Y-62857142D01*
X152485714Y-62761904D01*
X152485714Y-62523809D01*
X152438095Y-62428571D01*
X152390476Y-62380952D01*
X152295238Y-62333333D01*
X152104761Y-62333333D01*
X152009523Y-62380952D01*
X151961904Y-62428571D01*
X151914285Y-62523809D01*
%TO.C,R5*%
X166558333Y-59377380D02*
X166225000Y-58901190D01*
X165986904Y-59377380D02*
X165986904Y-58377380D01*
X166367857Y-58377380D01*
X166463095Y-58425000D01*
X166510714Y-58472619D01*
X166558333Y-58567857D01*
X166558333Y-58710714D01*
X166510714Y-58805952D01*
X166463095Y-58853571D01*
X166367857Y-58901190D01*
X165986904Y-58901190D01*
X167463095Y-58377380D02*
X166986904Y-58377380D01*
X166939285Y-58853571D01*
X166986904Y-58805952D01*
X167082142Y-58758333D01*
X167320238Y-58758333D01*
X167415476Y-58805952D01*
X167463095Y-58853571D01*
X167510714Y-58948809D01*
X167510714Y-59186904D01*
X167463095Y-59282142D01*
X167415476Y-59329761D01*
X167320238Y-59377380D01*
X167082142Y-59377380D01*
X166986904Y-59329761D01*
X166939285Y-59282142D01*
%TO.C,R4*%
X93633333Y-70952380D02*
X93300000Y-70476190D01*
X93061904Y-70952380D02*
X93061904Y-69952380D01*
X93442857Y-69952380D01*
X93538095Y-70000000D01*
X93585714Y-70047619D01*
X93633333Y-70142857D01*
X93633333Y-70285714D01*
X93585714Y-70380952D01*
X93538095Y-70428571D01*
X93442857Y-70476190D01*
X93061904Y-70476190D01*
X94490476Y-70285714D02*
X94490476Y-70952380D01*
X94252380Y-69904761D02*
X94014285Y-70619047D01*
X94633333Y-70619047D01*
%TO.C,R3*%
X176582380Y-72766666D02*
X176106190Y-73100000D01*
X176582380Y-73338095D02*
X175582380Y-73338095D01*
X175582380Y-72957142D01*
X175630000Y-72861904D01*
X175677619Y-72814285D01*
X175772857Y-72766666D01*
X175915714Y-72766666D01*
X176010952Y-72814285D01*
X176058571Y-72861904D01*
X176106190Y-72957142D01*
X176106190Y-73338095D01*
X175582380Y-72433333D02*
X175582380Y-71814285D01*
X175963333Y-72147619D01*
X175963333Y-72004761D01*
X176010952Y-71909523D01*
X176058571Y-71861904D01*
X176153809Y-71814285D01*
X176391904Y-71814285D01*
X176487142Y-71861904D01*
X176534761Y-71909523D01*
X176582380Y-72004761D01*
X176582380Y-72290476D01*
X176534761Y-72385714D01*
X176487142Y-72433333D01*
%TO.C,R2*%
X158733333Y-56752380D02*
X158400000Y-56276190D01*
X158161904Y-56752380D02*
X158161904Y-55752380D01*
X158542857Y-55752380D01*
X158638095Y-55800000D01*
X158685714Y-55847619D01*
X158733333Y-55942857D01*
X158733333Y-56085714D01*
X158685714Y-56180952D01*
X158638095Y-56228571D01*
X158542857Y-56276190D01*
X158161904Y-56276190D01*
X159114285Y-55847619D02*
X159161904Y-55800000D01*
X159257142Y-55752380D01*
X159495238Y-55752380D01*
X159590476Y-55800000D01*
X159638095Y-55847619D01*
X159685714Y-55942857D01*
X159685714Y-56038095D01*
X159638095Y-56180952D01*
X159066666Y-56752380D01*
X159685714Y-56752380D01*
%TO.C,R1*%
X158733333Y-55152380D02*
X158400000Y-54676190D01*
X158161904Y-55152380D02*
X158161904Y-54152380D01*
X158542857Y-54152380D01*
X158638095Y-54200000D01*
X158685714Y-54247619D01*
X158733333Y-54342857D01*
X158733333Y-54485714D01*
X158685714Y-54580952D01*
X158638095Y-54628571D01*
X158542857Y-54676190D01*
X158161904Y-54676190D01*
X159685714Y-55152380D02*
X159114285Y-55152380D01*
X159400000Y-55152380D02*
X159400000Y-54152380D01*
X159304761Y-54295238D01*
X159209523Y-54390476D01*
X159114285Y-54438095D01*
%TO.C,J9*%
X98922380Y-101133333D02*
X99636666Y-101133333D01*
X99779523Y-101180952D01*
X99874761Y-101276190D01*
X99922380Y-101419047D01*
X99922380Y-101514285D01*
X99922380Y-100609523D02*
X99922380Y-100419047D01*
X99874761Y-100323809D01*
X99827142Y-100276190D01*
X99684285Y-100180952D01*
X99493809Y-100133333D01*
X99112857Y-100133333D01*
X99017619Y-100180952D01*
X98970000Y-100228571D01*
X98922380Y-100323809D01*
X98922380Y-100514285D01*
X98970000Y-100609523D01*
X99017619Y-100657142D01*
X99112857Y-100704761D01*
X99350952Y-100704761D01*
X99446190Y-100657142D01*
X99493809Y-100609523D01*
X99541428Y-100514285D01*
X99541428Y-100323809D01*
X99493809Y-100228571D01*
X99446190Y-100180952D01*
X99350952Y-100133333D01*
%TO.C,J8*%
X108722380Y-110133333D02*
X109436666Y-110133333D01*
X109579523Y-110180952D01*
X109674761Y-110276190D01*
X109722380Y-110419047D01*
X109722380Y-110514285D01*
X109150952Y-109514285D02*
X109103333Y-109609523D01*
X109055714Y-109657142D01*
X108960476Y-109704761D01*
X108912857Y-109704761D01*
X108817619Y-109657142D01*
X108770000Y-109609523D01*
X108722380Y-109514285D01*
X108722380Y-109323809D01*
X108770000Y-109228571D01*
X108817619Y-109180952D01*
X108912857Y-109133333D01*
X108960476Y-109133333D01*
X109055714Y-109180952D01*
X109103333Y-109228571D01*
X109150952Y-109323809D01*
X109150952Y-109514285D01*
X109198571Y-109609523D01*
X109246190Y-109657142D01*
X109341428Y-109704761D01*
X109531904Y-109704761D01*
X109627142Y-109657142D01*
X109674761Y-109609523D01*
X109722380Y-109514285D01*
X109722380Y-109323809D01*
X109674761Y-109228571D01*
X109627142Y-109180952D01*
X109531904Y-109133333D01*
X109341428Y-109133333D01*
X109246190Y-109180952D01*
X109198571Y-109228571D01*
X109150952Y-109323809D01*
%TO.C,J7*%
X95466666Y-76822380D02*
X95466666Y-77536666D01*
X95419047Y-77679523D01*
X95323809Y-77774761D01*
X95180952Y-77822380D01*
X95085714Y-77822380D01*
X95847619Y-76822380D02*
X96514285Y-76822380D01*
X96085714Y-77822380D01*
%TO.C,J6*%
X111852380Y-54033333D02*
X112566666Y-54033333D01*
X112709523Y-54080952D01*
X112804761Y-54176190D01*
X112852380Y-54319047D01*
X112852380Y-54414285D01*
X111852380Y-53128571D02*
X111852380Y-53319047D01*
X111900000Y-53414285D01*
X111947619Y-53461904D01*
X112090476Y-53557142D01*
X112280952Y-53604761D01*
X112661904Y-53604761D01*
X112757142Y-53557142D01*
X112804761Y-53509523D01*
X112852380Y-53414285D01*
X112852380Y-53223809D01*
X112804761Y-53128571D01*
X112757142Y-53080952D01*
X112661904Y-53033333D01*
X112423809Y-53033333D01*
X112328571Y-53080952D01*
X112280952Y-53128571D01*
X112233333Y-53223809D01*
X112233333Y-53414285D01*
X112280952Y-53509523D01*
X112328571Y-53557142D01*
X112423809Y-53604761D01*
%TO.C,J5*%
X167152380Y-54208334D02*
X167866666Y-54208334D01*
X168009523Y-54255953D01*
X168104761Y-54351191D01*
X168152380Y-54494048D01*
X168152380Y-54589286D01*
X167152380Y-53255953D02*
X167152380Y-53732143D01*
X167628571Y-53779762D01*
X167580952Y-53732143D01*
X167533333Y-53636905D01*
X167533333Y-53398810D01*
X167580952Y-53303572D01*
X167628571Y-53255953D01*
X167723809Y-53208334D01*
X167961904Y-53208334D01*
X168057142Y-53255953D01*
X168104761Y-53303572D01*
X168152380Y-53398810D01*
X168152380Y-53636905D01*
X168104761Y-53732143D01*
X168057142Y-53779762D01*
%TO.C,J4*%
X122502380Y-45783333D02*
X123216666Y-45783333D01*
X123359523Y-45830952D01*
X123454761Y-45926190D01*
X123502380Y-46069047D01*
X123502380Y-46164285D01*
X122835714Y-44878571D02*
X123502380Y-44878571D01*
X122454761Y-45116666D02*
X123169047Y-45354761D01*
X123169047Y-44735714D01*
%TO.C,J3*%
X153752380Y-68333333D02*
X154466666Y-68333333D01*
X154609523Y-68380952D01*
X154704761Y-68476190D01*
X154752380Y-68619047D01*
X154752380Y-68714285D01*
X153752380Y-67952380D02*
X153752380Y-67333333D01*
X154133333Y-67666666D01*
X154133333Y-67523809D01*
X154180952Y-67428571D01*
X154228571Y-67380952D01*
X154323809Y-67333333D01*
X154561904Y-67333333D01*
X154657142Y-67380952D01*
X154704761Y-67428571D01*
X154752380Y-67523809D01*
X154752380Y-67809523D01*
X154704761Y-67904761D01*
X154657142Y-67952380D01*
%TO.C,J2*%
X171166666Y-74652380D02*
X171166666Y-75366666D01*
X171119047Y-75509523D01*
X171023809Y-75604761D01*
X170880952Y-75652380D01*
X170785714Y-75652380D01*
X171595238Y-74747619D02*
X171642857Y-74700000D01*
X171738095Y-74652380D01*
X171976190Y-74652380D01*
X172071428Y-74700000D01*
X172119047Y-74747619D01*
X172166666Y-74842857D01*
X172166666Y-74938095D01*
X172119047Y-75080952D01*
X171547619Y-75652380D01*
X172166666Y-75652380D01*
%TO.C,J1*%
X160866666Y-49252380D02*
X160866666Y-49966666D01*
X160819047Y-50109523D01*
X160723809Y-50204761D01*
X160580952Y-50252380D01*
X160485714Y-50252380D01*
X161866666Y-50252380D02*
X161295238Y-50252380D01*
X161580952Y-50252380D02*
X161580952Y-49252380D01*
X161485714Y-49395238D01*
X161390476Y-49490476D01*
X161295238Y-49538095D01*
%TO.C,D8*%
X141652380Y-109038095D02*
X140652380Y-109038095D01*
X140652380Y-108800000D01*
X140700000Y-108657142D01*
X140795238Y-108561904D01*
X140890476Y-108514285D01*
X141080952Y-108466666D01*
X141223809Y-108466666D01*
X141414285Y-108514285D01*
X141509523Y-108561904D01*
X141604761Y-108657142D01*
X141652380Y-108800000D01*
X141652380Y-109038095D01*
X141080952Y-107895238D02*
X141033333Y-107990476D01*
X140985714Y-108038095D01*
X140890476Y-108085714D01*
X140842857Y-108085714D01*
X140747619Y-108038095D01*
X140700000Y-107990476D01*
X140652380Y-107895238D01*
X140652380Y-107704761D01*
X140700000Y-107609523D01*
X140747619Y-107561904D01*
X140842857Y-107514285D01*
X140890476Y-107514285D01*
X140985714Y-107561904D01*
X141033333Y-107609523D01*
X141080952Y-107704761D01*
X141080952Y-107895238D01*
X141128571Y-107990476D01*
X141176190Y-108038095D01*
X141271428Y-108085714D01*
X141461904Y-108085714D01*
X141557142Y-108038095D01*
X141604761Y-107990476D01*
X141652380Y-107895238D01*
X141652380Y-107704761D01*
X141604761Y-107609523D01*
X141557142Y-107561904D01*
X141461904Y-107514285D01*
X141271428Y-107514285D01*
X141176190Y-107561904D01*
X141128571Y-107609523D01*
X141080952Y-107704761D01*
%TO.C,D7*%
X140052380Y-109038095D02*
X139052380Y-109038095D01*
X139052380Y-108800000D01*
X139100000Y-108657142D01*
X139195238Y-108561904D01*
X139290476Y-108514285D01*
X139480952Y-108466666D01*
X139623809Y-108466666D01*
X139814285Y-108514285D01*
X139909523Y-108561904D01*
X140004761Y-108657142D01*
X140052380Y-108800000D01*
X140052380Y-109038095D01*
X139052380Y-108133333D02*
X139052380Y-107466666D01*
X140052380Y-107895238D01*
%TO.C,D6*%
X138452380Y-109038095D02*
X137452380Y-109038095D01*
X137452380Y-108800000D01*
X137500000Y-108657142D01*
X137595238Y-108561904D01*
X137690476Y-108514285D01*
X137880952Y-108466666D01*
X138023809Y-108466666D01*
X138214285Y-108514285D01*
X138309523Y-108561904D01*
X138404761Y-108657142D01*
X138452380Y-108800000D01*
X138452380Y-109038095D01*
X137452380Y-107609523D02*
X137452380Y-107800000D01*
X137500000Y-107895238D01*
X137547619Y-107942857D01*
X137690476Y-108038095D01*
X137880952Y-108085714D01*
X138261904Y-108085714D01*
X138357142Y-108038095D01*
X138404761Y-107990476D01*
X138452380Y-107895238D01*
X138452380Y-107704761D01*
X138404761Y-107609523D01*
X138357142Y-107561904D01*
X138261904Y-107514285D01*
X138023809Y-107514285D01*
X137928571Y-107561904D01*
X137880952Y-107609523D01*
X137833333Y-107704761D01*
X137833333Y-107895238D01*
X137880952Y-107990476D01*
X137928571Y-108038095D01*
X138023809Y-108085714D01*
%TO.C,D5*%
X136852380Y-109038095D02*
X135852380Y-109038095D01*
X135852380Y-108800000D01*
X135900000Y-108657142D01*
X135995238Y-108561904D01*
X136090476Y-108514285D01*
X136280952Y-108466666D01*
X136423809Y-108466666D01*
X136614285Y-108514285D01*
X136709523Y-108561904D01*
X136804761Y-108657142D01*
X136852380Y-108800000D01*
X136852380Y-109038095D01*
X135852380Y-107561904D02*
X135852380Y-108038095D01*
X136328571Y-108085714D01*
X136280952Y-108038095D01*
X136233333Y-107942857D01*
X136233333Y-107704761D01*
X136280952Y-107609523D01*
X136328571Y-107561904D01*
X136423809Y-107514285D01*
X136661904Y-107514285D01*
X136757142Y-107561904D01*
X136804761Y-107609523D01*
X136852380Y-107704761D01*
X136852380Y-107942857D01*
X136804761Y-108038095D01*
X136757142Y-108085714D01*
%TO.C,D4*%
X166261904Y-72452380D02*
X166261904Y-71452380D01*
X166500000Y-71452380D01*
X166642857Y-71500000D01*
X166738095Y-71595238D01*
X166785714Y-71690476D01*
X166833333Y-71880952D01*
X166833333Y-72023809D01*
X166785714Y-72214285D01*
X166738095Y-72309523D01*
X166642857Y-72404761D01*
X166500000Y-72452380D01*
X166261904Y-72452380D01*
X167690476Y-71785714D02*
X167690476Y-72452380D01*
X167452380Y-71404761D02*
X167214285Y-72119047D01*
X167833333Y-72119047D01*
%TO.C,D3*%
X166261904Y-68652380D02*
X166261904Y-67652380D01*
X166500000Y-67652380D01*
X166642857Y-67700000D01*
X166738095Y-67795238D01*
X166785714Y-67890476D01*
X166833333Y-68080952D01*
X166833333Y-68223809D01*
X166785714Y-68414285D01*
X166738095Y-68509523D01*
X166642857Y-68604761D01*
X166500000Y-68652380D01*
X166261904Y-68652380D01*
X167166666Y-67652380D02*
X167785714Y-67652380D01*
X167452380Y-68033333D01*
X167595238Y-68033333D01*
X167690476Y-68080952D01*
X167738095Y-68128571D01*
X167785714Y-68223809D01*
X167785714Y-68461904D01*
X167738095Y-68557142D01*
X167690476Y-68604761D01*
X167595238Y-68652380D01*
X167309523Y-68652380D01*
X167214285Y-68604761D01*
X167166666Y-68557142D01*
%TO.C,D2*%
X133761904Y-59702380D02*
X133761904Y-58702380D01*
X134000000Y-58702380D01*
X134142857Y-58750000D01*
X134238095Y-58845238D01*
X134285714Y-58940476D01*
X134333333Y-59130952D01*
X134333333Y-59273809D01*
X134285714Y-59464285D01*
X134238095Y-59559523D01*
X134142857Y-59654761D01*
X134000000Y-59702380D01*
X133761904Y-59702380D01*
X134714285Y-58797619D02*
X134761904Y-58750000D01*
X134857142Y-58702380D01*
X135095238Y-58702380D01*
X135190476Y-58750000D01*
X135238095Y-58797619D01*
X135285714Y-58892857D01*
X135285714Y-58988095D01*
X135238095Y-59130952D01*
X134666666Y-59702380D01*
X135285714Y-59702380D01*
%TO.C,D1*%
X133761904Y-63452380D02*
X133761904Y-62452380D01*
X134000000Y-62452380D01*
X134142857Y-62500000D01*
X134238095Y-62595238D01*
X134285714Y-62690476D01*
X134333333Y-62880952D01*
X134333333Y-63023809D01*
X134285714Y-63214285D01*
X134238095Y-63309523D01*
X134142857Y-63404761D01*
X134000000Y-63452380D01*
X133761904Y-63452380D01*
X135285714Y-63452380D02*
X134714285Y-63452380D01*
X135000000Y-63452380D02*
X135000000Y-62452380D01*
X134904761Y-62595238D01*
X134809523Y-62690476D01*
X134714285Y-62738095D01*
%TO.C,C24*%
X159157142Y-91642857D02*
X159204761Y-91690476D01*
X159252380Y-91833333D01*
X159252380Y-91928571D01*
X159204761Y-92071428D01*
X159109523Y-92166666D01*
X159014285Y-92214285D01*
X158823809Y-92261904D01*
X158680952Y-92261904D01*
X158490476Y-92214285D01*
X158395238Y-92166666D01*
X158300000Y-92071428D01*
X158252380Y-91928571D01*
X158252380Y-91833333D01*
X158300000Y-91690476D01*
X158347619Y-91642857D01*
X158347619Y-91261904D02*
X158300000Y-91214285D01*
X158252380Y-91119047D01*
X158252380Y-90880952D01*
X158300000Y-90785714D01*
X158347619Y-90738095D01*
X158442857Y-90690476D01*
X158538095Y-90690476D01*
X158680952Y-90738095D01*
X159252380Y-91309523D01*
X159252380Y-90690476D01*
X158585714Y-89833333D02*
X159252380Y-89833333D01*
X158204761Y-90071428D02*
X158919047Y-90309523D01*
X158919047Y-89690476D01*
%TO.C,C23*%
X161857142Y-82767857D02*
X161904761Y-82815476D01*
X161952380Y-82958333D01*
X161952380Y-83053571D01*
X161904761Y-83196428D01*
X161809523Y-83291666D01*
X161714285Y-83339285D01*
X161523809Y-83386904D01*
X161380952Y-83386904D01*
X161190476Y-83339285D01*
X161095238Y-83291666D01*
X161000000Y-83196428D01*
X160952380Y-83053571D01*
X160952380Y-82958333D01*
X161000000Y-82815476D01*
X161047619Y-82767857D01*
X161047619Y-82386904D02*
X161000000Y-82339285D01*
X160952380Y-82244047D01*
X160952380Y-82005952D01*
X161000000Y-81910714D01*
X161047619Y-81863095D01*
X161142857Y-81815476D01*
X161238095Y-81815476D01*
X161380952Y-81863095D01*
X161952380Y-82434523D01*
X161952380Y-81815476D01*
X160952380Y-81482142D02*
X160952380Y-80863095D01*
X161333333Y-81196428D01*
X161333333Y-81053571D01*
X161380952Y-80958333D01*
X161428571Y-80910714D01*
X161523809Y-80863095D01*
X161761904Y-80863095D01*
X161857142Y-80910714D01*
X161904761Y-80958333D01*
X161952380Y-81053571D01*
X161952380Y-81339285D01*
X161904761Y-81434523D01*
X161857142Y-81482142D01*
%TO.C,C22*%
X155182142Y-91557142D02*
X155134523Y-91604761D01*
X154991666Y-91652380D01*
X154896428Y-91652380D01*
X154753571Y-91604761D01*
X154658333Y-91509523D01*
X154610714Y-91414285D01*
X154563095Y-91223809D01*
X154563095Y-91080952D01*
X154610714Y-90890476D01*
X154658333Y-90795238D01*
X154753571Y-90700000D01*
X154896428Y-90652380D01*
X154991666Y-90652380D01*
X155134523Y-90700000D01*
X155182142Y-90747619D01*
X155563095Y-90747619D02*
X155610714Y-90700000D01*
X155705952Y-90652380D01*
X155944047Y-90652380D01*
X156039285Y-90700000D01*
X156086904Y-90747619D01*
X156134523Y-90842857D01*
X156134523Y-90938095D01*
X156086904Y-91080952D01*
X155515476Y-91652380D01*
X156134523Y-91652380D01*
X156515476Y-90747619D02*
X156563095Y-90700000D01*
X156658333Y-90652380D01*
X156896428Y-90652380D01*
X156991666Y-90700000D01*
X157039285Y-90747619D01*
X157086904Y-90842857D01*
X157086904Y-90938095D01*
X157039285Y-91080952D01*
X156467857Y-91652380D01*
X157086904Y-91652380D01*
%TO.C,C18*%
X125457142Y-95017857D02*
X125504761Y-95065476D01*
X125552380Y-95208333D01*
X125552380Y-95303571D01*
X125504761Y-95446428D01*
X125409523Y-95541666D01*
X125314285Y-95589285D01*
X125123809Y-95636904D01*
X124980952Y-95636904D01*
X124790476Y-95589285D01*
X124695238Y-95541666D01*
X124600000Y-95446428D01*
X124552380Y-95303571D01*
X124552380Y-95208333D01*
X124600000Y-95065476D01*
X124647619Y-95017857D01*
X125552380Y-94065476D02*
X125552380Y-94636904D01*
X125552380Y-94351190D02*
X124552380Y-94351190D01*
X124695238Y-94446428D01*
X124790476Y-94541666D01*
X124838095Y-94636904D01*
X124980952Y-93494047D02*
X124933333Y-93589285D01*
X124885714Y-93636904D01*
X124790476Y-93684523D01*
X124742857Y-93684523D01*
X124647619Y-93636904D01*
X124600000Y-93589285D01*
X124552380Y-93494047D01*
X124552380Y-93303571D01*
X124600000Y-93208333D01*
X124647619Y-93160714D01*
X124742857Y-93113095D01*
X124790476Y-93113095D01*
X124885714Y-93160714D01*
X124933333Y-93208333D01*
X124980952Y-93303571D01*
X124980952Y-93494047D01*
X125028571Y-93589285D01*
X125076190Y-93636904D01*
X125171428Y-93684523D01*
X125361904Y-93684523D01*
X125457142Y-93636904D01*
X125504761Y-93589285D01*
X125552380Y-93494047D01*
X125552380Y-93303571D01*
X125504761Y-93208333D01*
X125457142Y-93160714D01*
X125361904Y-93113095D01*
X125171428Y-93113095D01*
X125076190Y-93160714D01*
X125028571Y-93208333D01*
X124980952Y-93303571D01*
%TO.C,C17*%
X177257142Y-80357142D02*
X177209523Y-80404761D01*
X177066666Y-80452380D01*
X176971428Y-80452380D01*
X176828571Y-80404761D01*
X176733333Y-80309523D01*
X176685714Y-80214285D01*
X176638095Y-80023809D01*
X176638095Y-79880952D01*
X176685714Y-79690476D01*
X176733333Y-79595238D01*
X176828571Y-79500000D01*
X176971428Y-79452380D01*
X177066666Y-79452380D01*
X177209523Y-79500000D01*
X177257142Y-79547619D01*
X178209523Y-80452380D02*
X177638095Y-80452380D01*
X177923809Y-80452380D02*
X177923809Y-79452380D01*
X177828571Y-79595238D01*
X177733333Y-79690476D01*
X177638095Y-79738095D01*
X178542857Y-79452380D02*
X179209523Y-79452380D01*
X178780952Y-80452380D01*
%TO.C,C16*%
X109432142Y-88157142D02*
X109384523Y-88204761D01*
X109241666Y-88252380D01*
X109146428Y-88252380D01*
X109003571Y-88204761D01*
X108908333Y-88109523D01*
X108860714Y-88014285D01*
X108813095Y-87823809D01*
X108813095Y-87680952D01*
X108860714Y-87490476D01*
X108908333Y-87395238D01*
X109003571Y-87300000D01*
X109146428Y-87252380D01*
X109241666Y-87252380D01*
X109384523Y-87300000D01*
X109432142Y-87347619D01*
X110384523Y-88252380D02*
X109813095Y-88252380D01*
X110098809Y-88252380D02*
X110098809Y-87252380D01*
X110003571Y-87395238D01*
X109908333Y-87490476D01*
X109813095Y-87538095D01*
X111241666Y-87252380D02*
X111051190Y-87252380D01*
X110955952Y-87300000D01*
X110908333Y-87347619D01*
X110813095Y-87490476D01*
X110765476Y-87680952D01*
X110765476Y-88061904D01*
X110813095Y-88157142D01*
X110860714Y-88204761D01*
X110955952Y-88252380D01*
X111146428Y-88252380D01*
X111241666Y-88204761D01*
X111289285Y-88157142D01*
X111336904Y-88061904D01*
X111336904Y-87823809D01*
X111289285Y-87728571D01*
X111241666Y-87680952D01*
X111146428Y-87633333D01*
X110955952Y-87633333D01*
X110860714Y-87680952D01*
X110813095Y-87728571D01*
X110765476Y-87823809D01*
%TO.C,C14*%
X117132142Y-74457142D02*
X117084523Y-74504761D01*
X116941666Y-74552380D01*
X116846428Y-74552380D01*
X116703571Y-74504761D01*
X116608333Y-74409523D01*
X116560714Y-74314285D01*
X116513095Y-74123809D01*
X116513095Y-73980952D01*
X116560714Y-73790476D01*
X116608333Y-73695238D01*
X116703571Y-73600000D01*
X116846428Y-73552380D01*
X116941666Y-73552380D01*
X117084523Y-73600000D01*
X117132142Y-73647619D01*
X118084523Y-74552380D02*
X117513095Y-74552380D01*
X117798809Y-74552380D02*
X117798809Y-73552380D01*
X117703571Y-73695238D01*
X117608333Y-73790476D01*
X117513095Y-73838095D01*
X118941666Y-73885714D02*
X118941666Y-74552380D01*
X118703571Y-73504761D02*
X118465476Y-74219047D01*
X119084523Y-74219047D01*
%TO.C,C13*%
X104427142Y-82762857D02*
X104474761Y-82810476D01*
X104522380Y-82953333D01*
X104522380Y-83048571D01*
X104474761Y-83191428D01*
X104379523Y-83286666D01*
X104284285Y-83334285D01*
X104093809Y-83381904D01*
X103950952Y-83381904D01*
X103760476Y-83334285D01*
X103665238Y-83286666D01*
X103570000Y-83191428D01*
X103522380Y-83048571D01*
X103522380Y-82953333D01*
X103570000Y-82810476D01*
X103617619Y-82762857D01*
X104522380Y-81810476D02*
X104522380Y-82381904D01*
X104522380Y-82096190D02*
X103522380Y-82096190D01*
X103665238Y-82191428D01*
X103760476Y-82286666D01*
X103808095Y-82381904D01*
X103522380Y-81477142D02*
X103522380Y-80858095D01*
X103903333Y-81191428D01*
X103903333Y-81048571D01*
X103950952Y-80953333D01*
X103998571Y-80905714D01*
X104093809Y-80858095D01*
X104331904Y-80858095D01*
X104427142Y-80905714D01*
X104474761Y-80953333D01*
X104522380Y-81048571D01*
X104522380Y-81334285D01*
X104474761Y-81429523D01*
X104427142Y-81477142D01*
%TO.C,C11*%
X126727142Y-75992857D02*
X126774761Y-76040476D01*
X126822380Y-76183333D01*
X126822380Y-76278571D01*
X126774761Y-76421428D01*
X126679523Y-76516666D01*
X126584285Y-76564285D01*
X126393809Y-76611904D01*
X126250952Y-76611904D01*
X126060476Y-76564285D01*
X125965238Y-76516666D01*
X125870000Y-76421428D01*
X125822380Y-76278571D01*
X125822380Y-76183333D01*
X125870000Y-76040476D01*
X125917619Y-75992857D01*
X126822380Y-75040476D02*
X126822380Y-75611904D01*
X126822380Y-75326190D02*
X125822380Y-75326190D01*
X125965238Y-75421428D01*
X126060476Y-75516666D01*
X126108095Y-75611904D01*
X126822380Y-74088095D02*
X126822380Y-74659523D01*
X126822380Y-74373809D02*
X125822380Y-74373809D01*
X125965238Y-74469047D01*
X126060476Y-74564285D01*
X126108095Y-74659523D01*
%TO.C,C10*%
X115807142Y-81242857D02*
X115854761Y-81290476D01*
X115902380Y-81433333D01*
X115902380Y-81528571D01*
X115854761Y-81671428D01*
X115759523Y-81766666D01*
X115664285Y-81814285D01*
X115473809Y-81861904D01*
X115330952Y-81861904D01*
X115140476Y-81814285D01*
X115045238Y-81766666D01*
X114950000Y-81671428D01*
X114902380Y-81528571D01*
X114902380Y-81433333D01*
X114950000Y-81290476D01*
X114997619Y-81242857D01*
X115902380Y-80290476D02*
X115902380Y-80861904D01*
X115902380Y-80576190D02*
X114902380Y-80576190D01*
X115045238Y-80671428D01*
X115140476Y-80766666D01*
X115188095Y-80861904D01*
X114902380Y-79671428D02*
X114902380Y-79576190D01*
X114950000Y-79480952D01*
X114997619Y-79433333D01*
X115092857Y-79385714D01*
X115283333Y-79338095D01*
X115521428Y-79338095D01*
X115711904Y-79385714D01*
X115807142Y-79433333D01*
X115854761Y-79480952D01*
X115902380Y-79576190D01*
X115902380Y-79671428D01*
X115854761Y-79766666D01*
X115807142Y-79814285D01*
X115711904Y-79861904D01*
X115521428Y-79909523D01*
X115283333Y-79909523D01*
X115092857Y-79861904D01*
X114997619Y-79814285D01*
X114950000Y-79766666D01*
X114902380Y-79671428D01*
%TO.C,C9*%
X104457142Y-79066666D02*
X104504761Y-79114285D01*
X104552380Y-79257142D01*
X104552380Y-79352380D01*
X104504761Y-79495238D01*
X104409523Y-79590476D01*
X104314285Y-79638095D01*
X104123809Y-79685714D01*
X103980952Y-79685714D01*
X103790476Y-79638095D01*
X103695238Y-79590476D01*
X103600000Y-79495238D01*
X103552380Y-79352380D01*
X103552380Y-79257142D01*
X103600000Y-79114285D01*
X103647619Y-79066666D01*
X104552380Y-78590476D02*
X104552380Y-78400000D01*
X104504761Y-78304761D01*
X104457142Y-78257142D01*
X104314285Y-78161904D01*
X104123809Y-78114285D01*
X103742857Y-78114285D01*
X103647619Y-78161904D01*
X103600000Y-78209523D01*
X103552380Y-78304761D01*
X103552380Y-78495238D01*
X103600000Y-78590476D01*
X103647619Y-78638095D01*
X103742857Y-78685714D01*
X103980952Y-78685714D01*
X104076190Y-78638095D01*
X104123809Y-78590476D01*
X104171428Y-78495238D01*
X104171428Y-78304761D01*
X104123809Y-78209523D01*
X104076190Y-78161904D01*
X103980952Y-78114285D01*
%TO.C,C7*%
X132357142Y-88366666D02*
X132404761Y-88414285D01*
X132452380Y-88557142D01*
X132452380Y-88652380D01*
X132404761Y-88795238D01*
X132309523Y-88890476D01*
X132214285Y-88938095D01*
X132023809Y-88985714D01*
X131880952Y-88985714D01*
X131690476Y-88938095D01*
X131595238Y-88890476D01*
X131500000Y-88795238D01*
X131452380Y-88652380D01*
X131452380Y-88557142D01*
X131500000Y-88414285D01*
X131547619Y-88366666D01*
X131452380Y-88033333D02*
X131452380Y-87366666D01*
X132452380Y-87795238D01*
%TO.C,C5*%
X151533333Y-59157142D02*
X151485714Y-59204761D01*
X151342857Y-59252380D01*
X151247619Y-59252380D01*
X151104761Y-59204761D01*
X151009523Y-59109523D01*
X150961904Y-59014285D01*
X150914285Y-58823809D01*
X150914285Y-58680952D01*
X150961904Y-58490476D01*
X151009523Y-58395238D01*
X151104761Y-58300000D01*
X151247619Y-58252380D01*
X151342857Y-58252380D01*
X151485714Y-58300000D01*
X151533333Y-58347619D01*
X152438095Y-58252380D02*
X151961904Y-58252380D01*
X151914285Y-58728571D01*
X151961904Y-58680952D01*
X152057142Y-58633333D01*
X152295238Y-58633333D01*
X152390476Y-58680952D01*
X152438095Y-58728571D01*
X152485714Y-58823809D01*
X152485714Y-59061904D01*
X152438095Y-59157142D01*
X152390476Y-59204761D01*
X152295238Y-59252380D01*
X152057142Y-59252380D01*
X151961904Y-59204761D01*
X151914285Y-59157142D01*
%TO.C,C4*%
X166563333Y-62757142D02*
X166515714Y-62804761D01*
X166372857Y-62852380D01*
X166277619Y-62852380D01*
X166134761Y-62804761D01*
X166039523Y-62709523D01*
X165991904Y-62614285D01*
X165944285Y-62423809D01*
X165944285Y-62280952D01*
X165991904Y-62090476D01*
X166039523Y-61995238D01*
X166134761Y-61900000D01*
X166277619Y-61852380D01*
X166372857Y-61852380D01*
X166515714Y-61900000D01*
X166563333Y-61947619D01*
X167420476Y-62185714D02*
X167420476Y-62852380D01*
X167182380Y-61804761D02*
X166944285Y-62519047D01*
X167563333Y-62519047D01*
%TO.C,C3*%
X151533333Y-64857142D02*
X151485714Y-64904761D01*
X151342857Y-64952380D01*
X151247619Y-64952380D01*
X151104761Y-64904761D01*
X151009523Y-64809523D01*
X150961904Y-64714285D01*
X150914285Y-64523809D01*
X150914285Y-64380952D01*
X150961904Y-64190476D01*
X151009523Y-64095238D01*
X151104761Y-64000000D01*
X151247619Y-63952380D01*
X151342857Y-63952380D01*
X151485714Y-64000000D01*
X151533333Y-64047619D01*
X151866666Y-63952380D02*
X152485714Y-63952380D01*
X152152380Y-64333333D01*
X152295238Y-64333333D01*
X152390476Y-64380952D01*
X152438095Y-64428571D01*
X152485714Y-64523809D01*
X152485714Y-64761904D01*
X152438095Y-64857142D01*
X152390476Y-64904761D01*
X152295238Y-64952380D01*
X152009523Y-64952380D01*
X151914285Y-64904761D01*
X151866666Y-64857142D01*
%TO.C,C2*%
X166663333Y-57457142D02*
X166615714Y-57504761D01*
X166472857Y-57552380D01*
X166377619Y-57552380D01*
X166234761Y-57504761D01*
X166139523Y-57409523D01*
X166091904Y-57314285D01*
X166044285Y-57123809D01*
X166044285Y-56980952D01*
X166091904Y-56790476D01*
X166139523Y-56695238D01*
X166234761Y-56600000D01*
X166377619Y-56552380D01*
X166472857Y-56552380D01*
X166615714Y-56600000D01*
X166663333Y-56647619D01*
X167044285Y-56647619D02*
X167091904Y-56600000D01*
X167187142Y-56552380D01*
X167425238Y-56552380D01*
X167520476Y-56600000D01*
X167568095Y-56647619D01*
X167615714Y-56742857D01*
X167615714Y-56838095D01*
X167568095Y-56980952D01*
X166996666Y-57552380D01*
X167615714Y-57552380D01*
%TD*%
M02*
